<svg width="43" height="43" viewBox="0 0 43 43" fill="none" xmlns="http://www.w3.org/2000/svg">
<g filter="url(#filter0_i_131_6)">
<path d="M4 21.5312C4 31.1633 11.8367 39 21.4688 39C31.1007 39 38.9375 31.1632 38.9375 21.5312C38.9375 11.8992 31.1007 4.0625 21.4687 4.0625C11.8367 4.0625 4 11.8993 4 21.5312ZM6.6875 21.5312C6.6875 13.3518 13.2893 6.75 21.4687 6.75C29.6482 6.75 36.25 13.3518 36.25 21.5312C36.25 29.7107 29.6482 36.3125 21.4687 36.3125C13.2893 36.3125 6.6875 29.7107 6.6875 21.5312ZM14.8763 21.5312L15.7995 22.4988L23.862 30.5612L25.797 28.6262L18.6966 21.5312L25.7916 14.4362L23.8606 12.5013L15.7981 20.5638L14.8763 21.5312Z" fill="white"/>
</g>
<path d="M23.8603 13.2087L25.0849 14.4359L18.343 21.1777L17.9894 21.5314L18.3432 21.8849L25.0897 28.6264L23.862 29.8541L16.1571 22.1493L15.5672 21.531L16.1559 20.913L23.8603 13.2087ZM21.4687 38.5C12.1129 38.5 4.5 30.8871 4.5 21.5312C4.5 12.1754 12.1129 4.5625 21.4687 4.5625C30.8246 4.5625 38.4375 12.1754 38.4375 21.5312C38.4375 30.8871 30.8246 38.5 21.4687 38.5ZM21.4687 6.25C13.0132 6.25 6.1875 13.0757 6.1875 21.5312C6.1875 29.9868 13.0132 36.8125 21.4687 36.8125C29.9243 36.8125 36.75 29.9868 36.75 21.5312C36.75 13.0757 29.9243 6.25 21.4687 6.25Z" stroke="white"/>
<defs>
<filter id="filter0_i_131_6" x="4" y="4.0625" width="34.9375" height="38.9375" filterUnits="userSpaceOnUse" color-interpolation-filters="sRGB">
<feFlood flood-opacity="0" result="BackgroundImageFix"/>
<feBlend mode="normal" in="SourceGraphic" in2="BackgroundImageFix" result="shape"/>
<feColorMatrix in="SourceAlpha" type="matrix" values="0 0 0 0 0 0 0 0 0 0 0 0 0 0 0 0 0 0 127 0" result="hardAlpha"/>
<feOffset dy="4"/>
<feGaussianBlur stdDeviation="2"/>
<feComposite in2="hardAlpha" operator="arithmetic" k2="-1" k3="1"/>
<feColorMatrix type="matrix" values="0 0 0 0 0 0 0 0 0 0 0 0 0 0 0 0 0 0 0.25 0"/>
<feBlend mode="normal" in2="shape" result="effect1_innerShadow_131_6"/>
</filter>
</defs>
</svg>
