<svg width="63" height="30" viewBox="0 0 63 30" fill="none" xmlns="http://www.w3.org/2000/svg">
<path d="M3.5957 0.5V23H0.0507812V0.5H3.5957ZM6.78906 15.251V14.9141C6.78906 13.7715 6.95508 12.7119 7.28711 11.7354C7.61914 10.749 8.09766 9.89453 8.72266 9.17188C9.35742 8.43945 10.1289 7.87305 11.0371 7.47266C11.9551 7.0625 12.9902 6.85742 14.1426 6.85742C15.3047 6.85742 16.3398 7.0625 17.248 7.47266C18.166 7.87305 18.9424 8.43945 19.5771 9.17188C20.2119 9.89453 20.6953 10.749 21.0273 11.7354C21.3594 12.7119 21.5254 13.7715 21.5254 14.9141V15.251C21.5254 16.3936 21.3594 17.4531 21.0273 18.4297C20.6953 19.4062 20.2119 20.2607 19.5771 20.9932C18.9424 21.7158 18.1709 22.2822 17.2627 22.6924C16.3545 23.0928 15.3242 23.293 14.1719 23.293C13.0098 23.293 11.9697 23.0928 11.0518 22.6924C10.1436 22.2822 9.37207 21.7158 8.7373 20.9932C8.10254 20.2607 7.61914 19.4062 7.28711 18.4297C6.95508 17.4531 6.78906 16.3936 6.78906 15.251ZM10.3193 14.9141V15.251C10.3193 15.9639 10.3926 16.6377 10.5391 17.2725C10.6855 17.9072 10.915 18.4639 11.2275 18.9424C11.54 19.4209 11.9404 19.7969 12.4287 20.0703C12.917 20.3438 13.498 20.4805 14.1719 20.4805C14.8262 20.4805 15.3926 20.3438 15.8711 20.0703C16.3594 19.7969 16.7598 19.4209 17.0723 18.9424C17.3848 18.4639 17.6143 17.9072 17.7607 17.2725C17.917 16.6377 17.9951 15.9639 17.9951 15.251V14.9141C17.9951 14.2109 17.917 13.5469 17.7607 12.9219C17.6143 12.2871 17.3799 11.7256 17.0576 11.2373C16.7451 10.749 16.3447 10.3682 15.8564 10.0947C15.3779 9.81152 14.8066 9.66992 14.1426 9.66992C13.4785 9.66992 12.9023 9.81152 12.4141 10.0947C11.9355 10.3682 11.54 10.749 11.2275 11.2373C10.915 11.7256 10.6855 12.2871 10.5391 12.9219C10.3926 13.5469 10.3193 14.2109 10.3193 14.9141ZM34.6357 7.15039H37.8438V22.5605C37.8438 23.9863 37.541 25.1973 36.9355 26.1934C36.3301 27.1895 35.4854 27.9463 34.4014 28.4639C33.3174 28.9912 32.0625 29.2549 30.6367 29.2549C30.0312 29.2549 29.3574 29.167 28.6152 28.9912C27.8828 28.8154 27.1699 28.5322 26.4766 28.1416C25.793 27.7607 25.2217 27.2578 24.7627 26.6328L26.418 24.5527C26.9844 25.2266 27.6094 25.7197 28.293 26.0322C28.9766 26.3447 29.6943 26.501 30.4463 26.501C31.2568 26.501 31.9453 26.3496 32.5117 26.0469C33.0879 25.7539 33.5322 25.3193 33.8447 24.7432C34.1572 24.167 34.3135 23.4639 34.3135 22.6338V10.7393L34.6357 7.15039ZM23.8691 15.251V14.9434C23.8691 13.7422 24.0156 12.6484 24.3086 11.6621C24.6016 10.666 25.0215 9.81152 25.5684 9.09863C26.1152 8.37598 26.7793 7.82422 27.5605 7.44336C28.3418 7.05273 29.2256 6.85742 30.2119 6.85742C31.2373 6.85742 32.1113 7.04297 32.834 7.41406C33.5664 7.78516 34.1768 8.31738 34.665 9.01074C35.1533 9.69434 35.5342 10.5146 35.8076 11.4717C36.0908 12.4189 36.3008 13.4736 36.4375 14.6357V15.6172C36.3105 16.75 36.0957 17.7852 35.793 18.7227C35.4902 19.6602 35.0898 20.4707 34.5918 21.1543C34.0938 21.8379 33.4785 22.3652 32.7461 22.7363C32.0234 23.1074 31.1689 23.293 30.1826 23.293C29.2158 23.293 28.3418 23.0928 27.5605 22.6924C26.7891 22.292 26.125 21.7305 25.5684 21.0078C25.0215 20.2852 24.6016 19.4355 24.3086 18.459C24.0156 17.4727 23.8691 16.4033 23.8691 15.251ZM27.3994 14.9434V15.251C27.3994 15.9736 27.4678 16.6475 27.6045 17.2725C27.751 17.8975 27.9707 18.4492 28.2637 18.9277C28.5664 19.3965 28.9473 19.7676 29.4062 20.041C29.875 20.3047 30.4268 20.4365 31.0615 20.4365C31.8916 20.4365 32.5703 20.2607 33.0977 19.9092C33.6348 19.5576 34.0449 19.084 34.3281 18.4883C34.6211 17.8828 34.8262 17.209 34.9434 16.4668V13.8154C34.8848 13.2393 34.7627 12.7021 34.5771 12.2041C34.4014 11.7061 34.1621 11.2715 33.8594 10.9004C33.5566 10.5195 33.1758 10.2266 32.7168 10.0215C32.2578 9.80664 31.7158 9.69922 31.0908 9.69922C30.4561 9.69922 29.9043 9.83594 29.4355 10.1094C28.9668 10.3828 28.5811 10.7588 28.2783 11.2373C27.9854 11.7158 27.7656 12.2725 27.6191 12.9072C27.4727 13.542 27.3994 14.2207 27.3994 14.9434ZM45.2852 7.15039V23H41.7402V7.15039H45.2852ZM41.5059 2.99023C41.5059 2.45312 41.6816 2.00879 42.0332 1.65723C42.3945 1.2959 42.8926 1.11523 43.5273 1.11523C44.1523 1.11523 44.6455 1.2959 45.0068 1.65723C45.3682 2.00879 45.5488 2.45312 45.5488 2.99023C45.5488 3.51758 45.3682 3.95703 45.0068 4.30859C44.6455 4.66016 44.1523 4.83594 43.5273 4.83594C42.8926 4.83594 42.3945 4.66016 42.0332 4.30859C41.6816 3.95703 41.5059 3.51758 41.5059 2.99023ZM52.6533 10.5342V23H49.123V7.15039H52.4482L52.6533 10.5342ZM52.0234 14.4893L50.8809 14.4746C50.8906 13.3516 51.0469 12.3213 51.3496 11.3838C51.6621 10.4463 52.0918 9.64062 52.6387 8.9668C53.1953 8.29297 53.8594 7.77539 54.6309 7.41406C55.4023 7.04297 56.2617 6.85742 57.209 6.85742C57.9707 6.85742 58.6592 6.96484 59.2744 7.17969C59.8994 7.38477 60.4316 7.72168 60.8711 8.19043C61.3203 8.65918 61.6621 9.26953 61.8965 10.0215C62.1309 10.7637 62.248 11.6768 62.248 12.7607V23H58.7031V12.7461C58.7031 11.9844 58.5908 11.3838 58.3662 10.9443C58.1514 10.4951 57.834 10.1777 57.4141 9.99219C57.0039 9.79688 56.4912 9.69922 55.876 9.69922C55.2705 9.69922 54.7285 9.82617 54.25 10.0801C53.7715 10.334 53.3662 10.6807 53.0342 11.1201C52.7119 11.5596 52.4629 12.0674 52.2871 12.6436C52.1113 13.2197 52.0234 13.835 52.0234 14.4893Z" fill="black"/>
</svg>
