<svg width="154" height="24" viewBox="0 0 154 24" fill="none" xmlns="http://www.w3.org/2000/svg">
<path d="M15.5859 11.3105V14.4893H0.966797V11.3105H15.5859ZM9.99023 5.33398V20.8613H6.57715V5.33398H9.99023ZM32.4316 20.4805C33.0078 20.4805 33.5254 20.3682 33.9844 20.1436C34.4531 19.9092 34.8291 19.5869 35.1123 19.1768C35.4053 18.7666 35.5664 18.293 35.5957 17.7559H38.9209C38.9014 18.7812 38.5986 19.7139 38.0127 20.5537C37.4268 21.3936 36.6504 22.0625 35.6836 22.5605C34.7168 23.0488 33.6475 23.293 32.4756 23.293C31.2646 23.293 30.21 23.0879 29.3115 22.6777C28.4131 22.2578 27.666 21.6816 27.0703 20.9492C26.4746 20.2168 26.0254 19.3721 25.7227 18.415C25.4297 17.458 25.2832 16.4326 25.2832 15.3389V14.8262C25.2832 13.7324 25.4297 12.707 25.7227 11.75C26.0254 10.7832 26.4746 9.93359 27.0703 9.20117C27.666 8.46875 28.4131 7.89746 29.3115 7.4873C30.21 7.06738 31.2598 6.85742 32.4609 6.85742C33.7305 6.85742 34.8438 7.11133 35.8008 7.61914C36.7578 8.11719 37.5098 8.81543 38.0566 9.71387C38.6133 10.6025 38.9014 11.6377 38.9209 12.8193H35.5957C35.5664 12.2334 35.4199 11.7061 35.1562 11.2373C34.9023 10.7588 34.541 10.3779 34.0723 10.0947C33.6133 9.81152 33.0615 9.66992 32.417 9.66992C31.7041 9.66992 31.1133 9.81641 30.6445 10.1094C30.1758 10.3926 29.8096 10.7832 29.5459 11.2812C29.2822 11.7695 29.0918 12.3213 28.9746 12.9365C28.8672 13.542 28.8135 14.1719 28.8135 14.8262V15.3389C28.8135 15.9932 28.8672 16.6279 28.9746 17.2432C29.082 17.8584 29.2676 18.4102 29.5312 18.8984C29.8047 19.377 30.1758 19.7627 30.6445 20.0557C31.1133 20.3389 31.709 20.4805 32.4316 20.4805ZM40.957 15.251V14.9141C40.957 13.7715 41.123 12.7119 41.4551 11.7354C41.7871 10.749 42.2656 9.89453 42.8906 9.17188C43.5254 8.43945 44.2969 7.87305 45.2051 7.47266C46.123 7.0625 47.1582 6.85742 48.3105 6.85742C49.4727 6.85742 50.5078 7.0625 51.416 7.47266C52.334 7.87305 53.1104 8.43945 53.7451 9.17188C54.3799 9.89453 54.8633 10.749 55.1953 11.7354C55.5273 12.7119 55.6934 13.7715 55.6934 14.9141V15.251C55.6934 16.3936 55.5273 17.4531 55.1953 18.4297C54.8633 19.4062 54.3799 20.2607 53.7451 20.9932C53.1104 21.7158 52.3389 22.2822 51.4307 22.6924C50.5225 23.0928 49.4922 23.293 48.3398 23.293C47.1777 23.293 46.1377 23.0928 45.2197 22.6924C44.3115 22.2822 43.54 21.7158 42.9053 20.9932C42.2705 20.2607 41.7871 19.4062 41.4551 18.4297C41.123 17.4531 40.957 16.3936 40.957 15.251ZM44.4873 14.9141V15.251C44.4873 15.9639 44.5605 16.6377 44.707 17.2725C44.8535 17.9072 45.083 18.4639 45.3955 18.9424C45.708 19.4209 46.1084 19.7969 46.5967 20.0703C47.085 20.3438 47.666 20.4805 48.3398 20.4805C48.9941 20.4805 49.5605 20.3438 50.0391 20.0703C50.5273 19.7969 50.9277 19.4209 51.2402 18.9424C51.5527 18.4639 51.7822 17.9072 51.9287 17.2725C52.085 16.6377 52.1631 15.9639 52.1631 15.251V14.9141C52.1631 14.2109 52.085 13.5469 51.9287 12.9219C51.7822 12.2871 51.5479 11.7256 51.2256 11.2373C50.9131 10.749 50.5127 10.3682 50.0244 10.0947C49.5459 9.81152 48.9746 9.66992 48.3105 9.66992C47.6465 9.66992 47.0703 9.81152 46.582 10.0947C46.1035 10.3682 45.708 10.749 45.3955 11.2373C45.083 11.7256 44.8535 12.2871 44.707 12.9219C44.5605 13.5469 44.4873 14.2109 44.4873 14.9141ZM62.4316 0.5V23H58.8867V0.5H62.4316ZM70.0781 0.5V23H66.5332V0.5H70.0781ZM80.9326 23.293C79.7607 23.293 78.7012 23.1025 77.7539 22.7217C76.8164 22.3311 76.0156 21.7891 75.3516 21.0957C74.6973 20.4023 74.1943 19.5869 73.8428 18.6494C73.4912 17.7119 73.3154 16.7012 73.3154 15.6172V15.0312C73.3154 13.791 73.4961 12.668 73.8574 11.6621C74.2188 10.6562 74.7217 9.79688 75.3662 9.08398C76.0107 8.36133 76.7725 7.80957 77.6514 7.42871C78.5303 7.04785 79.4824 6.85742 80.5078 6.85742C81.6406 6.85742 82.6318 7.04785 83.4814 7.42871C84.3311 7.80957 85.0342 8.34668 85.5908 9.04004C86.1572 9.72363 86.5771 10.5391 86.8506 11.4863C87.1338 12.4336 87.2754 13.4785 87.2754 14.6211V16.1299H75.0293V13.5957H83.7891V13.3174C83.7695 12.6826 83.6426 12.0869 83.4082 11.5303C83.1836 10.9736 82.8369 10.5244 82.3682 10.1826C81.8994 9.84082 81.2744 9.66992 80.4932 9.66992C79.9072 9.66992 79.3848 9.79688 78.9258 10.0508C78.4766 10.2949 78.1006 10.6514 77.7979 11.1201C77.4951 11.5889 77.2607 12.1553 77.0947 12.8193C76.9385 13.4736 76.8604 14.2109 76.8604 15.0312V15.6172C76.8604 16.3105 76.9531 16.9551 77.1387 17.5508C77.334 18.1367 77.6172 18.6494 77.9883 19.0889C78.3594 19.5283 78.8086 19.875 79.3359 20.1289C79.8633 20.373 80.4639 20.4951 81.1377 20.4951C81.9873 20.4951 82.7441 20.3242 83.4082 19.9824C84.0723 19.6406 84.6484 19.1572 85.1367 18.5322L86.9971 20.334C86.6553 20.832 86.2109 21.3105 85.6641 21.7695C85.1172 22.2188 84.4482 22.585 83.6572 22.8682C82.876 23.1514 81.9678 23.293 80.9326 23.293ZM96.5039 20.4805C97.0801 20.4805 97.5977 20.3682 98.0566 20.1436C98.5254 19.9092 98.9014 19.5869 99.1846 19.1768C99.4775 18.7666 99.6387 18.293 99.668 17.7559H102.993C102.974 18.7812 102.671 19.7139 102.085 20.5537C101.499 21.3936 100.723 22.0625 99.7559 22.5605C98.7891 23.0488 97.7197 23.293 96.5479 23.293C95.3369 23.293 94.2822 23.0879 93.3838 22.6777C92.4854 22.2578 91.7383 21.6816 91.1426 20.9492C90.5469 20.2168 90.0977 19.3721 89.7949 18.415C89.502 17.458 89.3555 16.4326 89.3555 15.3389V14.8262C89.3555 13.7324 89.502 12.707 89.7949 11.75C90.0977 10.7832 90.5469 9.93359 91.1426 9.20117C91.7383 8.46875 92.4854 7.89746 93.3838 7.4873C94.2822 7.06738 95.332 6.85742 96.5332 6.85742C97.8027 6.85742 98.916 7.11133 99.873 7.61914C100.83 8.11719 101.582 8.81543 102.129 9.71387C102.686 10.6025 102.974 11.6377 102.993 12.8193H99.668C99.6387 12.2334 99.4922 11.7061 99.2285 11.2373C98.9746 10.7588 98.6133 10.3779 98.1445 10.0947C97.6855 9.81152 97.1338 9.66992 96.4893 9.66992C95.7764 9.66992 95.1855 9.81641 94.7168 10.1094C94.248 10.3926 93.8818 10.7832 93.6182 11.2812C93.3545 11.7695 93.1641 12.3213 93.0469 12.9365C92.9395 13.542 92.8857 14.1719 92.8857 14.8262V15.3389C92.8857 15.9932 92.9395 16.6279 93.0469 17.2432C93.1543 17.8584 93.3398 18.4102 93.6035 18.8984C93.877 19.377 94.248 19.7627 94.7168 20.0557C95.1855 20.3389 95.7812 20.4805 96.5039 20.4805ZM112.969 7.15039V9.72852H104.033V7.15039H112.969ZM106.611 3.26855H110.142V18.6201C110.142 19.1084 110.21 19.4844 110.347 19.748C110.493 20.002 110.693 20.1729 110.947 20.2607C111.201 20.3486 111.499 20.3926 111.841 20.3926C112.085 20.3926 112.319 20.3779 112.544 20.3486C112.769 20.3193 112.949 20.29 113.086 20.2607L113.101 22.9561C112.808 23.0439 112.466 23.1221 112.075 23.1904C111.694 23.2588 111.255 23.293 110.757 23.293C109.946 23.293 109.229 23.1514 108.604 22.8682C107.979 22.5752 107.49 22.1016 107.139 21.4473C106.787 20.793 106.611 19.9238 106.611 18.8398V3.26855ZM119.473 7.15039V23H115.928V7.15039H119.473ZM115.693 2.99023C115.693 2.45312 115.869 2.00879 116.221 1.65723C116.582 1.2959 117.08 1.11523 117.715 1.11523C118.34 1.11523 118.833 1.2959 119.194 1.65723C119.556 2.00879 119.736 2.45312 119.736 2.99023C119.736 3.51758 119.556 3.95703 119.194 4.30859C118.833 4.66016 118.34 4.83594 117.715 4.83594C117.08 4.83594 116.582 4.66016 116.221 4.30859C115.869 3.95703 115.693 3.51758 115.693 2.99023ZM122.666 15.251V14.9141C122.666 13.7715 122.832 12.7119 123.164 11.7354C123.496 10.749 123.975 9.89453 124.6 9.17188C125.234 8.43945 126.006 7.87305 126.914 7.47266C127.832 7.0625 128.867 6.85742 130.02 6.85742C131.182 6.85742 132.217 7.0625 133.125 7.47266C134.043 7.87305 134.819 8.43945 135.454 9.17188C136.089 9.89453 136.572 10.749 136.904 11.7354C137.236 12.7119 137.402 13.7715 137.402 14.9141V15.251C137.402 16.3936 137.236 17.4531 136.904 18.4297C136.572 19.4062 136.089 20.2607 135.454 20.9932C134.819 21.7158 134.048 22.2822 133.14 22.6924C132.231 23.0928 131.201 23.293 130.049 23.293C128.887 23.293 127.847 23.0928 126.929 22.6924C126.021 22.2822 125.249 21.7158 124.614 20.9932C123.979 20.2607 123.496 19.4062 123.164 18.4297C122.832 17.4531 122.666 16.3936 122.666 15.251ZM126.196 14.9141V15.251C126.196 15.9639 126.27 16.6377 126.416 17.2725C126.562 17.9072 126.792 18.4639 127.104 18.9424C127.417 19.4209 127.817 19.7969 128.306 20.0703C128.794 20.3438 129.375 20.4805 130.049 20.4805C130.703 20.4805 131.27 20.3438 131.748 20.0703C132.236 19.7969 132.637 19.4209 132.949 18.9424C133.262 18.4639 133.491 17.9072 133.638 17.2725C133.794 16.6377 133.872 15.9639 133.872 15.251V14.9141C133.872 14.2109 133.794 13.5469 133.638 12.9219C133.491 12.2871 133.257 11.7256 132.935 11.2373C132.622 10.749 132.222 10.3682 131.733 10.0947C131.255 9.81152 130.684 9.66992 130.02 9.66992C129.355 9.66992 128.779 9.81152 128.291 10.0947C127.812 10.3682 127.417 10.749 127.104 11.2373C126.792 11.7256 126.562 12.2871 126.416 12.9219C126.27 13.5469 126.196 14.2109 126.196 14.9141ZM143.862 10.5342V23H140.332V7.15039H143.657L143.862 10.5342ZM143.232 14.4893L142.09 14.4746C142.1 13.3516 142.256 12.3213 142.559 11.3838C142.871 10.4463 143.301 9.64062 143.848 8.9668C144.404 8.29297 145.068 7.77539 145.84 7.41406C146.611 7.04297 147.471 6.85742 148.418 6.85742C149.18 6.85742 149.868 6.96484 150.483 7.17969C151.108 7.38477 151.641 7.72168 152.08 8.19043C152.529 8.65918 152.871 9.26953 153.105 10.0215C153.34 10.7637 153.457 11.6768 153.457 12.7607V23H149.912V12.7461C149.912 11.9844 149.8 11.3838 149.575 10.9443C149.36 10.4951 149.043 10.1777 148.623 9.99219C148.213 9.79688 147.7 9.69922 147.085 9.69922C146.479 9.69922 145.938 9.82617 145.459 10.0801C144.98 10.334 144.575 10.6807 144.243 11.1201C143.921 11.5596 143.672 12.0674 143.496 12.6436C143.32 13.2197 143.232 13.835 143.232 14.4893Z" fill="black"/>
</svg>
