<svg width="50" height="50" viewBox="0 0 50 50" fill="none" xmlns="http://www.w3.org/2000/svg">
<rect width="50" height="50" rx="10" fill="white"/>
<path fill-rule="evenodd" clip-rule="evenodd" d="M32.7197 30.9062H42.0728C43.6811 30.9062 45 32.2119 45 33.8115V43.0981C45 44.6943 43.6845 46 42.0728 46H32.7197C31.1115 46 29.7926 44.6943 29.7926 43.0981V33.8115C29.796 32.2153 31.1115 30.9062 32.7197 30.9062ZM26.9136 42.7085C27.5197 42.7085 28.0087 43.1938 28.0087 43.7954C28.0087 44.397 27.5197 44.8823 26.9136 44.8823H8.5449C7.84238 44.8823 7.20874 44.5986 6.74384 44.1406C6.28583 43.6792 6 43.0503 6 42.353V6.52588C6 5.82861 6.28583 5.19971 6.74728 4.73828C7.20874 4.28369 7.84583 4 8.5449 4H39.8172C40.5197 4 41.1534 4.28711 41.6148 4.7417C42.0763 5.19971 42.3621 5.83203 42.3621 6.5293V27.4575C42.3621 28.0591 41.8731 28.5444 41.267 28.5444C40.6644 28.5444 40.1719 28.0591 40.1719 27.4575V6.52588C40.1719 6.43018 40.1306 6.34131 40.0652 6.27637C39.9997 6.21143 39.9102 6.17041 39.8172 6.17041H8.5449C8.44848 6.17041 8.35894 6.21143 8.29007 6.27295C8.22808 6.34131 8.18675 6.42676 8.18675 6.52588V42.3462C8.18675 42.4419 8.22808 42.5308 8.29351 42.5957C8.35894 42.6606 8.44848 42.7017 8.54834 42.7017L26.9136 42.7085ZM17.378 23.2671C17.1714 22.9116 17.3195 21.8931 17.7672 21.5342C19.0413 20.7959 20.7976 21.0249 22.0236 20.1738C22.0959 20.0679 22.1717 19.9141 22.2474 19.7466C22.3576 19.4937 22.4609 19.2168 22.5264 19.0288C22.2543 18.7109 22.0201 18.3521 21.7963 17.9966L21.0593 16.8311C20.7907 16.4312 20.6495 16.0654 20.6426 15.7681C20.6392 15.6279 20.6633 15.5015 20.715 15.3853C20.7701 15.2656 20.8527 15.1699 20.9698 15.0913C21.0249 15.0537 21.0834 15.0229 21.1489 15.0024C21.1007 14.3701 21.0834 13.5737 21.1144 12.9072C21.1282 12.75 21.1627 12.5894 21.204 12.4321C21.3934 11.7622 21.8652 11.2256 22.4506 10.8564C22.7743 10.6514 23.1256 10.4976 23.494 10.395C23.7282 10.3267 23.2943 9.58496 23.5354 9.56104C24.7062 9.44141 26.6037 10.5044 27.4199 11.3828C27.8297 11.8237 28.0879 12.4048 28.143 13.1772L28.0983 15.0776C28.3015 15.1392 28.4323 15.269 28.4874 15.4775C28.546 15.71 28.484 16.0347 28.2842 16.479C28.2808 16.4858 28.2774 16.4961 28.2705 16.5029L27.4302 17.877C27.1203 18.3828 26.8069 18.8887 26.4005 19.2886C26.4384 19.3433 26.4763 19.3945 26.5142 19.4492C26.6795 19.6919 26.8482 19.9346 27.0652 20.1499C27.0721 20.1567 27.0789 20.1636 27.0824 20.1738C28.0501 20.854 30.4056 21.0181 31.3113 21.5171L31.3491 21.5376C31.814 21.8931 31.9587 22.9116 31.7452 23.2671H17.378ZM16.6376 35.7222C16.035 35.7222 15.5391 35.23 15.5391 34.6216C15.5391 34.0166 16.0281 33.521 16.6376 33.521H24.0829C24.689 33.521 25.1815 34.0132 25.1815 34.6216C25.1815 35.23 24.6924 35.7222 24.0829 35.7222H16.6376ZM16.6376 28.8418C16.035 28.8418 15.5425 28.3564 15.5425 27.7549C15.5425 27.1567 16.0315 26.668 16.6376 26.668H31.4008C32.0069 26.668 32.4959 27.1533 32.4959 27.7549C32.4959 28.3564 32.0069 28.8418 31.4008 28.8418H16.6376ZM36.4458 35.042C36.4458 34.519 36.8728 34.0952 37.3997 34.0952C37.9266 34.0952 38.3536 34.519 38.3536 35.042V37.5063H40.8366C41.3634 37.5063 41.7905 37.9302 41.7905 38.4531C41.7905 38.9761 41.3634 39.3999 40.8366 39.3999H38.3536V41.8643C38.3536 42.3872 37.9266 42.811 37.3997 42.811C36.8728 42.811 36.4458 42.3872 36.4458 41.8643V39.3999H33.9595C33.4326 39.3999 33.0056 38.9761 33.0056 38.4531C33.0056 37.9302 33.4326 37.5063 33.9595 37.5063H36.4424L36.4458 35.042Z" fill="black"/>
</svg>
