<svg width="51" height="51" viewBox="0 0 51 51" fill="none" xmlns="http://www.w3.org/2000/svg">
<rect x="1" width="50" height="50" rx="10" fill="white"/>
<path d="M26 8C28.2543 8 30.4163 8.89553 32.0104 10.4896C33.6045 12.0837 34.5 14.2457 34.5 16.5C34.5 18.7543 33.6045 20.9163 32.0104 22.5104C30.4163 24.1045 28.2543 25 26 25C23.7457 25 21.5837 24.1045 19.9896 22.5104C18.3955 20.9163 17.5 18.7543 17.5 16.5C17.5 14.2457 18.3955 12.0837 19.9896 10.4896C21.5837 8.89553 23.7457 8 26 8ZM26 29.25C35.3925 29.25 43 33.0537 43 37.75V42H9V37.75C9 33.0537 16.6075 29.25 26 29.25Z" fill="black"/>
</svg>
