<svg width="50" height="50" viewBox="0 0 50 50" fill="none" xmlns="http://www.w3.org/2000/svg">
<rect width="50" height="50" rx="10" fill="white"/>
<path d="M39.25 13H36V15H39V37H11V15H14V13H10.75C10.5163 13.0039 10.2855 13.0538 10.0711 13.1469C9.85661 13.24 9.66258 13.3744 9.50007 13.5425C9.33757 13.7106 9.20976 13.909 9.12396 14.1265C9.03816 14.344 8.99604 14.5762 9.00001 14.81V37.19C8.99604 37.4238 9.03816 37.656 9.12396 37.8735C9.20976 38.091 9.33757 38.2894 9.50007 38.4575C9.66258 38.6256 9.85661 38.76 10.0711 38.8531C10.2855 38.9462 10.5163 38.9961 10.75 39H39.25C39.4838 38.9961 39.7145 38.9462 39.9289 38.8531C40.1434 38.76 40.3374 38.6256 40.5 38.4575C40.6625 38.2894 40.7903 38.091 40.8761 37.8735C40.9619 37.656 41.004 37.4238 41 37.19V14.81C41.004 14.5762 40.9619 14.344 40.8761 14.1265C40.7903 13.909 40.6625 13.7106 40.5 13.5425C40.3374 13.3744 40.1434 13.24 39.9289 13.1469C39.7145 13.0538 39.4838 13.0039 39.25 13Z" fill="black"/>
<path d="M15 21H17V23H15V21Z" fill="black"/>
<path d="M21 21H23V23H21V21Z" fill="black"/>
<path d="M27 21H29V23H27V21Z" fill="black"/>
<path d="M33 21H35V23H33V21Z" fill="black"/>
<path d="M15 26H17V28H15V26Z" fill="black"/>
<path d="M21 26H23V28H21V26Z" fill="black"/>
<path d="M27 26H29V28H27V26Z" fill="black"/>
<path d="M33 26H35V28H33V26Z" fill="black"/>
<path d="M15 31H17V33H15V31Z" fill="black"/>
<path d="M21 31H23V33H21V31Z" fill="black"/>
<path d="M27 31H29V33H27V31Z" fill="black"/>
<path d="M33 31H35V33H33V31Z" fill="black"/>
<path d="M17 17C17.2652 17 17.5196 16.8946 17.7071 16.7071C17.8946 16.5196 18 16.2652 18 16V10C18 9.73478 17.8946 9.48043 17.7071 9.29289C17.5196 9.10536 17.2652 9 17 9C16.7348 9 16.4804 9.10536 16.2929 9.29289C16.1054 9.48043 16 9.73478 16 10V16C16 16.2652 16.1054 16.5196 16.2929 16.7071C16.4804 16.8946 16.7348 17 17 17Z" fill="black"/>
<path d="M33 17C33.2652 17 33.5196 16.8946 33.7071 16.7071C33.8946 16.5196 34 16.2652 34 16V10C34 9.73478 33.8946 9.48043 33.7071 9.29289C33.5196 9.10536 33.2652 9 33 9C32.7348 9 32.4804 9.10536 32.2929 9.29289C32.1054 9.48043 32 9.73478 32 10V16C32 16.2652 32.1054 16.5196 32.2929 16.7071C32.4804 16.8946 32.7348 17 33 17Z" fill="black"/>
<path d="M20 13H30V15H20V13Z" fill="black"/>
</svg>
