<svg width="50" height="50" viewBox="0 0 50 50" fill="none" xmlns="http://www.w3.org/2000/svg">
<rect width="50" height="50" rx="10" fill="white"/>
<path d="M30.72 12V14H34.283L30.908 17.406C29.7017 16.4951 28.2316 16.0016 26.72 16C24.85 16 23.104 16.74 21.782 18.063C21.1285 18.7086 20.6097 19.4775 20.2557 20.3251C19.9016 21.1727 19.7194 22.0821 19.7195 23.0007C19.7195 23.9193 19.902 24.8287 20.2562 25.6762C20.6105 26.5238 21.1294 27.2926 21.783 27.938C22.653 28.808 23.689 29.433 24.845 29.75C24.959 29.663 25.087 29.572 25.189 29.47C25.6082 29.0437 25.9093 28.5158 26.063 27.938C24.9743 27.8036 23.9621 27.3082 23.188 26.531C22.244 25.588 21.72 24.336 21.72 23C21.72 21.664 22.245 20.414 23.19 19.47C24.132 18.523 25.384 18 26.72 18C28.056 18 29.307 18.525 30.25 19.47C30.7166 19.9317 31.0868 20.4815 31.3392 21.0875C31.5915 21.6935 31.721 22.3436 31.72 23C31.72 23.865 31.475 24.67 31.064 25.406C31.16 25.922 31.22 26.464 31.22 27C31.22 27.498 31.178 27.99 31.095 28.47C31.295 28.307 31.473 28.122 31.658 27.938C32.98 26.614 33.72 24.87 33.72 23C33.72 21.47 33.216 20.016 32.314 18.812L35.72 15.438V19H37.72V12H30.72ZM24.595 20.25C24.481 20.337 24.353 20.428 24.251 20.53C23.819 20.964 23.537 21.49 23.377 22.063C24.467 22.203 25.462 22.679 26.252 23.469C27.197 24.412 27.722 25.664 27.722 26.999C27.722 28.334 27.197 29.585 26.252 30.529C25.308 31.477 24.056 32 22.72 32C21.384 32 20.133 31.475 19.19 30.53C18.7231 30.0685 18.3526 29.5188 18.1002 28.9127C17.8478 28.3067 17.7186 27.6565 17.72 27C17.72 26.135 17.965 25.33 18.376 24.594C18.2756 24.0685 18.2234 23.535 18.22 23C18.22 22.502 18.262 22.01 18.345 21.53C18.145 21.693 17.968 21.878 17.782 22.063C16.462 23.384 15.72 25.13 15.72 27C15.72 28.53 16.224 29.984 17.126 31.188L15.44 32.875L13.44 30.875L12 32.281L14 34.281L12 36.281L13.44 37.721L15.44 35.721L17.44 37.721L18.845 36.281L16.845 34.281L18.533 32.595C19.7382 33.5073 21.2085 34.0007 22.72 34C24.59 34 26.336 33.26 27.658 31.937C28.98 30.616 29.72 28.87 29.72 27C29.72 25.13 28.98 23.386 27.657 22.062C26.787 21.192 25.751 20.567 24.595 20.25Z" fill="black"/>
</svg>
