<svg width="190" height="190" viewBox="0 0 190 190" fill="none" xmlns="http://www.w3.org/2000/svg">
<path opacity="0.9" d="M80.75 9.95929C89.5679 4.86826 100.432 4.86826 109.25 9.95929L161.522 40.1388C170.34 45.2298 175.772 54.6384 175.772 64.8205V125.179C175.772 135.362 170.34 144.77 161.522 149.861L109.25 180.041C100.432 185.132 89.5679 185.132 80.75 180.041L28.4776 149.861C19.6597 144.77 14.2276 135.362 14.2276 125.179V64.8205C14.2276 54.6384 19.6597 45.2298 28.4776 40.1388L80.75 9.95929Z" fill="white" stroke="#333333" stroke-width="3"/>
<g clip-path="url(#clip0_289_2)">
<path d="M51.6667 111.5C51.6667 105.754 53.9495 100.243 58.0128 96.1794C62.0761 92.1161 67.5871 89.8334 73.3334 89.8334H116.667C122.413 89.8334 127.924 92.1161 131.987 96.1794C136.051 100.243 138.333 105.754 138.333 111.5C138.333 114.373 137.192 117.129 135.16 119.16C133.129 121.192 130.373 122.333 127.5 122.333H62.5001C59.6269 122.333 56.8714 121.192 54.8398 119.16C52.8081 117.129 51.6667 114.373 51.6667 111.5Z" stroke="#333333" stroke-width="2" stroke-linejoin="round"/>
<path d="M95 68.1667C103.975 68.1667 111.25 60.8913 111.25 51.9167C111.25 42.9421 103.975 35.6667 95 35.6667C86.0254 35.6667 78.75 42.9421 78.75 51.9167C78.75 60.8913 86.0254 68.1667 95 68.1667Z" stroke="#333333" stroke-width="2"/>
<path d="M53.0455 129.364H54.4545V137.068C54.4545 137.864 54.267 138.574 53.892 139.199C53.5208 139.82 52.9962 140.311 52.3182 140.67C51.6402 141.027 50.8447 141.205 49.9318 141.205C49.0189 141.205 48.2235 141.027 47.5455 140.67C46.8674 140.311 46.3409 139.82 45.9659 139.199C45.5947 138.574 45.4091 137.864 45.4091 137.068V129.364H46.8182V136.955C46.8182 137.523 46.9432 138.028 47.1932 138.472C47.4432 138.911 47.7992 139.258 48.2614 139.511C48.7273 139.761 49.2841 139.886 49.9318 139.886C50.5795 139.886 51.1364 139.761 51.6023 139.511C52.0682 139.258 52.4242 138.911 52.6705 138.472C52.9205 138.028 53.0455 137.523 53.0455 136.955V129.364ZM57.0866 144.273V132.273H58.3821V133.659H58.5412C58.6397 133.508 58.776 133.314 58.9503 133.08C59.1283 132.841 59.3821 132.629 59.7116 132.443C60.045 132.254 60.4957 132.159 61.0639 132.159C61.7988 132.159 62.4465 132.343 63.0071 132.71C63.5677 133.078 64.0052 133.598 64.3196 134.273C64.634 134.947 64.7912 135.742 64.7912 136.659C64.7912 137.583 64.634 138.384 64.3196 139.062C64.0052 139.737 63.5696 140.259 63.0128 140.631C62.456 140.998 61.8139 141.182 61.0866 141.182C60.526 141.182 60.0772 141.089 59.7401 140.903C59.4029 140.714 59.1435 140.5 58.9616 140.261C58.7798 140.019 58.6397 139.818 58.5412 139.659H58.4276V144.273H57.0866ZM58.4048 136.636C58.4048 137.295 58.5014 137.877 58.6946 138.381C58.8878 138.881 59.17 139.273 59.5412 139.557C59.9124 139.837 60.367 139.977 60.9048 139.977C61.4654 139.977 61.9332 139.83 62.3082 139.534C62.687 139.235 62.9711 138.833 63.1605 138.33C63.3537 137.822 63.4503 137.258 63.4503 136.636C63.4503 136.023 63.3556 135.47 63.1662 134.977C62.9806 134.481 62.6984 134.089 62.3196 133.801C61.9446 133.509 61.473 133.364 60.9048 133.364C60.3594 133.364 59.901 133.502 59.5298 133.778C59.1586 134.051 58.8783 134.434 58.6889 134.926C58.4995 135.415 58.4048 135.985 58.4048 136.636ZM68.1776 129.364V141H66.8366V129.364H68.1776ZM74.179 141.182C73.3911 141.182 72.6998 140.994 72.1051 140.619C71.5142 140.244 71.0521 139.72 70.7188 139.045C70.3892 138.371 70.2244 137.583 70.2244 136.682C70.2244 135.773 70.3892 134.979 70.7188 134.301C71.0521 133.623 71.5142 133.097 72.1051 132.722C72.6998 132.347 73.3911 132.159 74.179 132.159C74.9669 132.159 75.6563 132.347 76.2472 132.722C76.8419 133.097 77.304 133.623 77.6335 134.301C77.9669 134.979 78.1335 135.773 78.1335 136.682C78.1335 137.583 77.9669 138.371 77.6335 139.045C77.304 139.72 76.8419 140.244 76.2472 140.619C75.6563 140.994 74.9669 141.182 74.179 141.182ZM74.179 139.977C74.7775 139.977 75.2699 139.824 75.6562 139.517C76.0426 139.21 76.3286 138.807 76.5142 138.307C76.6998 137.807 76.7926 137.265 76.7926 136.682C76.7926 136.098 76.6998 135.555 76.5142 135.051C76.3286 134.547 76.0426 134.14 75.6562 133.83C75.2699 133.519 74.7775 133.364 74.179 133.364C73.5805 133.364 73.0881 133.519 72.7017 133.83C72.3153 134.14 72.0294 134.547 71.8438 135.051C71.6581 135.555 71.5653 136.098 71.5653 136.682C71.5653 137.265 71.6581 137.807 71.8438 138.307C72.0294 138.807 72.3153 139.21 72.7017 139.517C73.0881 139.824 73.5805 139.977 74.179 139.977ZM82.7486 141.205C82.1955 141.205 81.6937 141.1 81.2429 140.892C80.7921 140.68 80.4342 140.375 80.169 139.977C79.9039 139.576 79.7713 139.091 79.7713 138.523C79.7713 138.023 79.8698 137.617 80.0668 137.307C80.2637 136.992 80.527 136.746 80.8565 136.568C81.1861 136.39 81.5497 136.258 81.9474 136.17C82.349 136.08 82.7524 136.008 83.1577 135.955C83.688 135.886 84.1179 135.835 84.4474 135.801C84.7808 135.763 85.0232 135.701 85.1747 135.614C85.33 135.527 85.4077 135.375 85.4077 135.159V135.114C85.4077 134.553 85.2543 134.117 84.9474 133.807C84.6444 133.496 84.1842 133.341 83.5668 133.341C82.9266 133.341 82.4247 133.481 82.0611 133.761C81.6974 134.042 81.4418 134.341 81.294 134.659L80.0213 134.205C80.2486 133.674 80.5516 133.261 80.9304 132.966C81.313 132.667 81.7296 132.458 82.1804 132.341C82.6349 132.22 83.0819 132.159 83.5213 132.159C83.8016 132.159 84.1236 132.193 84.4872 132.261C84.8546 132.326 85.2088 132.46 85.5497 132.665C85.8944 132.869 86.1804 133.178 86.4077 133.591C86.6349 134.004 86.7486 134.557 86.7486 135.25V141H85.4077V139.818H85.3395C85.2486 140.008 85.0971 140.21 84.8849 140.426C84.6728 140.642 84.3906 140.826 84.0384 140.977C83.6861 141.129 83.2562 141.205 82.7486 141.205ZM82.9531 140C83.4834 140 83.9304 139.896 84.294 139.688C84.6615 139.479 84.938 139.21 85.1236 138.881C85.313 138.551 85.4077 138.205 85.4077 137.841V136.614C85.3509 136.682 85.2259 136.744 85.0327 136.801C84.8433 136.854 84.6236 136.902 84.3736 136.943C84.1274 136.981 83.8868 137.015 83.652 137.045C83.4209 137.072 83.2334 137.095 83.0895 137.114C82.741 137.159 82.4152 137.233 82.1122 137.335C81.813 137.434 81.5705 137.583 81.3849 137.784C81.2031 137.981 81.1122 138.25 81.1122 138.591C81.1122 139.057 81.2846 139.409 81.6293 139.648C81.9777 139.883 82.419 140 82.9531 140ZM92.4915 141.182C91.7642 141.182 91.1222 140.998 90.5653 140.631C90.0085 140.259 89.5729 139.737 89.2585 139.062C88.9441 138.384 88.7869 137.583 88.7869 136.659C88.7869 135.742 88.9441 134.947 89.2585 134.273C89.5729 133.598 90.0104 133.078 90.571 132.71C91.1316 132.343 91.7794 132.159 92.5142 132.159C93.0824 132.159 93.5313 132.254 93.8608 132.443C94.1941 132.629 94.4479 132.841 94.6222 133.08C94.8002 133.314 94.9384 133.508 95.0369 133.659H95.1506V129.364H96.4915V141H95.196V139.659H95.0369C94.9384 139.818 94.7983 140.019 94.6165 140.261C94.4347 140.5 94.1752 140.714 93.8381 140.903C93.5009 141.089 93.0521 141.182 92.4915 141.182ZM92.6733 139.977C93.2112 139.977 93.6657 139.837 94.0369 139.557C94.4081 139.273 94.6903 138.881 94.8835 138.381C95.0767 137.877 95.1733 137.295 95.1733 136.636C95.1733 135.985 95.0786 135.415 94.8892 134.926C94.6998 134.434 94.4195 134.051 94.0483 133.778C93.6771 133.502 93.2188 133.364 92.6733 133.364C92.1051 133.364 91.6316 133.509 91.2528 133.801C90.8778 134.089 90.5956 134.481 90.4062 134.977C90.2206 135.47 90.1278 136.023 90.1278 136.636C90.1278 137.258 90.2225 137.822 90.4119 138.33C90.6051 138.833 90.8892 139.235 91.2642 139.534C91.643 139.83 92.1127 139.977 92.6733 139.977ZM103.634 144.273V132.273H104.929V133.659H105.088C105.187 133.508 105.323 133.314 105.497 133.08C105.675 132.841 105.929 132.629 106.259 132.443C106.592 132.254 107.043 132.159 107.611 132.159C108.346 132.159 108.993 132.343 109.554 132.71C110.115 133.078 110.552 133.598 110.866 134.273C111.181 134.947 111.338 135.742 111.338 136.659C111.338 137.583 111.181 138.384 110.866 139.062C110.552 139.737 110.116 140.259 109.56 140.631C109.003 140.998 108.361 141.182 107.634 141.182C107.073 141.182 106.624 141.089 106.287 140.903C105.95 140.714 105.69 140.5 105.509 140.261C105.327 140.019 105.187 139.818 105.088 139.659H104.974V144.273H103.634ZM104.952 136.636C104.952 137.295 105.048 137.877 105.241 138.381C105.435 138.881 105.717 139.273 106.088 139.557C106.459 139.837 106.914 139.977 107.452 139.977C108.012 139.977 108.48 139.83 108.855 139.534C109.234 139.235 109.518 138.833 109.707 138.33C109.901 137.822 109.997 137.258 109.997 136.636C109.997 136.023 109.902 135.47 109.713 134.977C109.527 134.481 109.245 134.089 108.866 133.801C108.491 133.509 108.02 133.364 107.452 133.364C106.906 133.364 106.448 133.502 106.077 133.778C105.705 134.051 105.425 134.434 105.236 134.926C105.046 135.415 104.952 135.985 104.952 136.636ZM114.724 135.75V141H113.384V129.364H114.724V133.636H114.838C115.043 133.186 115.349 132.828 115.759 132.562C116.171 132.294 116.721 132.159 117.406 132.159C118.001 132.159 118.522 132.278 118.969 132.517C119.416 132.752 119.762 133.114 120.009 133.602C120.259 134.087 120.384 134.705 120.384 135.455V141H119.043V135.545C119.043 134.852 118.863 134.316 118.503 133.938C118.147 133.555 117.652 133.364 117.02 133.364C116.58 133.364 116.187 133.456 115.838 133.642C115.493 133.828 115.221 134.098 115.02 134.455C114.823 134.811 114.724 135.242 114.724 135.75ZM126.382 141.182C125.594 141.182 124.903 140.994 124.308 140.619C123.717 140.244 123.255 139.72 122.922 139.045C122.592 138.371 122.428 137.583 122.428 136.682C122.428 135.773 122.592 134.979 122.922 134.301C123.255 133.623 123.717 133.097 124.308 132.722C124.903 132.347 125.594 132.159 126.382 132.159C127.17 132.159 127.859 132.347 128.45 132.722C129.045 133.097 129.507 133.623 129.837 134.301C130.17 134.979 130.337 135.773 130.337 136.682C130.337 137.583 130.17 138.371 129.837 139.045C129.507 139.72 129.045 140.244 128.45 140.619C127.859 140.994 127.17 141.182 126.382 141.182ZM126.382 139.977C126.981 139.977 127.473 139.824 127.859 139.517C128.246 139.21 128.532 138.807 128.717 138.307C128.903 137.807 128.996 137.265 128.996 136.682C128.996 136.098 128.903 135.555 128.717 135.051C128.532 134.547 128.246 134.14 127.859 133.83C127.473 133.519 126.981 133.364 126.382 133.364C125.784 133.364 125.291 133.519 124.905 133.83C124.518 134.14 124.232 134.547 124.047 135.051C123.861 135.555 123.768 136.098 123.768 136.682C123.768 137.265 123.861 137.807 124.047 138.307C124.232 138.807 124.518 139.21 124.905 139.517C125.291 139.824 125.784 139.977 126.382 139.977ZM136.179 132.273V133.409H131.656V132.273H136.179ZM132.974 130.182H134.315V138.5C134.315 138.879 134.37 139.163 134.48 139.352C134.594 139.538 134.738 139.663 134.912 139.727C135.09 139.788 135.277 139.818 135.474 139.818C135.622 139.818 135.743 139.811 135.838 139.795C135.933 139.777 136.009 139.761 136.065 139.75L136.338 140.955C136.247 140.989 136.12 141.023 135.957 141.057C135.795 141.095 135.588 141.114 135.338 141.114C134.959 141.114 134.588 141.032 134.224 140.869C133.865 140.706 133.565 140.458 133.327 140.125C133.092 139.792 132.974 139.371 132.974 138.864V130.182ZM141.648 141.182C140.86 141.182 140.169 140.994 139.574 140.619C138.983 140.244 138.521 139.72 138.188 139.045C137.858 138.371 137.693 137.583 137.693 136.682C137.693 135.773 137.858 134.979 138.188 134.301C138.521 133.623 138.983 133.097 139.574 132.722C140.169 132.347 140.86 132.159 141.648 132.159C142.436 132.159 143.125 132.347 143.716 132.722C144.311 133.097 144.773 133.623 145.102 134.301C145.436 134.979 145.602 135.773 145.602 136.682C145.602 137.583 145.436 138.371 145.102 139.045C144.773 139.72 144.311 140.244 143.716 140.619C143.125 140.994 142.436 141.182 141.648 141.182ZM141.648 139.977C142.246 139.977 142.739 139.824 143.125 139.517C143.511 139.21 143.797 138.807 143.983 138.307C144.169 137.807 144.261 137.265 144.261 136.682C144.261 136.098 144.169 135.555 143.983 135.051C143.797 134.547 143.511 134.14 143.125 133.83C142.739 133.519 142.246 133.364 141.648 133.364C141.049 133.364 140.557 133.519 140.17 133.83C139.784 134.14 139.498 134.547 139.312 135.051C139.127 135.555 139.034 136.098 139.034 136.682C139.034 137.265 139.127 137.807 139.312 138.307C139.498 138.807 139.784 139.21 140.17 139.517C140.557 139.824 141.049 139.977 141.648 139.977Z" fill="#333333"/>
</g>
<defs>
<clipPath id="clip0_289_2">
<rect width="130" height="130" fill="white" transform="translate(30 14)"/>
</clipPath>
</defs>
</svg>
