<svg width="50" height="50" viewBox="0 0 50 50" fill="none" xmlns="http://www.w3.org/2000/svg">
<circle cx="25" cy="25" r="25" fill="white"/>
<path d="M34.1008 32.7742C34.1879 32.8613 34.257 32.9647 34.3041 33.0785C34.3512 33.1923 34.3755 33.3143 34.3755 33.4375C34.3755 33.5607 34.3512 33.6827 34.3041 33.7965C34.257 33.9103 34.1879 34.0137 34.1008 34.1008C34.0137 34.1879 33.9102 34.257 33.7964 34.3041C33.6826 34.3513 33.5607 34.3755 33.4375 34.3755C33.3143 34.3755 33.1923 34.3513 33.0785 34.3041C32.9647 34.257 32.8613 34.1879 32.7742 34.1008L25 26.3254L17.2258 34.1008C17.0498 34.2767 16.8113 34.3755 16.5625 34.3755C16.3137 34.3755 16.0751 34.2767 15.8992 34.1008C15.7233 33.9249 15.6245 33.6863 15.6245 33.4375C15.6245 33.1887 15.7233 32.9501 15.8992 32.7742L23.6746 25L15.8992 17.2258C15.7233 17.0499 15.6245 16.8113 15.6245 16.5625C15.6245 16.3137 15.7233 16.0751 15.8992 15.8992C16.0751 15.7233 16.3137 15.6245 16.5625 15.6245C16.8113 15.6245 17.0498 15.7233 17.2258 15.8992L25 23.6746L32.7742 15.8992C32.9501 15.7233 33.1887 15.6245 33.4375 15.6245C33.6863 15.6245 33.9248 15.7233 34.1008 15.8992C34.2767 16.0751 34.3755 16.3137 34.3755 16.5625C34.3755 16.8113 34.2767 17.0499 34.1008 17.2258L26.3254 25L34.1008 32.7742Z" fill="black"/>
</svg>
