<svg width="100" height="100" viewBox="0 0 100 100" fill="none" xmlns="http://www.w3.org/2000/svg">
<path d="M66.6667 70.8333V79.1667H8.33337V70.8333C8.33337 70.8333 8.33337 54.1667 37.5 54.1667C66.6667 54.1667 66.6667 70.8333 66.6667 70.8333ZM52.0834 31.25C52.0834 28.3657 51.2281 25.5461 49.6256 23.1479C48.0232 20.7497 45.7456 18.8805 43.0808 17.7768C40.4161 16.673 37.4839 16.3842 34.655 16.9469C31.8261 17.5096 29.2276 18.8985 27.1881 20.938C25.1486 22.9775 23.7596 25.576 23.1969 28.4049C22.6342 31.2338 22.923 34.166 24.0268 36.8308C25.1306 39.4955 26.9998 41.7732 29.398 43.3756C31.7962 44.978 34.6157 45.8333 37.5 45.8333C41.3678 45.8333 45.0771 44.2969 47.812 41.562C50.5469 38.8271 52.0834 35.1177 52.0834 31.25ZM66.4167 54.1667C68.9782 56.1489 71.0741 58.6685 72.557 61.5479C74.04 64.4274 74.8739 67.5969 75 70.8333V79.1667H91.6667V70.8333C91.6667 70.8333 91.6667 55.7083 66.4167 54.1667ZM62.5 16.6667C59.6321 16.6507 56.8272 17.5081 54.4584 19.125C56.9894 22.6614 58.3503 26.9012 58.3503 31.25C58.3503 35.5988 56.9894 39.8386 54.4584 43.375C56.8272 44.9918 59.6321 45.8493 62.5 45.8333C66.3678 45.8333 70.0771 44.2969 72.812 41.562C75.5469 38.8271 77.0834 35.1177 77.0834 31.25C77.0834 27.3823 75.5469 23.6729 72.812 20.938C70.0771 18.2031 66.3678 16.6667 62.5 16.6667Z" fill="black"/>
</svg>
