<svg width="60" height="60" viewBox="0 0 60 60" fill="none" xmlns="http://www.w3.org/2000/svg">
<path d="M26.25 46.875H52.5V50.625H26.25V46.875ZM13.4438 48.75L8.60627 53.5875L11.25 56.25L18.75 48.75L11.25 41.25L8.58752 43.8937L13.4438 48.75ZM26.25 28.125H52.5V31.875H26.25V28.125ZM13.4438 30L8.60627 34.8375L11.25 37.5L18.75 30L11.25 22.5L8.58752 25.1437L13.4438 30ZM26.25 9.375H52.5V13.125H26.25V9.375ZM13.4438 11.25L8.60627 16.0875L11.25 18.75L18.75 11.25L11.25 3.75L8.58752 6.39375L13.4438 11.25Z" fill="white"/>
</svg>
