<svg width="50" height="50" viewBox="0 0 50 50" fill="none" xmlns="http://www.w3.org/2000/svg">
<rect width="50" height="50" rx="10" fill="white"/>
<path d="M35.378 15.327C35.378 15.327 31.606 15.417 30.31 17.66C29.117 19.724 29.344 21.28 29.344 21.28C29.344 21.28 29.372 28.138 29.424 30.934C29.478 33.73 28.781 34.957 27.334 34.957H22.506" stroke="black" stroke-linecap="round" stroke-linejoin="round"/>
<path d="M11.806 18.384C11.806 18.384 13.576 14.603 18.162 15.086M38.194 20.999H32.562C32.562 20.999 32.723 18.183 35.378 18.183C38.033 18.183 38.194 20.999 38.194 20.999ZM20.414 20.878H14.783C14.783 20.878 14.943 18.062 17.598 18.062C20.253 18.062 20.414 20.878 20.414 20.878Z" stroke="black" stroke-linecap="round" stroke-linejoin="round"/>
<path d="M6.5 16.457V10.457C6.5 9.39613 6.92143 8.37872 7.67157 7.62857C8.42172 6.87843 9.43913 6.457 10.5 6.457H16.5M43.5 33.457V39.457C43.5 40.5179 43.0786 41.5353 42.3284 42.2854C41.5783 43.0356 40.5609 43.457 39.5 43.457H33.5M33.5 6.457H39.5C40.5609 6.457 41.5783 6.87843 42.3284 7.62857C43.0786 8.37872 43.5 9.39613 43.5 10.457V16.457M6.5 34.015C6.69119 35.001 7.0461 35.9481 7.55 36.817C8.04 37.661 8.665 38.421 9.337 39.129C10.272 40.113 11.312 41.009 12.489 41.686C13.711 42.387 15.065 42.842 16.447 43.121C17.827 43.401 19.243 43.506 20.65 43.437" stroke="black" stroke-linecap="round" stroke-linejoin="round"/>
</svg>
