<svg width="50" height="50" viewBox="0 0 50 50" fill="none" xmlns="http://www.w3.org/2000/svg">
<rect width="50" height="50" rx="10" fill="white"/>
<path d="M33.9583 19.8796H33.3518C33.3287 19.8796 33.3102 19.8611 33.3102 19.838V16.7778C33.3102 14.5833 32.4722 12.5093 30.949 10.9444C29.7268 9.68518 28.1666 8.87037 26.449 8.5787C21.324 7.69444 16.6574 11.7037 16.6574 16.9028V19.838C16.6574 19.8611 16.6389 19.8796 16.6157 19.8796H16.0787C13.7315 19.8796 11.8287 21.7824 11.8287 24.1296V37.2917C11.8287 39.6389 13.7315 41.5417 16.0787 41.5417H33.912C36.2592 41.5417 38.162 39.6389 38.162 37.2917V24.088C38.1666 21.7639 36.2824 19.8796 33.9583 19.8796ZM18.6527 16.7778C18.6527 12.9676 21.1759 10.4491 24.9815 10.4491C26.8472 10.4491 28.2546 11.0324 29.5231 12.338C30.7639 13.6157 31.3102 14.9861 31.3102 16.7778V19.838C31.3102 19.8611 31.2916 19.8796 31.2685 19.8796H18.6944C18.6713 19.8796 18.6527 19.8611 18.6527 19.838V16.7778ZM36.1759 37.3333C36.1759 38.8148 35.4398 39.5509 33.9583 39.5509H16.0833C14.8379 39.5509 13.824 38.5417 13.824 37.2917V24.4398C13.824 23.0231 14.9722 21.875 16.3889 21.875H33.912C35.1574 21.875 36.1713 22.8843 36.1713 24.1343V37.3333H36.1759Z" fill="black"/>
<path d="M24.9213 27.4259C24.213 27.4259 23.9954 27.9537 23.9954 28.375V32.4306C23.9954 32.8519 24.412 33.1944 24.9213 33.1944C25.4305 33.1944 25.8472 32.8519 25.8472 32.4306V28.375C25.8472 27.9537 25.5231 27.4259 24.9213 27.4259Z" fill="black"/>
</svg>
