<svg width="238" height="50" viewBox="0 0 238 50" fill="none" xmlns="http://www.w3.org/2000/svg">
<g filter="url(#filter0_i_169_388)">
<path d="M26.08 49.075L31.25 45.005L27.125 26.91H16.235L11.45 45.28L17.005 49.075H0.945L7.545 45.17L18.545 5.405L10.35 1.5H27.125L38.565 45.005L44.89 49.075H26.08ZM26.41 23.83L22.065 6.065L17.225 23.83H26.41ZM30.205 32.3L34.77 44.62L33.23 31.53L31.14 29.385L30.205 32.3ZM26.905 19.32L29.16 21.465L30.04 18.55L25.365 6.615L26.905 19.32ZM29.6 23.28L28.555 25.7L30.59 27.405L31.525 24.985L29.6 23.28ZM61.1782 21.795C61.3615 25.2783 61.0132 28.3767 60.1332 31.09C59.7665 32.2633 59.2532 33.4 58.5932 34.5C57.9698 35.5633 57.1632 36.5167 56.1732 37.36C55.1832 38.2033 53.9915 38.8817 52.5982 39.395C51.2048 39.8717 49.5732 40.0733 47.7032 40H39.7832L42.6982 37.635V9.09L39.6182 6.615H47.0982C49.6648 6.615 51.9565 7.12833 53.9732 8.155C54.8532 8.595 55.6965 9.18166 56.5032 9.915C57.3465 10.6117 58.0982 11.51 58.7582 12.61C59.4182 13.71 59.9682 15.0117 60.4082 16.515C60.8482 18.0183 61.1048 19.7783 61.1782 21.795ZM50.7832 36.975C51.2232 36.7183 51.7548 36.3333 52.3782 35.82C53.0015 35.27 53.5882 34.4633 54.1382 33.4C54.6882 32.3367 55.1282 30.9433 55.4582 29.22C55.8248 27.46 55.9898 25.2233 55.9532 22.51C56.0632 20.42 55.9165 18.495 55.5132 16.735C55.3298 15.965 55.0915 15.195 54.7982 14.425C54.5415 13.655 54.1932 12.94 53.7532 12.28C53.3132 11.5833 52.7632 10.96 52.1032 10.41C51.4798 9.86 50.7465 9.43833 49.9032 9.145C49.5365 9.035 49.2615 8.98 49.0782 8.98C48.8948 8.98 48.6198 8.98 48.2532 8.98V37.525C48.5465 37.5617 48.8398 37.5617 49.1332 37.525C49.7198 37.4517 50.2698 37.2683 50.7832 36.975ZM81.4272 21.795C81.6105 25.2783 81.2622 28.3767 80.3822 31.09C80.0155 32.2633 79.5022 33.4 78.8422 34.5C78.2189 35.5633 77.4122 36.5167 76.4222 37.36C75.4322 38.2033 74.2405 38.8817 72.8472 39.395C71.4539 39.8717 69.8222 40.0733 67.9522 40H60.0322L62.9472 37.635V9.09L59.8672 6.615H67.3472C69.9139 6.615 72.2055 7.12833 74.2222 8.155C75.1022 8.595 75.9455 9.18166 76.7522 9.915C77.5955 10.6117 78.3472 11.51 79.0072 12.61C79.6672 13.71 80.2172 15.0117 80.6572 16.515C81.0972 18.0183 81.3539 19.7783 81.4272 21.795ZM71.0322 36.975C71.4722 36.7183 72.0039 36.3333 72.6272 35.82C73.2505 35.27 73.8372 34.4633 74.3872 33.4C74.9372 32.3367 75.3772 30.9433 75.7072 29.22C76.0739 27.46 76.2389 25.2233 76.2022 22.51C76.3122 20.42 76.1655 18.495 75.7622 16.735C75.5789 15.965 75.3405 15.195 75.0472 14.425C74.7905 13.655 74.4422 12.94 74.0022 12.28C73.5622 11.5833 73.0122 10.96 72.3522 10.41C71.7289 9.86 70.9955 9.43833 70.1522 9.145C69.7855 9.035 69.5105 8.98 69.3272 8.98C69.1439 8.98 68.8689 8.98 68.5022 8.98V37.525C68.7955 37.5617 69.0889 37.5617 69.3822 37.525C69.9689 37.4517 70.5189 37.2683 71.0322 36.975ZM132.086 37.415L128.786 46.38C127.98 46.93 126.99 47.425 125.816 47.865C124.826 48.2683 123.598 48.6167 122.131 48.91C120.701 49.24 119.015 49.405 117.071 49.405C115.788 49.405 114.486 49.2583 113.166 48.965C111.883 48.6717 110.618 48.2317 109.371 47.645C108.161 47.095 107.006 46.38 105.906 45.5C104.806 44.62 103.835 43.6117 102.991 42.475C101.378 40.385 100.241 37.8367 99.5815 34.83C98.9582 31.7867 98.6465 28.615 98.6465 25.315C98.6465 22.345 98.9215 19.5583 99.4715 16.955C100.021 14.315 100.938 11.9133 102.221 9.75C103.028 8.43 104 7.23833 105.136 6.175C106.273 5.11166 107.483 4.21333 108.766 3.48C110.05 2.74667 111.388 2.17833 112.781 1.775C114.211 1.37166 115.641 1.13333 117.071 1.06C119.491 0.986665 121.453 1.07833 122.956 1.335C124.496 1.59167 125.688 1.90333 126.531 2.27C127.521 2.67333 128.273 3.15 128.786 3.7L132.251 9.64L123.011 4.745C122.571 4.525 121.875 4.37833 120.921 4.305C120.005 4.23166 119.18 4.21333 118.446 4.25C117.09 4.28666 115.66 4.67166 114.156 5.405C112.69 6.10167 111.315 7.275 110.031 8.925C108.785 10.5383 107.74 12.6833 106.896 15.36C106.09 18.0367 105.686 21.355 105.686 25.315C105.65 28.945 106.016 32.1167 106.786 34.83C107.593 37.5433 108.62 39.78 109.866 41.54C111.113 43.3367 112.525 44.6567 114.101 45.5C115.678 46.3433 117.236 46.71 118.776 46.6C119.18 46.5633 119.601 46.49 120.041 46.38C120.518 46.3067 120.976 46.1967 121.416 46.05C121.856 45.9033 122.241 45.7383 122.571 45.555C122.938 45.4083 123.231 45.2433 123.451 45.06L132.086 37.415ZM109.866 5.46C108.583 6.23 107.446 7.11 106.456 8.1C105.466 9.09 104.678 9.98833 104.091 10.795C103.871 11.125 103.615 11.5467 103.321 12.06C103.028 12.5367 102.735 13.0683 102.441 13.655C102.185 14.2417 101.946 14.8283 101.726 15.415C101.506 15.965 101.378 16.4783 101.341 16.955L102.771 19.595L104.476 16.955C104.623 15.745 104.788 14.7 104.971 13.82C105.191 12.9033 105.411 12.1333 105.631 11.51C105.778 11.07 105.998 10.575 106.291 10.025C106.621 9.475 106.988 8.925 107.391 8.375C107.795 7.825 108.198 7.29333 108.601 6.78C109.041 6.26666 109.463 5.82667 109.866 5.46ZM100.846 24.27L102.331 26.415L103.926 24.27L102.331 22.18L100.846 24.27ZM109.536 44.785C108.766 44.0517 107.941 43.025 107.061 41.705C106.218 40.385 105.576 39.0833 105.136 37.8C104.696 36.5167 104.421 35.4533 104.311 34.61C104.238 33.73 104.201 32.8133 104.201 31.86L102.496 29.22L101.066 31.86C101.176 32.8133 101.47 33.9317 101.946 35.215C102.46 36.4617 103.065 37.6167 103.761 38.68C104.495 39.8167 105.32 40.9167 106.236 41.98C107.153 43.08 108.253 44.015 109.536 44.785ZM157.316 40H144.776L147.251 37.14L145.491 28.56H138.616L136.361 37.36L139.276 40H129.046L132.896 37.14L140.541 9.42L137.076 6.67H145.656L154.126 37.58L157.316 40ZM139.166 26.525H144.941L142.026 14.865L139.166 26.525ZM153.378 18.22V6.725H172.518V18.33L168.723 9.255H166.138V37.745L168.558 40H157.448L159.923 37.855V9.255H157.008L153.378 18.22ZM172.984 6.725H192.289V18.495L188.274 8.54H181.729V21.85H185.634L188.274 17.89V27.845L185.744 24.16H181.729V37.47H188.494L192.289 25.04V40H172.984L175.404 37.91V8.87L172.984 6.725ZM214.014 24.765L211.924 27.075V38.46C211.19 38.8633 210.439 39.23 209.669 39.56C209.009 39.8533 208.257 40.0917 207.414 40.275C206.607 40.495 205.8 40.605 204.994 40.605C203.344 40.605 201.749 40.2017 200.209 39.395C198.705 38.5517 197.422 37.305 196.359 35.655C195.295 34.115 194.562 32.2817 194.159 30.155C193.755 27.9917 193.554 25.7183 193.554 23.335C193.554 21.1717 193.719 19.155 194.049 17.285C194.415 15.415 195.02 13.71 195.864 12.17C196.927 10.2633 198.247 8.77833 199.824 7.715C201.437 6.615 203.16 6.01 204.994 5.9C206.424 5.82667 207.579 5.88166 208.459 6.065C209.375 6.24833 210.09 6.46833 210.604 6.725C211.19 7.055 211.63 7.42167 211.924 7.825V18.495L207.029 8.65C206.552 8.35667 205.837 8.265 204.884 8.375C204.077 8.44833 203.325 8.88833 202.629 9.695C201.932 10.465 201.309 11.51 200.759 12.83C200.245 14.15 199.842 15.7083 199.549 17.505C199.255 19.265 199.109 21.2083 199.109 23.335C199.109 25.425 199.255 27.3867 199.549 29.22C199.879 31.0167 200.3 32.5933 200.814 33.95C201.364 35.27 201.987 36.315 202.684 37.085C203.38 37.8183 204.132 38.185 204.939 38.185C205.269 38.185 205.635 38.1117 206.039 37.965C206.442 37.7817 206.772 37.5617 207.029 37.305V27.13L204.884 24.765H214.014ZM235.611 12.61C236.344 14.04 236.894 15.69 237.261 17.56C237.627 19.3933 237.811 21.3183 237.811 23.335C237.811 24.5083 237.737 25.7 237.591 26.91C237.444 28.0833 237.224 29.2383 236.931 30.375C236.674 31.475 236.344 32.52 235.941 33.51C235.537 34.5 235.097 35.38 234.621 36.15C233.594 37.8 232.366 38.955 230.936 39.615C229.506 40.275 227.984 40.605 226.371 40.605C224.757 40.605 223.181 40.1833 221.641 39.34C220.101 38.4967 218.799 37.2683 217.736 35.655C216.672 34.115 215.939 32.2817 215.536 30.155C215.132 27.9917 214.931 25.7183 214.931 23.335C214.931 21.2083 215.096 19.21 215.426 17.34C215.792 15.4333 216.397 13.71 217.241 12.17C218.304 10.2267 219.624 8.705 221.201 7.605C222.814 6.46833 224.537 5.9 226.371 5.9C228.241 5.9 229.982 6.505 231.596 7.715C233.209 8.88833 234.547 10.52 235.611 12.61ZM226.316 38.185C227.122 38.185 227.856 37.8 228.516 37.03C229.212 36.26 229.799 35.215 230.276 33.895C230.789 32.575 231.192 31.0167 231.486 29.22C231.779 27.3867 231.926 25.425 231.926 23.335C231.926 21.2083 231.779 19.2467 231.486 17.45C231.192 15.6167 230.789 14.0217 230.276 12.665C229.762 11.3083 229.157 10.245 228.461 9.475C227.801 8.705 227.067 8.32 226.261 8.32C225.491 8.32 224.739 8.705 224.006 9.475C223.309 10.245 222.704 11.3083 222.191 12.665C221.677 14.0217 221.256 15.6167 220.926 17.45C220.632 19.2467 220.486 21.2083 220.486 23.335C220.486 25.425 220.632 27.3867 220.926 29.22C221.256 31.0167 221.677 32.575 222.191 33.895C222.741 35.215 223.364 36.26 224.061 37.03C224.794 37.8 225.546 38.185 226.316 38.185Z" fill="white"/>
</g>
<defs>
<filter id="filter0_i_169_388" x="0.945068" y="0.950012" width="236.865" height="52.455" filterUnits="userSpaceOnUse" color-interpolation-filters="sRGB">
<feFlood flood-opacity="0" result="BackgroundImageFix"/>
<feBlend mode="normal" in="SourceGraphic" in2="BackgroundImageFix" result="shape"/>
<feColorMatrix in="SourceAlpha" type="matrix" values="0 0 0 0 0 0 0 0 0 0 0 0 0 0 0 0 0 0 127 0" result="hardAlpha"/>
<feOffset dy="4"/>
<feGaussianBlur stdDeviation="2"/>
<feComposite in2="hardAlpha" operator="arithmetic" k2="-1" k3="1"/>
<feColorMatrix type="matrix" values="0 0 0 0 0 0 0 0 0 0 0 0 0 0 0 0 0 0 0.25 0"/>
<feBlend mode="normal" in2="shape" result="effect1_innerShadow_169_388"/>
</filter>
</defs>
</svg>
