<svg width="219" height="49" viewBox="0 0 219 49" fill="none" xmlns="http://www.w3.org/2000/svg">
<g filter="url(#filter0_i_169_27)">
<path d="M32.505 22.115C32.7617 26.9183 32.23 31.2267 30.91 35.04C30.36 36.6533 29.59 38.23 28.6 39.77C27.61 41.3467 26.345 42.74 24.805 43.95C23.265 45.1967 21.395 46.1867 19.195 46.92C17.0317 47.69 14.465 48.075 11.495 48.075H0.22L4.4 44.665V4.02L0 0.499997H10.67C14.63 0.499997 18.1867 1.23333 21.34 2.7C22.6967 3.32333 24.0167 4.14833 25.3 5.175C26.62 6.20167 27.7933 7.50333 28.82 9.08C29.8467 10.62 30.69 12.4717 31.35 14.635C32.0467 16.7617 32.4317 19.255 32.505 22.115ZM18.315 43.73C18.975 43.3633 19.7633 42.795 20.68 42.025C21.6333 41.2917 22.5317 40.1733 23.375 38.67C24.255 37.13 24.9883 35.1133 25.575 32.62C26.1617 30.1267 26.4 26.955 26.29 23.105C26.29 20.0983 25.9417 17.3117 25.245 14.745C24.9517 13.645 24.5483 12.5633 24.035 11.5C23.5583 10.4 22.935 9.37333 22.165 8.42C21.4317 7.43 20.5333 6.56833 19.47 5.835C18.4433 5.10166 17.2333 4.53333 15.84 4.13C15.5833 4.05667 15.2167 4.00166 14.74 3.965C14.2633 3.92833 13.7683 3.91 13.255 3.91C12.7783 3.87333 12.3017 3.855 11.825 3.855C11.3483 3.855 10.9817 3.855 10.725 3.855V44.555C11.8617 44.5917 12.925 44.5733 13.915 44.5C14.7583 44.4267 15.6017 44.335 16.445 44.225C17.2883 44.1517 17.9117 43.9867 18.315 43.73ZM5.885 31.025L7.315 44.06L9.02 31.025L7.48 28.44L5.885 31.025ZM5.775 17.605L7.425 20.245L9.02 17.605L7.37 4.9L5.775 17.605ZM7.425 22.115L5.83 24.205L7.425 26.35L8.91 24.205L7.425 22.115ZM22 5.23C22.3667 5.59667 22.77 6.03666 23.21 6.55C23.65 7.06333 24.0717 7.595 24.475 8.145C24.8783 8.695 25.2267 9.245 25.52 9.795C25.85 10.345 26.0883 10.84 26.235 11.28C26.455 11.9033 26.6567 12.6733 26.84 13.59C27.06 14.47 27.2433 15.515 27.39 16.725L29.095 19.365L30.525 16.725C30.4517 16.2483 30.305 15.735 30.085 15.185C29.9017 14.5983 29.6633 14.0117 29.37 13.425C29.1133 12.8383 28.8383 12.3067 28.545 11.83C28.2517 11.3167 27.995 10.895 27.775 10.565C27.1883 9.75833 26.4 8.86 25.41 7.87C24.42 6.88 23.2833 6 22 5.23ZM29.48 21.235L27.885 23.325L29.48 25.47L30.965 23.325L29.48 21.235ZM22.275 43.235C23.5583 42.465 24.6583 41.53 25.575 40.43C26.4917 39.3667 27.3167 38.2667 28.05 37.13C28.7467 36.0667 29.3333 34.9117 29.81 33.665C30.3233 32.3817 30.635 31.2633 30.745 30.31L29.315 27.67L27.61 30.31C27.61 31.2633 27.555 32.18 27.445 33.06C27.3717 33.9033 27.115 34.9667 26.675 36.25C26.235 37.5333 25.575 38.835 24.695 40.155C23.8517 41.475 23.045 42.5017 22.275 43.235ZM58.3468 39H45.8068L48.2818 36.14L46.5218 27.56H39.6468L37.3918 36.36L40.3068 39H30.0768L33.9268 36.14L41.5718 8.42L38.1068 5.67H46.6868L55.1568 36.58L58.3468 39ZM40.1968 25.525H45.9718L43.0568 13.865L40.1968 25.525ZM71.5722 8.64C70.8389 8.31 70.1239 8.07166 69.4272 7.925C68.8039 7.85167 68.1439 7.88833 67.4472 8.035C66.7872 8.145 66.1639 8.53 65.5772 9.19C64.7339 10.1433 64.3672 11.06 64.4772 11.94C64.5872 12.7833 64.9905 13.6633 65.6872 14.58C66.3839 15.4967 67.2822 16.45 68.3822 17.44C69.5189 18.3933 70.6922 19.4383 71.9022 20.575C73.2589 21.8583 74.3222 22.995 75.0922 23.985C75.8989 24.975 76.4672 25.91 76.7972 26.79C77.1639 27.6333 77.3655 28.4767 77.4022 29.32C77.4755 30.1267 77.4939 31.025 77.4572 32.015C77.3839 33.555 77.0172 34.7833 76.3572 35.7C75.6972 36.6167 74.9089 37.3317 73.9922 37.845C73.0755 38.3217 72.1222 38.6517 71.1322 38.835C70.1789 38.9817 69.3355 39.055 68.6022 39.055C66.9522 39.0917 65.5772 39.0183 64.4772 38.835C63.3772 38.615 62.5155 38.3767 61.8922 38.12C61.1589 37.8267 60.5905 37.4967 60.1872 37.13V24.425L64.4772 35.59C64.8805 35.9567 65.3389 36.2317 65.8522 36.415C66.2922 36.5983 66.8055 36.745 67.3922 36.855C68.0155 36.9283 68.6939 36.8733 69.4272 36.69C70.1239 36.5433 70.6739 36.2867 71.0772 35.92C71.4805 35.5167 71.7739 35.0583 71.9572 34.545C72.1772 33.995 72.2689 33.4083 72.2322 32.785C72.2322 32.1617 72.1589 31.52 72.0122 30.86C71.7189 29.5767 71.0772 28.4583 70.0872 27.505C69.1339 26.5517 68.1072 25.5983 67.0072 24.645C66.1272 23.9117 65.3205 23.2333 64.5872 22.61C63.8905 21.95 63.2489 21.3083 62.6622 20.685C62.0755 20.0617 61.5805 19.4383 61.1772 18.815C60.7739 18.1917 60.4622 17.5133 60.2422 16.78C59.7289 15.0933 59.6005 13.5533 59.8572 12.16C60.1505 10.73 60.7005 9.52 61.5072 8.53C62.3139 7.54 63.3222 6.77 64.5322 6.22C65.7422 5.67 67.0255 5.395 68.3822 5.395C69.7389 5.395 70.8939 5.48667 71.8472 5.67C72.8372 5.81666 73.6439 6 74.2672 6.22C75.0005 6.47666 75.6239 6.77 76.1372 7.1V18.43L71.5722 8.64ZM98.0315 7.65V36.525L100.176 39H89.7265L92.3115 36.525V23.6H85.1615V36.69L87.5815 39H77.2965L79.4965 36.69V7.925L77.0215 5.725H87.1965L85.1615 8.09V21.18H92.3115V7.925L90.0565 5.725H100.396L98.0315 7.65ZM114.45 21.84C116.174 21.9867 117.714 22.3717 119.07 22.995C119.657 23.2517 120.225 23.5817 120.775 23.985C121.325 24.3883 121.802 24.8833 122.205 25.47C122.609 26.02 122.939 26.68 123.195 27.45C123.452 28.1833 123.562 29.0267 123.525 29.98C123.415 32.6933 122.59 34.7467 121.05 36.14C120.244 36.91 119.217 37.4967 117.97 37.9C116.724 38.2667 115.514 38.5417 114.34 38.725C112.947 38.9083 111.517 39 110.05 39H101.03L104.715 36.8V8.2L101.635 5.725H112.14C112.69 5.725 113.46 5.81667 114.45 6C115.477 6.18333 116.485 6.55 117.475 7.1C118.465 7.65 119.327 8.45667 120.06 9.52C120.83 10.5467 121.252 11.94 121.325 13.7C121.362 15.4967 121.032 16.9267 120.335 17.99C119.639 19.0167 118.85 19.8233 117.97 20.41C116.944 21.07 115.77 21.5467 114.45 21.84ZM110.325 20.63C111.609 20.6667 112.727 20.465 113.68 20.025C114.084 19.8417 114.487 19.6033 114.89 19.31C115.294 18.98 115.642 18.5767 115.935 18.1C116.229 17.5867 116.449 17 116.595 16.34C116.779 15.6433 116.852 14.8367 116.815 13.92C116.742 12.3067 116.357 11.0967 115.66 10.29C115 9.44667 114.267 8.84167 113.46 8.475C112.507 8.07166 111.462 7.85166 110.325 7.815V20.63ZM117.75 29.76C117.787 28.44 117.53 27.3767 116.98 26.57C116.43 25.7267 115.825 25.0483 115.165 24.535C114.579 24.1317 113.992 23.8383 113.405 23.655C112.819 23.4717 112.287 23.3433 111.81 23.27C111.26 23.1967 110.729 23.1783 110.215 23.215V36.8C110.619 36.8367 111.04 36.8183 111.48 36.745C111.884 36.6717 112.305 36.58 112.745 36.47C113.222 36.36 113.717 36.1583 114.23 35.865C115.074 35.3883 115.862 34.6733 116.595 33.72C117.329 32.73 117.714 31.41 117.75 29.76ZM144.806 11.61C145.539 13.04 146.089 14.69 146.456 16.56C146.823 18.3933 147.006 20.3183 147.006 22.335C147.006 23.5083 146.933 24.7 146.786 25.91C146.639 27.0833 146.419 28.2383 146.126 29.375C145.869 30.475 145.539 31.52 145.136 32.51C144.733 33.5 144.293 34.38 143.816 35.15C142.789 36.8 141.561 37.955 140.131 38.615C138.701 39.275 137.179 39.605 135.566 39.605C133.953 39.605 132.376 39.1833 130.836 38.34C129.296 37.4967 127.994 36.2683 126.931 34.655C125.868 33.115 125.134 31.2817 124.731 29.155C124.328 26.9917 124.126 24.7183 124.126 22.335C124.126 20.2083 124.291 18.21 124.621 16.34C124.988 14.4333 125.593 12.71 126.436 11.17C127.499 9.22667 128.819 7.705 130.396 6.605C132.009 5.46833 133.733 4.9 135.566 4.9C137.436 4.9 139.178 5.505 140.791 6.715C142.404 7.88833 143.743 9.52 144.806 11.61ZM135.511 37.185C136.318 37.185 137.051 36.8 137.711 36.03C138.408 35.26 138.994 34.215 139.471 32.895C139.984 31.575 140.388 30.0167 140.681 28.22C140.974 26.3867 141.121 24.425 141.121 22.335C141.121 20.2083 140.974 18.2467 140.681 16.45C140.388 14.6167 139.984 13.0217 139.471 11.665C138.958 10.3083 138.353 9.245 137.656 8.475C136.996 7.705 136.263 7.32 135.456 7.32C134.686 7.32 133.934 7.705 133.201 8.475C132.504 9.245 131.899 10.3083 131.386 11.665C130.873 13.0217 130.451 14.6167 130.121 16.45C129.828 18.2467 129.681 20.2083 129.681 22.335C129.681 24.425 129.828 26.3867 130.121 28.22C130.451 30.0167 130.873 31.575 131.386 32.895C131.936 34.215 132.559 35.26 133.256 36.03C133.989 36.8 134.741 37.185 135.511 37.185ZM170.871 39H158.331L160.806 36.14L159.046 27.56H152.171L149.916 36.36L152.831 39H142.601L146.451 36.14L154.096 8.42L150.631 5.67H159.211L167.681 36.58L170.871 39ZM152.721 25.525H158.496L155.581 13.865L152.721 25.525ZM171.392 39L175.077 36.8V8.2L171.997 5.725H182.502C183.052 5.725 183.84 5.81667 184.867 6C185.893 6.18333 186.902 6.55 187.892 7.1C188.882 7.65 189.743 8.45667 190.477 9.52C191.247 10.5467 191.65 11.94 191.687 13.7C191.723 15.3867 191.503 16.8167 191.027 17.99C190.587 19.1267 190.037 20.0617 189.377 20.795C188.753 21.4917 188.075 22.005 187.342 22.335C186.645 22.665 186.077 22.83 185.637 22.83L193.117 36.745L196.032 39H187.562L180.577 24.59V36.8L184.207 39H171.392ZM180.687 20.63C181.97 20.6667 183.088 20.465 184.042 20.025C184.445 19.8417 184.848 19.6033 185.252 19.31C185.655 18.98 186.003 18.5767 186.297 18.1C186.59 17.5867 186.81 17 186.957 16.34C187.14 15.6433 187.213 14.8367 187.177 13.92C187.103 12.3067 186.718 11.0967 186.022 10.29C185.362 9.44667 184.628 8.84167 183.822 8.475C182.868 8.07166 181.823 7.85166 180.687 7.815V20.63ZM218.572 20.795C218.755 24.2783 218.407 27.3767 217.527 30.09C217.16 31.2633 216.647 32.4 215.987 33.5C215.363 34.5633 214.557 35.5167 213.567 36.36C212.577 37.2033 211.385 37.8817 209.992 38.395C208.598 38.8717 206.967 39.0733 205.097 39H197.177L200.092 36.635V8.09L197.012 5.615H204.492C207.058 5.615 209.35 6.12833 211.367 7.155C212.247 7.595 213.09 8.18166 213.897 8.915C214.74 9.61167 215.492 10.51 216.152 11.61C216.812 12.71 217.362 14.0117 217.802 15.515C218.242 17.0183 218.498 18.7783 218.572 20.795ZM208.177 35.975C208.617 35.7183 209.148 35.3333 209.772 34.82C210.395 34.27 210.982 33.4633 211.532 32.4C212.082 31.3367 212.522 29.9433 212.852 28.22C213.218 26.46 213.383 24.2233 213.347 21.51C213.457 19.42 213.31 17.495 212.907 15.735C212.723 14.965 212.485 14.195 212.192 13.425C211.935 12.655 211.587 11.94 211.147 11.28C210.707 10.5833 210.157 9.96 209.497 9.41C208.873 8.86 208.14 8.43833 207.297 8.145C206.93 8.035 206.655 7.98 206.472 7.98C206.288 7.98 206.013 7.98 205.647 7.98V36.525C205.94 36.5617 206.233 36.5617 206.527 36.525C207.113 36.4517 207.663 36.2683 208.177 35.975Z" fill="white"/>
</g>
<defs>
<filter id="filter0_i_169_27" x="0" y="0.5" width="218.847" height="51.575" filterUnits="userSpaceOnUse" color-interpolation-filters="sRGB">
<feFlood flood-opacity="0" result="BackgroundImageFix"/>
<feBlend mode="normal" in="SourceGraphic" in2="BackgroundImageFix" result="shape"/>
<feColorMatrix in="SourceAlpha" type="matrix" values="0 0 0 0 0 0 0 0 0 0 0 0 0 0 0 0 0 0 127 0" result="hardAlpha"/>
<feOffset dy="4"/>
<feGaussianBlur stdDeviation="2"/>
<feComposite in2="hardAlpha" operator="arithmetic" k2="-1" k3="1"/>
<feColorMatrix type="matrix" values="0 0 0 0 0 0 0 0 0 0 0 0 0 0 0 0 0 0 0.25 0"/>
<feBlend mode="normal" in2="shape" result="effect1_innerShadow_169_27"/>
</filter>
</defs>
</svg>
