<svg width="101" height="51" viewBox="0 0 101 51" fill="none" xmlns="http://www.w3.org/2000/svg">
<path d="M18.82 2.39L13.595 5.58V37.37C13.6317 39.13 13.98 40.6883 14.64 42.045C14.8967 42.6317 15.245 43.2 15.685 43.75C16.125 44.3367 16.675 44.85 17.335 45.29C17.995 45.73 18.7833 46.0783 19.7 46.335C20.6167 46.5917 21.68 46.72 22.89 46.72C23.99 46.72 24.9433 46.5733 25.75 46.28C26.5933 46.0233 27.3083 45.6567 27.895 45.18C28.4817 44.74 28.9583 44.2267 29.325 43.64C29.7283 43.0533 30.0583 42.4483 30.315 41.825C30.9017 40.3583 31.195 38.7083 31.195 36.875V5.69L26.575 2.39H40.27L35.32 5.58V36.49C35.3933 39.02 34.9533 41.2933 34 43.31C33.5967 44.1533 33.065 44.9783 32.405 45.785C31.7817 46.6283 30.975 47.3617 29.985 47.985C28.995 48.6083 27.8217 49.1033 26.465 49.47C25.1083 49.8733 23.5317 50.075 21.735 50.075C19.6817 50.075 17.885 49.8733 16.345 49.47C14.8417 49.0667 13.54 48.535 12.44 47.875C11.34 47.2517 10.405 46.5183 9.635 45.675C8.90167 44.8683 8.315 44.025 7.875 43.145C6.81167 41.1283 6.28 38.8367 6.28 36.27V5.745L0.945 2.39H18.82ZM8.37 18.78L10.02 21.42L11.615 18.78L9.965 6.075L8.37 18.78ZM10.02 23.29L8.425 25.38L10.02 27.525L11.505 25.38L10.02 23.29ZM14.2 45.73C13.3567 44.7033 12.7333 43.585 12.33 42.375C11.9267 41.2017 11.6333 39.955 11.45 38.635C11.3033 37.645 11.2667 36.6733 11.34 35.72C11.45 34.73 11.505 33.7583 11.505 32.805L9.91 30.165L8.37 32.805C8.37 34.2717 8.46167 35.555 8.645 36.655C8.82833 37.755 9.12167 38.7817 9.525 39.735C10.0383 40.9817 10.6983 42.1367 11.505 43.2C12.3117 44.2633 13.21 45.1067 14.2 45.73ZM49.0468 10.64C48.3135 10.31 47.5985 10.0717 46.9018 9.925C46.2785 9.85167 45.6185 9.88833 44.9218 10.035C44.2618 10.145 43.6385 10.53 43.0518 11.19C42.2085 12.1433 41.8418 13.06 41.9518 13.94C42.0618 14.7833 42.4651 15.6633 43.1618 16.58C43.8585 17.4967 44.7568 18.45 45.8568 19.44C46.9935 20.3933 48.1668 21.4383 49.3768 22.575C50.7335 23.8583 51.7968 24.995 52.5668 25.985C53.3735 26.975 53.9418 27.91 54.2718 28.79C54.6385 29.6333 54.8401 30.4767 54.8768 31.32C54.9501 32.1267 54.9685 33.025 54.9318 34.015C54.8585 35.555 54.4918 36.7833 53.8318 37.7C53.1718 38.6167 52.3835 39.3317 51.4668 39.845C50.5501 40.3217 49.5968 40.6517 48.6068 40.835C47.6535 40.9817 46.8101 41.055 46.0768 41.055C44.4268 41.0917 43.0518 41.0183 41.9518 40.835C40.8518 40.615 39.9901 40.3767 39.3668 40.12C38.6335 39.8267 38.0651 39.4967 37.6618 39.13V26.425L41.9518 37.59C42.3551 37.9567 42.8135 38.2317 43.3268 38.415C43.7668 38.5983 44.2801 38.745 44.8668 38.855C45.4901 38.9283 46.1685 38.8733 46.9018 38.69C47.5985 38.5433 48.1485 38.2867 48.5518 37.92C48.9551 37.5167 49.2485 37.0583 49.4318 36.545C49.6518 35.995 49.7435 35.4083 49.7068 34.785C49.7068 34.1617 49.6335 33.52 49.4868 32.86C49.1935 31.5767 48.5518 30.4583 47.5618 29.505C46.6085 28.5517 45.5818 27.5983 44.4818 26.645C43.6018 25.9117 42.7951 25.2333 42.0618 24.61C41.3651 23.95 40.7235 23.3083 40.1368 22.685C39.5501 22.0617 39.0551 21.4383 38.6518 20.815C38.2485 20.1917 37.9368 19.5133 37.7168 18.78C37.2035 17.0933 37.0751 15.5533 37.3318 14.16C37.6251 12.73 38.1751 11.52 38.9818 10.53C39.7885 9.54 40.7968 8.77 42.0068 8.22C43.2168 7.67 44.5001 7.395 45.8568 7.395C47.2135 7.395 48.3685 7.48667 49.3218 7.67C50.3118 7.81666 51.1185 8 51.7418 8.22C52.4751 8.47666 53.0985 8.77 53.6118 9.1V20.43L49.0468 10.64ZM54.3363 7.725H73.6413V19.495L69.6263 9.54H63.0813V22.85H66.9863L69.6263 18.89V28.845L67.0963 25.16H63.0813V38.47H69.8463L73.6413 26.04V41H54.3363L56.7563 38.91V9.87L54.3363 7.725ZM74.9062 41L78.5913 38.8V10.2L75.5113 7.725H86.0163C86.5663 7.725 87.3546 7.81667 88.3813 8C89.4079 8.18333 90.4163 8.55 91.4063 9.1C92.3963 9.65 93.2579 10.4567 93.9913 11.52C94.7613 12.5467 95.1646 13.94 95.2013 15.7C95.2379 17.3867 95.0179 18.8167 94.5413 19.99C94.1013 21.1267 93.5513 22.0617 92.8913 22.795C92.2679 23.4917 91.5896 24.005 90.8563 24.335C90.1596 24.665 89.5913 24.83 89.1513 24.83L96.6313 38.745L99.5463 41H91.0762L84.0913 26.59V38.8L87.7213 41H74.9062ZM84.2013 22.63C85.4846 22.6667 86.6029 22.465 87.5563 22.025C87.9596 21.8417 88.3629 21.6033 88.7663 21.31C89.1696 20.98 89.5179 20.5767 89.8113 20.1C90.1046 19.5867 90.3246 19 90.4713 18.34C90.6546 17.6433 90.7279 16.8367 90.6913 15.92C90.6179 14.3067 90.2329 13.0967 89.5363 12.29C88.8763 11.4467 88.1429 10.8417 87.3363 10.475C86.3829 10.0717 85.3379 9.85166 84.2013 9.815V22.63Z" fill="white"/>
</svg>
