<svg width="225" height="49" viewBox="0 0 225 49" fill="none" xmlns="http://www.w3.org/2000/svg">
<g filter="url(#filter0_i_169_191)">
<path d="M0.835 0.389999L18.875 0.444998L13.43 3.745L23.88 36.415L31.58 3.8L25.805 0.389999H41.81L35.595 3.855L24.705 48.075H21.075L6.61 3.91L0.835 0.389999ZM17.005 30.09L22.56 42.025L19.975 29.1L17.72 27.12L17.005 30.09ZM12.66 17.44L15.08 19.42L15.685 16.395L10.075 4.9L12.66 17.44ZM15.63 21.18L14.805 23.655L17.005 25.195L17.72 22.72L15.63 21.18ZM35.806 5.725H47.301L44.991 7.375V36.635L47.356 39H36.026L38.391 36.745V7.54L35.806 5.725ZM48.5355 5.725H67.8405V17.495L63.8255 7.54H57.2805V20.85H61.1855L63.8255 16.89V26.845L61.2955 23.16H57.2805V36.47H64.0455L67.8405 24.04V39H48.5355L50.9555 36.91V7.87L48.5355 5.725ZM69.1055 5.725H80.2155L77.7405 7.98L82.6905 26.02L86.9255 7.98L83.8455 5.725H95.3405L92.8655 7.98L97.8155 26.02L102.05 7.925L98.9705 5.725H108.705L105.515 7.98L97.9255 39H95.3955L88.7405 14.69L82.8005 39H80.2705L71.8005 7.98L69.1055 5.725ZM143.752 0.389999L138.527 3.58V35.37C138.563 37.13 138.912 38.6883 139.572 40.045C139.828 40.6317 140.177 41.2 140.617 41.75C141.057 42.3367 141.607 42.85 142.267 43.29C142.927 43.73 143.715 44.0783 144.632 44.335C145.548 44.5917 146.612 44.72 147.822 44.72C148.922 44.72 149.875 44.5733 150.682 44.28C151.525 44.0233 152.24 43.6567 152.827 43.18C153.413 42.74 153.89 42.2267 154.257 41.64C154.66 41.0533 154.99 40.4483 155.247 39.825C155.833 38.3583 156.127 36.7083 156.127 34.875V3.69L151.507 0.389999H165.202L160.252 3.58V34.49C160.325 37.02 159.885 39.2933 158.932 41.31C158.528 42.1533 157.997 42.9783 157.337 43.785C156.713 44.6283 155.907 45.3617 154.917 45.985C153.927 46.6083 152.753 47.1033 151.397 47.47C150.04 47.8733 148.463 48.075 146.667 48.075C144.613 48.075 142.817 47.8733 141.277 47.47C139.773 47.0667 138.472 46.535 137.372 45.875C136.272 45.2517 135.337 44.5183 134.567 43.675C133.833 42.8683 133.247 42.025 132.807 41.145C131.743 39.1283 131.212 36.8367 131.212 34.27V3.745L125.877 0.389999H143.752ZM133.302 16.78L134.952 19.42L136.547 16.78L134.897 4.075L133.302 16.78ZM134.952 21.29L133.357 23.38L134.952 25.525L136.437 23.38L134.952 21.29ZM139.132 43.73C138.288 42.7033 137.665 41.585 137.262 40.375C136.858 39.2017 136.565 37.955 136.382 36.635C136.235 35.645 136.198 34.6733 136.272 33.72C136.382 32.73 136.437 31.7583 136.437 30.805L134.842 28.165L133.302 30.805C133.302 32.2717 133.393 33.555 133.577 34.655C133.76 35.755 134.053 36.7817 134.457 37.735C134.97 38.9817 135.63 40.1367 136.437 41.2C137.243 42.2633 138.142 43.1067 139.132 43.73ZM173.978 8.64C173.245 8.31 172.53 8.07166 171.833 7.925C171.21 7.85167 170.55 7.88833 169.853 8.035C169.193 8.145 168.57 8.53 167.983 9.19C167.14 10.1433 166.773 11.06 166.883 11.94C166.993 12.7833 167.397 13.6633 168.093 14.58C168.79 15.4967 169.688 16.45 170.788 17.44C171.925 18.3933 173.098 19.4383 174.308 20.575C175.665 21.8583 176.728 22.995 177.498 23.985C178.305 24.975 178.873 25.91 179.203 26.79C179.57 27.6333 179.772 28.4767 179.808 29.32C179.882 30.1267 179.9 31.025 179.863 32.015C179.79 33.555 179.423 34.7833 178.763 35.7C178.103 36.6167 177.315 37.3317 176.398 37.845C175.482 38.3217 174.528 38.6517 173.538 38.835C172.585 38.9817 171.742 39.055 171.008 39.055C169.358 39.0917 167.983 39.0183 166.883 38.835C165.783 38.615 164.922 38.3767 164.298 38.12C163.565 37.8267 162.997 37.4967 162.593 37.13V24.425L166.883 35.59C167.287 35.9567 167.745 36.2317 168.258 36.415C168.698 36.5983 169.212 36.745 169.798 36.855C170.422 36.9283 171.1 36.8733 171.833 36.69C172.53 36.5433 173.08 36.2867 173.483 35.92C173.887 35.5167 174.18 35.0583 174.363 34.545C174.583 33.995 174.675 33.4083 174.638 32.785C174.638 32.1617 174.565 31.52 174.418 30.86C174.125 29.5767 173.483 28.4583 172.493 27.505C171.54 26.5517 170.513 25.5983 169.413 24.645C168.533 23.9117 167.727 23.2333 166.993 22.61C166.297 21.95 165.655 21.3083 165.068 20.685C164.482 20.0617 163.987 19.4383 163.583 18.815C163.18 18.1917 162.868 17.5133 162.648 16.78C162.135 15.0933 162.007 13.5533 162.263 12.16C162.557 10.73 163.107 9.52 163.913 8.53C164.72 7.54 165.728 6.77 166.938 6.22C168.148 5.67 169.432 5.395 170.788 5.395C172.145 5.395 173.3 5.48667 174.253 5.67C175.243 5.81666 176.05 6 176.673 6.22C177.407 6.47666 178.03 6.77 178.543 7.1V18.43L173.978 8.64ZM179.268 5.725H198.573V17.495L194.558 7.54H188.013V20.85H191.918L194.558 16.89V26.845L192.028 23.16H188.013V36.47H194.778L198.573 24.04V39H179.268L181.688 36.91V7.87L179.268 5.725ZM199.838 39L203.523 36.8V8.2L200.443 5.725H210.948C211.498 5.725 212.286 5.81667 213.313 6C214.34 6.18333 215.348 6.55 216.338 7.1C217.328 7.65 218.19 8.45667 218.923 9.52C219.693 10.5467 220.096 11.94 220.133 13.7C220.17 15.3867 219.95 16.8167 219.473 17.99C219.033 19.1267 218.483 20.0617 217.823 20.795C217.2 21.4917 216.521 22.005 215.788 22.335C215.091 22.665 214.523 22.83 214.083 22.83L221.563 36.745L224.478 39H216.008L209.023 24.59V36.8L212.653 39H199.838ZM209.133 20.63C210.416 20.6667 211.535 20.465 212.488 20.025C212.891 19.8417 213.295 19.6033 213.698 19.31C214.101 18.98 214.45 18.5767 214.743 18.1C215.036 17.5867 215.256 17 215.403 16.34C215.586 15.6433 215.66 14.8367 215.623 13.92C215.55 12.3067 215.165 11.0967 214.468 10.29C213.808 9.44667 213.075 8.84167 212.268 8.475C211.315 8.07166 210.27 7.85166 209.133 7.815V20.63Z" fill="white"/>
</g>
<defs>
<filter id="filter0_i_169_191" x="0.834961" y="0.390015" width="223.643" height="51.6849" filterUnits="userSpaceOnUse" color-interpolation-filters="sRGB">
<feFlood flood-opacity="0" result="BackgroundImageFix"/>
<feBlend mode="normal" in="SourceGraphic" in2="BackgroundImageFix" result="shape"/>
<feColorMatrix in="SourceAlpha" type="matrix" values="0 0 0 0 0 0 0 0 0 0 0 0 0 0 0 0 0 0 127 0" result="hardAlpha"/>
<feOffset dy="4"/>
<feGaussianBlur stdDeviation="2"/>
<feComposite in2="hardAlpha" operator="arithmetic" k2="-1" k3="1"/>
<feColorMatrix type="matrix" values="0 0 0 0 0 0 0 0 0 0 0 0 0 0 0 0 0 0 0.25 0"/>
<feBlend mode="normal" in2="shape" result="effect1_innerShadow_169_191"/>
</filter>
</defs>
</svg>
