<svg width="140" height="51" viewBox="0 0 140 51" fill="none" xmlns="http://www.w3.org/2000/svg">
<path d="M41.305 27.69L34.815 31.43V46.94C33.8983 47.6367 32.7433 48.26 31.35 48.81C30.1767 49.2867 28.6733 49.7083 26.84 50.075C25.0067 50.4417 22.825 50.625 20.295 50.625C16.665 50.625 13.5483 49.965 10.945 48.645C8.37833 47.3617 6.28833 45.62 4.675 43.42C3.06167 41.22 1.87 38.6533 1.1 35.72C0.366667 32.75 0 29.615 0 26.315C0 23.125 0.421667 20.1 1.265 17.24C2.10833 14.3433 3.37333 11.7767 5.06 9.54C6.74667 7.30333 8.855 5.50667 11.385 4.15C13.9517 2.79333 16.9217 2.02333 20.295 1.84C22.825 1.73 24.86 1.80333 26.4 2.06C27.9767 2.31667 29.2233 2.62833 30.14 2.995C31.2033 3.39833 31.9917 3.91167 32.505 4.535L34.925 14.435L25.465 5.195C25.2083 5.085 24.86 5.01166 24.42 4.975C23.98 4.90167 23.5033 4.865 22.99 4.865C22.4767 4.82833 21.945 4.81 21.395 4.81C20.8817 4.81 20.4233 4.82833 20.02 4.865C18.04 4.975 16.2617 5.59833 14.685 6.735C13.145 7.87167 11.825 9.39333 10.725 11.3C9.66167 13.2067 8.83667 15.4433 8.25 18.01C7.66333 20.5767 7.37 23.345 7.37 26.315C7.37 29.285 7.645 32.035 8.195 34.565C8.78167 37.095 9.60667 39.295 10.67 41.165C11.7333 43.0717 13.0533 44.5933 14.63 45.73C16.2067 46.8667 18.0217 47.5083 20.075 47.655C21.0283 47.7283 21.8167 47.765 22.44 47.765C23.1 47.8017 23.705 47.765 24.255 47.655C24.8417 47.545 25.4467 47.3433 26.07 47.05C26.73 46.7567 27.5367 46.2983 28.49 45.675V31.485L21.725 27.69H41.305ZM11.55 6.955C10.2667 7.725 9.13 8.605 8.14 9.595C7.15 10.585 6.36167 11.4833 5.775 12.29C5.555 12.62 5.29833 13.0417 5.005 13.555C4.71167 14.0317 4.41833 14.5633 4.125 15.15C3.86833 15.7367 3.63 16.3233 3.41 16.91C3.19 17.46 3.06167 17.9733 3.025 18.45L4.455 21.09L6.16 18.45C6.30667 17.24 6.47167 16.195 6.655 15.315C6.875 14.3983 7.095 13.6283 7.315 13.005C7.46167 12.565 7.68167 12.07 7.975 11.52C8.305 10.97 8.67167 10.42 9.075 9.87C9.47833 9.32 9.88167 8.78833 10.285 8.275C10.725 7.76167 11.1467 7.32167 11.55 6.955ZM2.2 25.655L3.685 27.8L5.28 25.655L3.685 23.565L2.2 25.655ZM11.22 46.115C10.45 45.3817 9.625 44.355 8.745 43.035C7.90167 41.715 7.26 40.4133 6.82 39.13C6.38 37.8467 6.105 36.7833 5.995 35.94C5.92167 35.06 5.885 34.1433 5.885 33.19L4.18 30.55L2.75 33.19C2.86 34.1433 3.15333 35.2617 3.63 36.545C4.14333 37.7917 4.74833 38.9467 5.445 40.01C6.17833 41.1467 7.00333 42.2467 7.92 43.31C8.83667 44.41 9.93667 45.345 11.22 46.115ZM29.975 42.925L31.625 45.565L33.22 42.925L31.57 30.22L29.975 42.925ZM65.8664 41H53.3264L55.8014 38.14L54.0414 29.56H47.1664L44.9114 38.36L47.8264 41H37.5964L41.4464 38.14L49.0914 10.42L45.6264 7.67H54.2064L62.6764 38.58L65.8664 41ZM47.7164 27.525H53.4914L50.5764 15.865L47.7164 27.525ZM66.3867 41L69.1367 38.69V10.035L66.3867 7.725H75.3517L82.3917 26.755L90.0367 7.725H98.3967L95.5367 10.035V38.8L98.1767 41H86.5167L89.4317 38.8V17.075L81.0167 41L72.8767 17.075V38.58L75.2417 41H66.3867ZM99.2591 7.725H118.564V19.495L114.549 9.54H108.004V22.85H111.909L114.549 18.89V28.845L112.019 25.16H108.004V38.47H114.769L118.564 26.04V41H99.2591L101.679 38.91V9.87L99.2591 7.725ZM132.534 10.64C131.801 10.31 131.086 10.0717 130.389 9.925C129.766 9.85167 129.106 9.88833 128.409 10.035C127.749 10.145 127.126 10.53 126.539 11.19C125.696 12.1433 125.329 13.06 125.439 13.94C125.549 14.7833 125.952 15.6633 126.649 16.58C127.346 17.4967 128.244 18.45 129.344 19.44C130.481 20.3933 131.654 21.4383 132.864 22.575C134.221 23.8583 135.284 24.995 136.054 25.985C136.861 26.975 137.429 27.91 137.759 28.79C138.126 29.6333 138.327 30.4767 138.364 31.32C138.437 32.1267 138.456 33.025 138.419 34.015C138.346 35.555 137.979 36.7833 137.319 37.7C136.659 38.6167 135.871 39.3317 134.954 39.845C134.037 40.3217 133.084 40.6517 132.094 40.835C131.141 40.9817 130.297 41.055 129.564 41.055C127.914 41.0917 126.539 41.0183 125.439 40.835C124.339 40.615 123.477 40.3767 122.854 40.12C122.121 39.8267 121.552 39.4967 121.149 39.13V26.425L125.439 37.59C125.842 37.9567 126.301 38.2317 126.814 38.415C127.254 38.5983 127.767 38.745 128.354 38.855C128.977 38.9283 129.656 38.8733 130.389 38.69C131.086 38.5433 131.636 38.2867 132.039 37.92C132.442 37.5167 132.736 37.0583 132.919 36.545C133.139 35.995 133.231 35.4083 133.194 34.785C133.194 34.1617 133.121 33.52 132.974 32.86C132.681 31.5767 132.039 30.4583 131.049 29.505C130.096 28.5517 129.069 27.5983 127.969 26.645C127.089 25.9117 126.282 25.2333 125.549 24.61C124.852 23.95 124.211 23.3083 123.624 22.685C123.037 22.0617 122.542 21.4383 122.139 20.815C121.736 20.1917 121.424 19.5133 121.204 18.78C120.691 17.0933 120.562 15.5533 120.819 14.16C121.112 12.73 121.662 11.52 122.469 10.53C123.276 9.54 124.284 8.77 125.494 8.22C126.704 7.67 127.987 7.395 129.344 7.395C130.701 7.395 131.856 7.48667 132.809 7.67C133.799 7.81666 134.606 8 135.229 8.22C135.962 8.47666 136.586 8.77 137.099 9.1V20.43L132.534 10.64Z" fill="white"/>
</svg>
