<svg width="191" height="51" viewBox="0 0 191 51" fill="none" xmlns="http://www.w3.org/2000/svg">
<path d="M41.305 27.69L34.815 31.43V46.94C33.8983 47.6367 32.7433 48.26 31.35 48.81C30.1767 49.2867 28.6733 49.7083 26.84 50.075C25.0067 50.4417 22.825 50.625 20.295 50.625C16.665 50.625 13.5483 49.965 10.945 48.645C8.37833 47.3617 6.28833 45.62 4.675 43.42C3.06167 41.22 1.87 38.6533 1.1 35.72C0.366667 32.75 0 29.615 0 26.315C0 23.125 0.421667 20.1 1.265 17.24C2.10833 14.3433 3.37333 11.7767 5.06 9.54C6.74667 7.30333 8.855 5.50667 11.385 4.15C13.9517 2.79333 16.9217 2.02333 20.295 1.84C22.825 1.73 24.86 1.80333 26.4 2.06C27.9767 2.31667 29.2233 2.62833 30.14 2.995C31.2033 3.39833 31.9917 3.91167 32.505 4.535L34.925 14.435L25.465 5.195C25.2083 5.085 24.86 5.01166 24.42 4.975C23.98 4.90167 23.5033 4.865 22.99 4.865C22.4767 4.82833 21.945 4.81 21.395 4.81C20.8817 4.81 20.4233 4.82833 20.02 4.865C18.04 4.975 16.2617 5.59833 14.685 6.735C13.145 7.87167 11.825 9.39333 10.725 11.3C9.66167 13.2067 8.83667 15.4433 8.25 18.01C7.66333 20.5767 7.37 23.345 7.37 26.315C7.37 29.285 7.645 32.035 8.195 34.565C8.78167 37.095 9.60667 39.295 10.67 41.165C11.7333 43.0717 13.0533 44.5933 14.63 45.73C16.2067 46.8667 18.0217 47.5083 20.075 47.655C21.0283 47.7283 21.8167 47.765 22.44 47.765C23.1 47.8017 23.705 47.765 24.255 47.655C24.8417 47.545 25.4467 47.3433 26.07 47.05C26.73 46.7567 27.5367 46.2983 28.49 45.675V31.485L21.725 27.69H41.305ZM11.55 6.955C10.2667 7.725 9.13 8.605 8.14 9.595C7.15 10.585 6.36167 11.4833 5.775 12.29C5.555 12.62 5.29833 13.0417 5.005 13.555C4.71167 14.0317 4.41833 14.5633 4.125 15.15C3.86833 15.7367 3.63 16.3233 3.41 16.91C3.19 17.46 3.06167 17.9733 3.025 18.45L4.455 21.09L6.16 18.45C6.30667 17.24 6.47167 16.195 6.655 15.315C6.875 14.3983 7.095 13.6283 7.315 13.005C7.46167 12.565 7.68167 12.07 7.975 11.52C8.305 10.97 8.67167 10.42 9.075 9.87C9.47833 9.32 9.88167 8.78833 10.285 8.275C10.725 7.76167 11.1467 7.32167 11.55 6.955ZM2.2 25.655L3.685 27.8L5.28 25.655L3.685 23.565L2.2 25.655ZM11.22 46.115C10.45 45.3817 9.625 44.355 8.745 43.035C7.90167 41.715 7.26 40.4133 6.82 39.13C6.38 37.8467 6.105 36.7833 5.995 35.94C5.92167 35.06 5.885 34.1433 5.885 33.19L4.18 30.55L2.75 33.19C2.86 34.1433 3.15333 35.2617 3.63 36.545C4.14333 37.7917 4.74833 38.9467 5.445 40.01C6.17833 41.1467 7.00333 42.2467 7.92 43.31C8.83667 44.41 9.93667 45.345 11.22 46.115ZM29.975 42.925L31.625 45.565L33.22 42.925L31.57 30.22L29.975 42.925ZM65.8664 41H53.3264L55.8014 38.14L54.0414 29.56H47.1664L44.9114 38.36L47.8264 41H37.5964L41.4464 38.14L49.0914 10.42L45.6264 7.67H54.2064L62.6764 38.58L65.8664 41ZM47.7164 27.525H53.4914L50.5764 15.865L47.7164 27.525ZM66.3867 41L69.1367 38.69V10.035L66.3867 7.725H75.3517L82.3917 26.755L90.0367 7.725H98.3967L95.5367 10.035V38.8L98.1767 41H86.5167L89.4317 38.8V17.075L81.0167 41L72.8767 17.075V38.58L75.2417 41H66.3867ZM99.2591 7.725H118.564V19.495L114.549 9.54H108.004V22.85H111.909L114.549 18.89V28.845L112.019 25.16H108.004V38.47H114.769L118.564 26.04V41H99.2591L101.679 38.91V9.87L99.2591 7.725ZM137.712 50.075L142.882 46.005L138.757 27.91H127.867L123.082 46.28L128.637 50.075H112.577L119.177 46.17L130.177 6.405L121.982 2.5H138.757L150.197 46.005L156.522 50.075H137.712ZM138.042 24.83L133.697 7.065L128.857 24.83H138.042ZM141.837 33.3L146.402 45.62L144.862 32.53L142.772 30.385L141.837 33.3ZM138.537 20.32L140.792 22.465L141.672 19.55L136.997 7.615L138.537 20.32ZM141.232 24.28L140.187 26.7L142.222 28.405L143.157 25.985L141.232 24.28ZM158.987 22.63C160.271 22.6667 161.389 22.465 162.342 22.025C162.746 21.8417 163.149 21.6033 163.552 21.31C163.956 20.98 164.304 20.5767 164.597 20.1C164.891 19.5867 165.111 19 165.257 18.34C165.441 17.6433 165.514 16.8367 165.477 15.92C165.404 14.3067 165.019 13.0967 164.322 12.29C163.662 11.4467 162.929 10.8417 162.122 10.475C161.169 10.0717 160.124 9.85166 158.987 9.815V22.63ZM149.692 41L153.377 38.8V10.2L150.297 7.725H160.802C161.352 7.725 162.141 7.81667 163.167 8C164.194 8.18333 165.202 8.55 166.192 9.1C167.182 9.65 168.044 10.4567 168.777 11.52C169.547 12.5467 169.951 13.94 169.987 15.7C170.024 17.24 169.841 18.5417 169.437 19.605C169.034 20.6683 168.502 21.5483 167.842 22.245C167.219 22.9417 166.486 23.4917 165.642 23.895C164.799 24.2617 163.956 24.5367 163.112 24.72C162.306 24.8667 161.517 24.9583 160.747 24.995C160.014 25.0317 159.391 25.0317 158.877 24.995V38.8L162.507 41H149.692ZM177.303 22.63C178.586 22.6667 179.704 22.465 180.658 22.025C181.061 21.8417 181.464 21.6033 181.868 21.31C182.271 20.98 182.619 20.5767 182.913 20.1C183.206 19.5867 183.426 19 183.573 18.34C183.756 17.6433 183.829 16.8367 183.793 15.92C183.719 14.3067 183.334 13.0967 182.638 12.29C181.978 11.4467 181.244 10.8417 180.438 10.475C179.484 10.0717 178.439 9.85166 177.303 9.815V22.63ZM168.008 41L171.693 38.8V10.2L168.613 7.725H179.118C179.668 7.725 180.456 7.81667 181.483 8C182.509 8.18333 183.518 8.55 184.508 9.1C185.498 9.65 186.359 10.4567 187.093 11.52C187.863 12.5467 188.266 13.94 188.303 15.7C188.339 17.24 188.156 18.5417 187.753 19.605C187.349 20.6683 186.818 21.5483 186.158 22.245C185.534 22.9417 184.801 23.4917 183.958 23.895C183.114 24.2617 182.271 24.5367 181.428 24.72C180.621 24.8667 179.833 24.9583 179.063 24.995C178.329 25.0317 177.706 25.0317 177.193 24.995V38.8L180.823 41H168.008Z" fill="white"/>
</svg>
