<svg width="223" height="50" viewBox="0 0 223 50" fill="none" xmlns="http://www.w3.org/2000/svg">
<g filter="url(#filter0_i_172_26)">
<path d="M0 1.5H31.405L34.43 12.775L26.62 4.58H12.155V23.83H21.89L25.685 16.46V34.115L22 26.91H12.155V45.5H27.005L34.485 38.02L31.405 49.075H0.11L5.61 45.335V5.405L0 1.5ZM7.315 31.805L8.745 44.84L10.45 31.805L8.91 29.22L7.315 31.805ZM7.205 18.385L8.855 21.025L10.45 18.385L8.8 5.68L7.205 18.385ZM8.855 22.895L7.26 24.985L8.855 27.13L10.34 24.985L8.855 22.895ZM56.3647 21.795C56.548 25.2783 56.1997 28.3767 55.3197 31.09C54.953 32.2633 54.4397 33.4 53.7797 34.5C53.1564 35.5633 52.3497 36.5167 51.3597 37.36C50.3697 38.2033 49.178 38.8817 47.7847 39.395C46.3914 39.8717 44.7597 40.0733 42.8897 40H34.9697L37.8847 37.635V9.09L34.8047 6.615H42.2847C44.8514 6.615 47.143 7.12833 49.1597 8.155C50.0397 8.595 50.883 9.18166 51.6897 9.915C52.533 10.6117 53.2847 11.51 53.9447 12.61C54.6047 13.71 55.1547 15.0117 55.5947 16.515C56.0347 18.0183 56.2914 19.7783 56.3647 21.795ZM45.9697 36.975C46.4097 36.7183 46.9414 36.3333 47.5647 35.82C48.188 35.27 48.7747 34.4633 49.3247 33.4C49.8747 32.3367 50.3147 30.9433 50.6447 29.22C51.0114 27.46 51.1764 25.2233 51.1397 22.51C51.2497 20.42 51.103 18.495 50.6997 16.735C50.5164 15.965 50.278 15.195 49.9847 14.425C49.728 13.655 49.3797 12.94 48.9397 12.28C48.4997 11.5833 47.9497 10.96 47.2897 10.41C46.6664 9.86 45.933 9.43833 45.0897 9.145C44.723 9.035 44.448 8.98 44.2647 8.98C44.0814 8.98 43.8064 8.98 43.4397 8.98V37.525C43.733 37.5617 44.0264 37.5617 44.3197 37.525C44.9064 37.4517 45.4564 37.2683 45.9697 36.975ZM55.4847 6.725H66.9797L64.6697 8.375V37.635L67.0347 40H55.7047L58.0697 37.745V8.54L55.4847 6.725ZM68.1592 18.22V6.725H87.2992V18.33L83.5042 9.255H80.9192V37.745L83.3392 40H72.2292L74.7042 37.855V9.255H71.7892L68.1592 18.22ZM145.504 26.69L139.014 30.43V45.94C138.098 46.6367 136.943 47.26 135.549 47.81C134.376 48.2867 132.873 48.7083 131.039 49.075C129.206 49.4417 127.024 49.625 124.494 49.625C120.864 49.625 117.748 48.965 115.144 47.645C112.578 46.3617 110.488 44.62 108.874 42.42C107.261 40.22 106.069 37.6533 105.299 34.72C104.566 31.75 104.199 28.615 104.199 25.315C104.199 22.125 104.621 19.1 105.464 16.24C106.308 13.3433 107.573 10.7767 109.259 8.54C110.946 6.30333 113.054 4.50667 115.584 3.15C118.151 1.79333 121.121 1.02333 124.494 0.839999C127.024 0.729999 129.059 0.803332 130.599 1.06C132.176 1.31667 133.423 1.62833 134.339 1.995C135.403 2.39833 136.191 2.91167 136.704 3.535L139.124 13.435L129.664 4.195C129.408 4.085 129.059 4.01166 128.619 3.975C128.179 3.90167 127.703 3.865 127.189 3.865C126.676 3.82833 126.144 3.81 125.594 3.81C125.081 3.81 124.623 3.82833 124.219 3.865C122.239 3.975 120.461 4.59833 118.884 5.735C117.344 6.87167 116.024 8.39333 114.924 10.3C113.861 12.2067 113.036 14.4433 112.449 17.01C111.863 19.5767 111.569 22.345 111.569 25.315C111.569 28.285 111.844 31.035 112.394 33.565C112.981 36.095 113.806 38.295 114.869 40.165C115.933 42.0717 117.253 43.5933 118.829 44.73C120.406 45.8667 122.221 46.5083 124.274 46.655C125.228 46.7283 126.016 46.765 126.639 46.765C127.299 46.8017 127.904 46.765 128.454 46.655C129.041 46.545 129.646 46.3433 130.269 46.05C130.929 45.7567 131.736 45.2983 132.689 44.675V30.485L125.924 26.69H145.504ZM115.749 5.955C114.466 6.725 113.329 7.605 112.339 8.595C111.349 9.585 110.561 10.4833 109.974 11.29C109.754 11.62 109.498 12.0417 109.204 12.555C108.911 13.0317 108.618 13.5633 108.324 14.15C108.068 14.7367 107.829 15.3233 107.609 15.91C107.389 16.46 107.261 16.9733 107.224 17.45L108.654 20.09L110.359 17.45C110.506 16.24 110.671 15.195 110.854 14.315C111.074 13.3983 111.294 12.6283 111.514 12.005C111.661 11.565 111.881 11.07 112.174 10.52C112.504 9.97 112.871 9.42 113.274 8.87C113.678 8.32 114.081 7.78833 114.484 7.275C114.924 6.76167 115.346 6.32167 115.749 5.955ZM106.399 24.655L107.884 26.8L109.479 24.655L107.884 22.565L106.399 24.655ZM115.419 45.115C114.649 44.3817 113.824 43.355 112.944 42.035C112.101 40.715 111.459 39.4133 111.019 38.13C110.579 36.8467 110.304 35.7833 110.194 34.94C110.121 34.06 110.084 33.1433 110.084 32.19L108.379 29.55L106.949 32.19C107.059 33.1433 107.353 34.2617 107.829 35.545C108.343 36.7917 108.948 37.9467 109.644 39.01C110.378 40.1467 111.203 41.2467 112.119 42.31C113.036 43.41 114.136 44.345 115.419 45.115ZM134.174 41.925L135.824 44.565L137.419 41.925L135.769 29.22L134.174 41.925ZM170.066 40H157.526L160.001 37.14L158.241 28.56H151.366L149.111 37.36L152.026 40H141.796L145.646 37.14L153.291 9.42L149.826 6.67H158.406L166.876 37.58L170.066 40ZM151.916 26.525H157.691L154.776 14.865L151.916 26.525ZM170.586 40L173.336 37.69V9.035L170.586 6.725H179.551L186.591 25.755L194.236 6.725H202.596L199.736 9.035V37.8L202.376 40H190.716L193.631 37.8V16.075L185.216 40L177.076 16.075V37.58L179.441 40H170.586ZM203.458 6.725H222.763V18.495L218.748 8.54H212.203V21.85H216.108L218.748 17.89V27.845L216.218 24.16H212.203V37.47H218.968L222.763 25.04V40H203.458L205.878 37.91V8.87L203.458 6.725Z" fill="white"/>
</g>
<defs>
<filter id="filter0_i_172_26" x="0" y="0.675049" width="222.763" height="52.95" filterUnits="userSpaceOnUse" color-interpolation-filters="sRGB">
<feFlood flood-opacity="0" result="BackgroundImageFix"/>
<feBlend mode="normal" in="SourceGraphic" in2="BackgroundImageFix" result="shape"/>
<feColorMatrix in="SourceAlpha" type="matrix" values="0 0 0 0 0 0 0 0 0 0 0 0 0 0 0 0 0 0 127 0" result="hardAlpha"/>
<feOffset dy="4"/>
<feGaussianBlur stdDeviation="2"/>
<feComposite in2="hardAlpha" operator="arithmetic" k2="-1" k3="1"/>
<feColorMatrix type="matrix" values="0 0 0 0 0 0 0 0 0 0 0 0 0 0 0 0 0 0 0.25 0"/>
<feBlend mode="normal" in2="shape" result="effect1_innerShadow_172_26"/>
</filter>
</defs>
</svg>
