<svg width="110" height="49" viewBox="0 0 110 49" fill="none" xmlns="http://www.w3.org/2000/svg">
<g filter="url(#filter0_i_130_1029)">
<path d="M0.055 48.075L5.885 45.16V4.405L0.055 0.499997H17.105L12.155 4.405V44.995H24.64L33.77 36.745L30.195 48.075H0.055ZM7.535 31.41L9.13 44.445L10.78 31.41L9.185 28.825L7.535 31.41ZM7.425 17.99L9.075 20.63L10.78 17.99L9.13 5.285L7.425 17.99ZM9.075 22.5L7.48 24.59L9.075 26.735L10.78 24.59L9.075 22.5ZM52.3157 11.61C53.0491 13.04 53.5991 14.69 53.9657 16.56C54.3324 18.3933 54.5157 20.3183 54.5157 22.335C54.5157 23.5083 54.4424 24.7 54.2957 25.91C54.1491 27.0833 53.9291 28.2383 53.6357 29.375C53.3791 30.475 53.0491 31.52 52.6457 32.51C52.2424 33.5 51.8024 34.38 51.3257 35.15C50.2991 36.8 49.0707 37.955 47.6407 38.615C46.2107 39.275 44.6891 39.605 43.0757 39.605C41.4624 39.605 39.8857 39.1833 38.3457 38.34C36.8057 37.4967 35.5041 36.2683 34.4407 34.655C33.3774 33.115 32.6441 31.2817 32.2407 29.155C31.8374 26.9917 31.6357 24.7183 31.6357 22.335C31.6357 20.2083 31.8007 18.21 32.1307 16.34C32.4974 14.4333 33.1024 12.71 33.9457 11.17C35.0091 9.22667 36.3291 7.705 37.9057 6.605C39.5191 5.46833 41.2424 4.9 43.0757 4.9C44.9457 4.9 46.6874 5.505 48.3007 6.715C49.9141 7.88833 51.2524 9.52 52.3157 11.61ZM43.0207 37.185C43.8274 37.185 44.5607 36.8 45.2207 36.03C45.9174 35.26 46.5041 34.215 46.9807 32.895C47.4941 31.575 47.8974 30.0167 48.1907 28.22C48.4841 26.3867 48.6307 24.425 48.6307 22.335C48.6307 20.2083 48.4841 18.2467 48.1907 16.45C47.8974 14.6167 47.4941 13.0217 46.9807 11.665C46.4674 10.3083 45.8624 9.245 45.1657 8.475C44.5057 7.705 43.7724 7.32 42.9657 7.32C42.1957 7.32 41.4441 7.705 40.7107 8.475C40.0141 9.245 39.4091 10.3083 38.8957 11.665C38.3824 13.0217 37.9607 14.6167 37.6307 16.45C37.3374 18.2467 37.1907 20.2083 37.1907 22.335C37.1907 24.425 37.3374 26.3867 37.6307 28.22C37.9607 30.0167 38.3824 31.575 38.8957 32.895C39.4457 34.215 40.0691 35.26 40.7657 36.03C41.4991 36.8 42.2507 37.185 43.0207 37.185ZM75.7286 23.765L73.6386 26.075V37.46C72.9052 37.8633 72.1536 38.23 71.3836 38.56C70.7236 38.8533 69.9719 39.0917 69.1286 39.275C68.3219 39.495 67.5152 39.605 66.7086 39.605C65.0586 39.605 63.4636 39.2017 61.9236 38.395C60.4202 37.5517 59.1369 36.305 58.0736 34.655C57.0102 33.115 56.2769 31.2817 55.8736 29.155C55.4702 26.9917 55.2686 24.7183 55.2686 22.335C55.2686 20.1717 55.4336 18.155 55.7636 16.285C56.1302 14.415 56.7352 12.71 57.5786 11.17C58.6419 9.26333 59.9619 7.77833 61.5386 6.715C63.1519 5.615 64.8752 5.01 66.7086 4.9C68.1386 4.82667 69.2936 4.88166 70.1736 5.065C71.0902 5.24833 71.8052 5.46833 72.3186 5.725C72.9052 6.055 73.3452 6.42167 73.6386 6.825V17.495L68.7436 7.65C68.2669 7.35667 67.5519 7.265 66.5986 7.375C65.7919 7.44833 65.0402 7.88833 64.3436 8.695C63.6469 9.465 63.0236 10.51 62.4736 11.83C61.9602 13.15 61.5569 14.7083 61.2636 16.505C60.9702 18.265 60.8236 20.2083 60.8236 22.335C60.8236 24.425 60.9702 26.3867 61.2636 28.22C61.5936 30.0167 62.0152 31.5933 62.5286 32.95C63.0786 34.27 63.7019 35.315 64.3986 36.085C65.0952 36.8183 65.8469 37.185 66.6536 37.185C66.9836 37.185 67.3502 37.1117 67.7536 36.965C68.1569 36.7817 68.4869 36.5617 68.7436 36.305V26.13L66.5986 23.765H75.7286ZM75.1966 5.725H86.6916L84.3816 7.375V36.635L86.7466 39H75.4166L77.7816 36.745V7.54L75.1966 5.725ZM87.8711 39L90.6211 36.69V8.035L87.8711 5.725H94.3611L104.426 24.59V7.595L102.116 5.725H109.761L108.001 7.375V39H104.426L94.3611 18.705V36.58L96.7261 39H87.8711Z" fill="white"/>
</g>
<defs>
<filter id="filter0_i_130_1029" x="0.0549927" y="0.5" width="109.706" height="51.575" filterUnits="userSpaceOnUse" color-interpolation-filters="sRGB">
<feFlood flood-opacity="0" result="BackgroundImageFix"/>
<feBlend mode="normal" in="SourceGraphic" in2="BackgroundImageFix" result="shape"/>
<feColorMatrix in="SourceAlpha" type="matrix" values="0 0 0 0 0 0 0 0 0 0 0 0 0 0 0 0 0 0 127 0" result="hardAlpha"/>
<feOffset dy="4"/>
<feGaussianBlur stdDeviation="2"/>
<feComposite in2="hardAlpha" operator="arithmetic" k2="-1" k3="1"/>
<feColorMatrix type="matrix" values="0 0 0 0 0 0 0 0 0 0 0 0 0 0 0 0 0 0 0.25 0"/>
<feBlend mode="normal" in2="shape" result="effect1_innerShadow_130_1029"/>
</filter>
</defs>
</svg>
