<svg width="169" height="49" viewBox="0 0 169 49" fill="none" xmlns="http://www.w3.org/2000/svg">
<g filter="url(#filter0_i_168_10)">
<path d="M1.22 48.075L7.435 44.5V4.68L0.89 0.499997H19.48C19.9933 0.499997 20.6717 0.554998 21.515 0.664999C22.3583 0.774999 23.2567 0.976666 24.21 1.27C25.1633 1.56333 26.135 1.96666 27.125 2.48C28.115 2.99333 28.995 3.67166 29.765 4.515C30.5717 5.35833 31.2317 6.385 31.745 7.595C32.2583 8.805 32.5517 10.2533 32.625 11.94C32.6983 13.7733 32.4783 15.3683 31.965 16.725C31.4517 18.045 30.755 19.1633 29.875 20.08C29.0317 20.9967 28.0783 21.7483 27.015 22.335C25.9883 22.9217 24.9617 23.38 23.935 23.71C22.945 24.0033 22.0283 24.205 21.185 24.315C20.3417 24.425 19.7 24.48 19.26 24.48L34.935 44.335L41.92 48.075H29.105L13.76 27.505V44.5L19.975 48.075H1.22ZM13.98 21.785C16.5467 21.8583 18.82 21.565 20.8 20.905C21.6433 20.6483 22.45 20.3 23.22 19.86C24.0267 19.3833 24.7233 18.7967 25.31 18.1C25.9333 17.4033 26.41 16.5783 26.74 15.625C27.07 14.6717 27.1983 13.535 27.125 12.215C27.0517 10.9683 26.795 9.88667 26.355 8.97C25.9517 8.01667 25.42 7.22833 24.76 6.605C24.1367 5.945 23.44 5.41333 22.67 5.01C21.9 4.57 21.1117 4.24 20.305 4.02C18.435 3.47 16.3267 3.28667 13.98 3.47V21.785ZM9.14 30.75L10.735 43.785L12.385 30.75L10.79 28.165L9.14 30.75ZM9.03 17.33L10.68 19.97L12.385 17.33L10.735 4.625L9.03 17.33ZM10.68 21.84L9.085 23.93L10.68 26.075L12.385 23.93L10.68 21.84ZM16.785 28.88L30.48 43.73L19.315 26.955L15.795 25.085L16.785 28.88ZM29.545 8.365L28.115 12.435L29.655 16.835L31.415 12.435L29.545 8.365ZM32.9593 5.725H52.2643V17.495L48.2493 7.54H41.7043V20.85H45.6093L48.2493 16.89V26.845L45.7193 23.16H41.7043V36.47H48.4693L52.2643 24.04V39H32.9593L35.3793 36.91V7.87L32.9593 5.725ZM73.9893 23.765L71.8993 26.075V37.46C71.166 37.8633 70.4143 38.23 69.6443 38.56C68.9843 38.8533 68.2326 39.0917 67.3893 39.275C66.5826 39.495 65.776 39.605 64.9693 39.605C63.3193 39.605 61.7243 39.2017 60.1843 38.395C58.681 37.5517 57.3976 36.305 56.3343 34.655C55.271 33.115 54.5376 31.2817 54.1343 29.155C53.731 26.9917 53.5293 24.7183 53.5293 22.335C53.5293 20.1717 53.6943 18.155 54.0243 16.285C54.391 14.415 54.996 12.71 55.8393 11.17C56.9026 9.26333 58.2226 7.77833 59.7993 6.715C61.4126 5.615 63.136 5.01 64.9693 4.9C66.3993 4.82667 67.5543 4.88166 68.4343 5.065C69.351 5.24833 70.066 5.46833 70.5793 5.725C71.166 6.055 71.606 6.42167 71.8993 6.825V17.495L67.0043 7.65C66.5276 7.35667 65.8126 7.265 64.8593 7.375C64.0526 7.44833 63.301 7.88833 62.6043 8.695C61.9076 9.465 61.2843 10.51 60.7343 11.83C60.221 13.15 59.8176 14.7083 59.5243 16.505C59.231 18.265 59.0843 20.2083 59.0843 22.335C59.0843 24.425 59.231 26.3867 59.5243 28.22C59.8543 30.0167 60.276 31.5933 60.7893 32.95C61.3393 34.27 61.9626 35.315 62.6593 36.085C63.356 36.8183 64.1076 37.185 64.9143 37.185C65.2443 37.185 65.611 37.1117 66.0143 36.965C66.4176 36.7817 66.7476 36.5617 67.0043 36.305V26.13L64.8593 23.765H73.9893ZM73.4573 5.725H84.9523L82.6423 7.375V36.635L85.0073 39H73.6773L76.0423 36.745V7.54L73.4573 5.725ZM97.0107 8.64C96.2773 8.31 95.5623 8.07166 94.8657 7.925C94.2423 7.85167 93.5823 7.88833 92.8857 8.035C92.2257 8.145 91.6023 8.53 91.0157 9.19C90.1723 10.1433 89.8057 11.06 89.9157 11.94C90.0257 12.7833 90.429 13.6633 91.1257 14.58C91.8223 15.4967 92.7207 16.45 93.8207 17.44C94.9573 18.3933 96.1307 19.4383 97.3407 20.575C98.6973 21.8583 99.7607 22.995 100.531 23.985C101.337 24.975 101.906 25.91 102.236 26.79C102.602 27.6333 102.804 28.4767 102.841 29.32C102.914 30.1267 102.932 31.025 102.896 32.015C102.822 33.555 102.456 34.7833 101.796 35.7C101.136 36.6167 100.347 37.3317 99.4307 37.845C98.514 38.3217 97.5607 38.6517 96.5707 38.835C95.6173 38.9817 94.774 39.055 94.0407 39.055C92.3907 39.0917 91.0157 39.0183 89.9157 38.835C88.8157 38.615 87.954 38.3767 87.3307 38.12C86.5973 37.8267 86.029 37.4967 85.6257 37.13V24.425L89.9157 35.59C90.319 35.9567 90.7773 36.2317 91.2907 36.415C91.7307 36.5983 92.244 36.745 92.8307 36.855C93.454 36.9283 94.1323 36.8733 94.8657 36.69C95.5623 36.5433 96.1123 36.2867 96.5157 35.92C96.919 35.5167 97.2123 35.0583 97.3957 34.545C97.6157 33.995 97.7073 33.4083 97.6707 32.785C97.6707 32.1617 97.5973 31.52 97.4507 30.86C97.1573 29.5767 96.5157 28.4583 95.5257 27.505C94.5723 26.5517 93.5457 25.5983 92.4457 24.645C91.5657 23.9117 90.759 23.2333 90.0257 22.61C89.329 21.95 88.6873 21.3083 88.1007 20.685C87.514 20.0617 87.019 19.4383 86.6157 18.815C86.2123 18.1917 85.9007 17.5133 85.6807 16.78C85.1673 15.0933 85.039 13.5533 85.2957 12.16C85.589 10.73 86.139 9.52 86.9457 8.53C87.7523 7.54 88.7607 6.77 89.9707 6.22C91.1807 5.67 92.464 5.395 93.8207 5.395C95.1773 5.395 96.3323 5.48667 97.2857 5.67C98.2757 5.81666 99.0823 6 99.7057 6.22C100.439 6.47666 101.062 6.77 101.576 7.1V18.43L97.0107 8.64ZM103.266 17.22V5.725H122.406V17.33L118.611 8.255H116.026V36.745L118.446 39H107.336L109.811 36.855V8.255H106.896L103.266 17.22ZM122.871 5.725H142.176V17.495L138.161 7.54H131.616V20.85H135.521L138.161 16.89V26.845L135.631 23.16H131.616V36.47H138.381L142.176 24.04V39H122.871L125.291 36.91V7.87L122.871 5.725ZM143.441 39L147.126 36.8V8.2L144.046 5.725H154.551C155.101 5.725 155.89 5.81667 156.916 6C157.943 6.18333 158.951 6.55 159.941 7.1C160.931 7.65 161.793 8.45667 162.526 9.52C163.296 10.5467 163.7 11.94 163.736 13.7C163.773 15.3867 163.553 16.8167 163.076 17.99C162.636 19.1267 162.086 20.0617 161.426 20.795C160.803 21.4917 160.125 22.005 159.391 22.335C158.695 22.665 158.126 22.83 157.686 22.83L165.166 36.745L168.081 39H159.611L152.626 24.59V36.8L156.256 39H143.441ZM152.736 20.63C154.02 20.6667 155.138 20.465 156.091 20.025C156.495 19.8417 156.898 19.6033 157.301 19.31C157.705 18.98 158.053 18.5767 158.346 18.1C158.64 17.5867 158.86 17 159.006 16.34C159.19 15.6433 159.263 14.8367 159.226 13.92C159.153 12.3067 158.768 11.0967 158.071 10.29C157.411 9.44667 156.678 8.84167 155.871 8.475C154.918 8.07166 153.873 7.85166 152.736 7.815V20.63Z" fill="white"/>
</g>
<defs>
<filter id="filter0_i_168_10" x="0.890015" y="0.5" width="167.191" height="51.575" filterUnits="userSpaceOnUse" color-interpolation-filters="sRGB">
<feFlood flood-opacity="0" result="BackgroundImageFix"/>
<feBlend mode="normal" in="SourceGraphic" in2="BackgroundImageFix" result="shape"/>
<feColorMatrix in="SourceAlpha" type="matrix" values="0 0 0 0 0 0 0 0 0 0 0 0 0 0 0 0 0 0 127 0" result="hardAlpha"/>
<feOffset dy="4"/>
<feGaussianBlur stdDeviation="2"/>
<feComposite in2="hardAlpha" operator="arithmetic" k2="-1" k3="1"/>
<feColorMatrix type="matrix" values="0 0 0 0 0 0 0 0 0 0 0 0 0 0 0 0 0 0 0.25 0"/>
<feBlend mode="normal" in2="shape" result="effect1_innerShadow_168_10"/>
</filter>
</defs>
</svg>
