<svg width="218" height="50" viewBox="0 0 218 50" fill="none" xmlns="http://www.w3.org/2000/svg">
<g filter="url(#filter0_i_169_572)">
<path d="M26.08 49.075L31.25 45.005L27.125 26.91H16.235L11.45 45.28L17.005 49.075H0.945L7.545 45.17L18.545 5.405L10.35 1.5H27.125L38.565 45.005L44.89 49.075H26.08ZM26.41 23.83L22.065 6.065L17.225 23.83H26.41ZM30.205 32.3L34.77 44.62L33.23 31.53L31.14 29.385L30.205 32.3ZM26.905 19.32L29.16 21.465L30.04 18.55L25.365 6.615L26.905 19.32ZM29.6 23.28L28.555 25.7L30.59 27.405L31.525 24.985L29.6 23.28ZM61.1782 21.795C61.3615 25.2783 61.0132 28.3767 60.1332 31.09C59.7665 32.2633 59.2532 33.4 58.5932 34.5C57.9698 35.5633 57.1632 36.5167 56.1732 37.36C55.1832 38.2033 53.9915 38.8817 52.5982 39.395C51.2048 39.8717 49.5732 40.0733 47.7032 40H39.7832L42.6982 37.635V9.09L39.6182 6.615H47.0982C49.6648 6.615 51.9565 7.12833 53.9732 8.155C54.8532 8.595 55.6965 9.18166 56.5032 9.915C57.3465 10.6117 58.0982 11.51 58.7582 12.61C59.4182 13.71 59.9682 15.0117 60.4082 16.515C60.8482 18.0183 61.1048 19.7783 61.1782 21.795ZM50.7832 36.975C51.2232 36.7183 51.7548 36.3333 52.3782 35.82C53.0015 35.27 53.5882 34.4633 54.1382 33.4C54.6882 32.3367 55.1282 30.9433 55.4582 29.22C55.8248 27.46 55.9898 25.2233 55.9532 22.51C56.0632 20.42 55.9165 18.495 55.5132 16.735C55.3298 15.965 55.0915 15.195 54.7982 14.425C54.5415 13.655 54.1932 12.94 53.7532 12.28C53.3132 11.5833 52.7632 10.96 52.1032 10.41C51.4798 9.86 50.7465 9.43833 49.9032 9.145C49.5365 9.035 49.2615 8.98 49.0782 8.98C48.8948 8.98 48.6198 8.98 48.2532 8.98V37.525C48.5465 37.5617 48.8398 37.5617 49.1332 37.525C49.7198 37.4517 50.2698 37.2683 50.7832 36.975ZM81.4272 21.795C81.6105 25.2783 81.2622 28.3767 80.3822 31.09C80.0155 32.2633 79.5022 33.4 78.8422 34.5C78.2189 35.5633 77.4122 36.5167 76.4222 37.36C75.4322 38.2033 74.2405 38.8817 72.8472 39.395C71.4539 39.8717 69.8222 40.0733 67.9522 40H60.0322L62.9472 37.635V9.09L59.8672 6.615H67.3472C69.9139 6.615 72.2055 7.12833 74.2222 8.155C75.1022 8.595 75.9455 9.18166 76.7522 9.915C77.5955 10.6117 78.3472 11.51 79.0072 12.61C79.6672 13.71 80.2172 15.0117 80.6572 16.515C81.0972 18.0183 81.3539 19.7783 81.4272 21.795ZM71.0322 36.975C71.4722 36.7183 72.0039 36.3333 72.6272 35.82C73.2505 35.27 73.8372 34.4633 74.3872 33.4C74.9372 32.3367 75.3772 30.9433 75.7072 29.22C76.0739 27.46 76.2389 25.2233 76.2022 22.51C76.3122 20.42 76.1655 18.495 75.7622 16.735C75.5789 15.965 75.3405 15.195 75.0472 14.425C74.7905 13.655 74.4422 12.94 74.0022 12.28C73.5622 11.5833 73.0122 10.96 72.3522 10.41C71.7289 9.86 70.9955 9.43833 70.1522 9.145C69.7855 9.035 69.5105 8.98 69.3272 8.98C69.1439 8.98 68.8689 8.98 68.5022 8.98V37.525C68.7955 37.5617 69.0889 37.5617 69.3822 37.525C69.9689 37.4517 70.5189 37.2683 71.0322 36.975ZM139.951 26.69L133.461 30.43V45.94C132.545 46.6367 131.39 47.26 129.996 47.81C128.823 48.2867 127.32 48.7083 125.486 49.075C123.653 49.4417 121.471 49.625 118.941 49.625C115.311 49.625 112.195 48.965 109.591 47.645C107.025 46.3617 104.935 44.62 103.321 42.42C101.708 40.22 100.516 37.6533 99.7465 34.72C99.0132 31.75 98.6465 28.615 98.6465 25.315C98.6465 22.125 99.0682 19.1 99.9115 16.24C100.755 13.3433 102.02 10.7767 103.706 8.54C105.393 6.30333 107.501 4.50667 110.031 3.15C112.598 1.79333 115.568 1.02333 118.941 0.839999C121.471 0.729999 123.506 0.803332 125.046 1.06C126.623 1.31667 127.87 1.62833 128.786 1.995C129.85 2.39833 130.638 2.91167 131.151 3.535L133.571 13.435L124.111 4.195C123.855 4.085 123.506 4.01166 123.066 3.975C122.626 3.90167 122.15 3.865 121.636 3.865C121.123 3.82833 120.591 3.81 120.041 3.81C119.528 3.81 119.07 3.82833 118.666 3.865C116.686 3.975 114.908 4.59833 113.331 5.735C111.791 6.87167 110.471 8.39333 109.371 10.3C108.308 12.2067 107.483 14.4433 106.896 17.01C106.31 19.5767 106.016 22.345 106.016 25.315C106.016 28.285 106.291 31.035 106.841 33.565C107.428 36.095 108.253 38.295 109.316 40.165C110.38 42.0717 111.7 43.5933 113.276 44.73C114.853 45.8667 116.668 46.5083 118.721 46.655C119.675 46.7283 120.463 46.765 121.086 46.765C121.746 46.8017 122.351 46.765 122.901 46.655C123.488 46.545 124.093 46.3433 124.716 46.05C125.376 45.7567 126.183 45.2983 127.136 44.675V30.485L120.371 26.69H139.951ZM110.196 5.955C108.913 6.725 107.776 7.605 106.786 8.595C105.796 9.585 105.008 10.4833 104.421 11.29C104.201 11.62 103.945 12.0417 103.651 12.555C103.358 13.0317 103.065 13.5633 102.771 14.15C102.515 14.7367 102.276 15.3233 102.056 15.91C101.836 16.46 101.708 16.9733 101.671 17.45L103.101 20.09L104.806 17.45C104.953 16.24 105.118 15.195 105.301 14.315C105.521 13.3983 105.741 12.6283 105.961 12.005C106.108 11.565 106.328 11.07 106.621 10.52C106.951 9.97 107.318 9.42 107.721 8.87C108.125 8.32 108.528 7.78833 108.931 7.275C109.371 6.76167 109.793 6.32167 110.196 5.955ZM100.846 24.655L102.331 26.8L103.926 24.655L102.331 22.565L100.846 24.655ZM109.866 45.115C109.096 44.3817 108.271 43.355 107.391 42.035C106.548 40.715 105.906 39.4133 105.466 38.13C105.026 36.8467 104.751 35.7833 104.641 34.94C104.568 34.06 104.531 33.1433 104.531 32.19L102.826 29.55L101.396 32.19C101.506 33.1433 101.8 34.2617 102.276 35.545C102.79 36.7917 103.395 37.9467 104.091 39.01C104.825 40.1467 105.65 41.2467 106.566 42.31C107.483 43.41 108.583 44.345 109.866 45.115ZM128.621 41.925L130.271 44.565L131.866 41.925L130.216 29.22L128.621 41.925ZM164.513 40H151.973L154.448 37.14L152.688 28.56H145.813L143.558 37.36L146.473 40H136.243L140.093 37.14L147.738 9.42L144.273 6.67H152.853L161.323 37.58L164.513 40ZM146.363 26.525H152.138L149.223 14.865L146.363 26.525ZM165.033 40L167.783 37.69V9.035L165.033 6.725H173.998L181.038 25.755L188.683 6.725H197.043L194.183 9.035V37.8L196.823 40H185.163L188.078 37.8V16.075L179.663 40L171.523 16.075V37.58L173.888 40H165.033ZM197.906 6.725H217.211V18.495L213.196 8.54H206.651V21.85H210.556L213.196 17.89V27.845L210.666 24.16H206.651V37.47H213.416L217.211 25.04V40H197.906L200.326 37.91V8.87L197.906 6.725Z" fill="white"/>
</g>
<defs>
<filter id="filter0_i_169_572" x="0.945068" y="0.674988" width="216.266" height="52.95" filterUnits="userSpaceOnUse" color-interpolation-filters="sRGB">
<feFlood flood-opacity="0" result="BackgroundImageFix"/>
<feBlend mode="normal" in="SourceGraphic" in2="BackgroundImageFix" result="shape"/>
<feColorMatrix in="SourceAlpha" type="matrix" values="0 0 0 0 0 0 0 0 0 0 0 0 0 0 0 0 0 0 127 0" result="hardAlpha"/>
<feOffset dy="4"/>
<feGaussianBlur stdDeviation="2"/>
<feComposite in2="hardAlpha" operator="arithmetic" k2="-1" k3="1"/>
<feColorMatrix type="matrix" values="0 0 0 0 0 0 0 0 0 0 0 0 0 0 0 0 0 0 0.25 0"/>
<feBlend mode="normal" in2="shape" result="effect1_innerShadow_169_572"/>
</filter>
</defs>
</svg>
