<svg width="50" height="50" viewBox="0 0 50 50" fill="none" xmlns="http://www.w3.org/2000/svg">
<circle cx="25" cy="25" r="25" fill="white"/>
<g clip-path="url(#clip0_164_32)">
<path fill-rule="evenodd" clip-rule="evenodd" d="M13.2675 16.7825C13.4094 16.4398 13.6498 16.147 13.9582 15.9409C14.2666 15.7349 14.6291 15.625 15 15.625H27.5C29.9864 15.625 32.371 16.6127 34.1291 18.3709C35.8873 20.129 36.875 22.5136 36.875 25C36.875 27.4864 35.8873 29.871 34.1291 31.6291C32.371 33.3873 29.9864 34.375 27.5 34.375H16.25C15.7527 34.375 15.2758 34.1775 14.9242 33.8258C14.5725 33.4742 14.375 32.9973 14.375 32.5C14.375 32.0027 14.5725 31.5258 14.9242 31.1742C15.2758 30.8225 15.7527 30.625 16.25 30.625H27.5C28.9918 30.625 30.4226 30.0324 31.4775 28.9775C32.5324 27.9226 33.125 26.4918 33.125 25C33.125 23.5082 32.5324 22.0774 31.4775 21.0225C30.4226 19.9676 28.9918 19.375 27.5 19.375H19.5263L20.7013 20.55C21.0426 20.9038 21.2314 21.3775 21.2269 21.8691C21.2224 22.3607 21.025 22.8309 20.6772 23.1784C20.3294 23.5259 19.859 23.7229 19.3674 23.7269C18.8758 23.7309 18.4022 23.5417 18.0488 23.2L13.6738 18.825C13.4117 18.5628 13.2333 18.2289 13.161 17.8653C13.0887 17.5018 13.1258 17.125 13.2675 16.7825Z" fill="black"/>
</g>
<defs>
<clipPath id="clip0_164_32">
<rect width="30" height="30" fill="white" transform="translate(10 10)"/>
</clipPath>
</defs>
</svg>
