<svg width="43" height="43" viewBox="0 0 43 43" fill="none" xmlns="http://www.w3.org/2000/svg">
<g filter="url(#filter0_i_131_7)">
<path d="M39 21.5312C39 31.1633 31.1633 39 21.5312 39C11.8993 39 4.0625 31.1632 4.0625 21.5312C4.0625 11.8992 11.8993 4.0625 21.5313 4.0625C31.1633 4.0625 39 11.8993 39 21.5312ZM36.3125 21.5312C36.3125 13.3518 29.7107 6.75 21.5313 6.75C13.3518 6.75 6.75 13.3518 6.75 21.5312C6.75 29.7107 13.3518 36.3125 21.5313 36.3125C29.7107 36.3125 36.3125 29.7107 36.3125 21.5312ZM28.1237 21.5312L27.2005 22.4988L19.138 30.5612L17.203 28.6262L24.3034 21.5312L17.2084 14.4362L19.1394 12.5013L27.2019 20.5638L28.1237 21.5312Z" fill="white"/>
</g>
<path d="M19.1397 13.2087L17.9151 14.4359L24.657 21.1777L25.0106 21.5314L24.6568 21.8849L17.9103 28.6264L19.138 29.8541L26.8429 22.1493L27.4328 21.531L26.8441 20.913L19.1397 13.2087ZM21.5313 38.5C30.8871 38.5 38.5 30.8871 38.5 21.5312C38.5 12.1754 30.8871 4.5625 21.5313 4.5625C12.1754 4.5625 4.5625 12.1754 4.5625 21.5312C4.5625 30.8871 12.1754 38.5 21.5313 38.5ZM21.5313 6.25C29.9868 6.25 36.8125 13.0757 36.8125 21.5312C36.8125 29.9868 29.9868 36.8125 21.5313 36.8125C13.0757 36.8125 6.25 29.9868 6.25 21.5312C6.25 13.0757 13.0757 6.25 21.5313 6.25Z" stroke="white"/>
<defs>
<filter id="filter0_i_131_7" x="4.0625" y="4.0625" width="34.9375" height="38.9375" filterUnits="userSpaceOnUse" color-interpolation-filters="sRGB">
<feFlood flood-opacity="0" result="BackgroundImageFix"/>
<feBlend mode="normal" in="SourceGraphic" in2="BackgroundImageFix" result="shape"/>
<feColorMatrix in="SourceAlpha" type="matrix" values="0 0 0 0 0 0 0 0 0 0 0 0 0 0 0 0 0 0 127 0" result="hardAlpha"/>
<feOffset dy="4"/>
<feGaussianBlur stdDeviation="2"/>
<feComposite in2="hardAlpha" operator="arithmetic" k2="-1" k3="1"/>
<feColorMatrix type="matrix" values="0 0 0 0 0 0 0 0 0 0 0 0 0 0 0 0 0 0 0.25 0"/>
<feBlend mode="normal" in2="shape" result="effect1_innerShadow_131_7"/>
</filter>
</defs>
</svg>
