<svg width="179" height="40" viewBox="0 0 179 40" fill="none" xmlns="http://www.w3.org/2000/svg">
<path d="M8.96 15V10H10.685C12.175 10 12.9 10.8875 12.9 12.495C12.9 14.1025 12.1675 15 10.685 15H8.96ZM10.5925 10.7H9.7925V14.3H10.5925C11.5825 14.3 12.0475 13.7025 12.0475 12.505C12.0475 11.3025 11.5775 10.7 10.5925 10.7ZM17.415 12.1625V12.8425C17.415 14.2575 16.62 15.1 15.34 15.1C14.0575 15.1 13.2575 14.2575 13.2575 12.8425V12.1625C13.2575 10.74 14.0575 9.9025 15.3375 9.9025C16.62 9.9025 17.415 10.745 17.415 12.1625ZM16.5725 12.8475V12.155C16.5725 11.1225 16.045 10.6125 15.3375 10.6125C14.625 10.6125 14.1 11.1225 14.1 12.155V12.8475C14.1 13.8825 14.625 14.3925 15.3375 14.3925C16.045 14.3925 16.5725 13.8825 16.5725 12.8475ZM19.9675 11.4V15H19.17V10H19.9025L22.235 13.59H22.2725V10H23.07V15H22.3425L20 11.4H19.9675ZM27.8225 12.1625V12.8425C27.8225 14.2575 27.0275 15.1 25.7475 15.1C24.465 15.1 23.665 14.2575 23.665 12.8425V12.1625C23.665 10.74 24.465 9.9025 25.745 9.9025C27.0275 9.9025 27.8225 10.745 27.8225 12.1625ZM26.98 12.8475V12.155C26.98 11.1225 26.4525 10.6125 25.745 10.6125C25.0325 10.6125 24.5075 11.1225 24.5075 12.155V12.8475C24.5075 13.8825 25.0325 14.3925 25.745 14.3925C26.4525 14.3925 26.98 13.8825 26.98 12.8475ZM30.07 10.7125V15H29.2375V10.7125H27.7775V10H31.535V10.7125H30.07ZM11.24 29.3H13.5325V30H10.4125V25H13.5325V25.7H11.24V27.125H13.395V27.795H11.24V29.3ZM14.9625 26.4V30H14.1625V25H14.8975L17.23 28.59H17.265V25.0025H18.065V30H17.335L14.995 26.4H14.9625ZM20.66 25.7125V30H19.825V25.7125H18.365V25H22.125V25.71L20.66 25.7125ZM23.25 29.3H25.5425V30H22.425V25H25.545V25.7H23.25V27.125H25.4075V27.795H23.25V29.3ZM26.175 25H28.0875C29.1375 25 29.7725 25.61 29.7725 26.54C29.7847 26.8402 29.7025 27.1367 29.5375 27.3879C29.3725 27.639 29.1329 27.8321 28.8525 27.94L29.8625 30H28.93L28.03 28.0775H26.995V30H26.175V25ZM26.995 25.6825V27.4175H27.9475C28.56 27.4175 28.915 27.13 28.915 26.5675C28.915 25.9975 28.5475 25.6825 27.97 25.6825H26.995ZM8.75 17.5C8.41848 17.5 8.10054 17.6317 7.86612 17.8661C7.6317 18.1005 7.5 18.4185 7.5 18.75V21.25C7.5 21.5815 7.6317 21.8995 7.86612 22.1339C8.10054 22.3683 8.41848 22.5 8.75 22.5H31.25C31.5815 22.5 31.8995 22.3683 32.1339 22.1339C32.3683 21.8995 32.5 21.5815 32.5 21.25V18.75C32.5 18.4185 32.3683 18.1005 32.1339 17.8661C31.8995 17.6317 31.5815 17.5 31.25 17.5H8.75Z" fill="black"/>
<path d="M20 40C25.3043 40 30.3914 37.8929 34.1421 34.1421C37.8929 30.3914 40 25.3043 40 20C40 14.6957 37.8929 9.60859 34.1421 5.85786C30.3914 2.10714 25.3043 0 20 0C14.6957 0 9.60859 2.10714 5.85786 5.85786C2.10714 9.60859 0 14.6957 0 20C0 25.3043 2.10714 30.3914 5.85786 34.1421C9.60859 37.8929 14.6957 40 20 40ZM20 37.5C15.3587 37.5 10.9075 35.6563 7.62563 32.3744C4.34374 29.0925 2.5 24.6413 2.5 20C2.5 15.3587 4.34374 10.9075 7.62563 7.62563C10.9075 4.34374 15.3587 2.5 20 2.5C24.6413 2.5 29.0925 4.34374 32.3744 7.62563C35.6563 10.9075 37.5 15.3587 37.5 20C37.5 24.6413 35.6563 29.0925 32.3744 32.3744C29.0925 35.6563 24.6413 37.5 20 37.5Z" fill="black"/>
<path d="M81.1939 31.3303C79.5817 31.3303 78.1932 30.9858 77.0284 30.2969C75.8707 29.6009 74.9759 28.6243 74.3438 27.3672C73.7188 26.103 73.4062 24.6222 73.4062 22.9247C73.4062 21.2486 73.7188 19.7713 74.3438 18.4929C74.9759 17.2145 75.8565 16.2166 76.9858 15.4993C78.1222 14.782 79.4503 14.4233 80.9702 14.4233C81.8935 14.4233 82.7884 14.576 83.6548 14.8814C84.5213 15.1868 85.299 15.6662 85.9879 16.3196C86.6768 16.973 87.2202 17.8217 87.6179 18.8658C88.0156 19.9027 88.2145 21.1634 88.2145 22.6477V23.777H75.2067V21.3906H85.093C85.093 20.5526 84.9226 19.8104 84.5817 19.1641C84.2408 18.5107 83.7614 17.9957 83.1435 17.6193C82.5327 17.2429 81.8153 17.0547 80.9915 17.0547C80.0966 17.0547 79.3153 17.2749 78.6477 17.7152C77.9872 18.1484 77.4759 18.7166 77.1136 19.4197C76.7585 20.1158 76.581 20.8722 76.581 21.6889V23.5533C76.581 24.647 76.7727 25.5774 77.1562 26.3445C77.5469 27.1115 78.0902 27.6974 78.7862 28.1023C79.4822 28.5 80.2955 28.6989 81.2259 28.6989C81.8295 28.6989 82.38 28.6136 82.8771 28.4432C83.3743 28.2656 83.804 28.0028 84.1662 27.6548C84.5284 27.3068 84.8054 26.8771 84.9972 26.3658L88.0121 26.9091C87.7706 27.7969 87.3374 28.5746 86.7124 29.2422C86.0945 29.9027 85.3168 30.4176 84.3793 30.7869C83.4489 31.1491 82.3871 31.3303 81.1939 31.3303ZM93.8821 14.6364L97.4936 21.0071L101.137 14.6364H104.621L99.5178 22.8182L104.663 31H101.18L97.4936 24.8849L93.8182 31H90.3239L95.4162 22.8182L90.3878 14.6364H93.8821ZM107.891 37.1364V14.6364H111.002V17.2891H111.268C111.453 16.9482 111.719 16.554 112.067 16.1065C112.415 15.6591 112.898 15.2685 113.516 14.9347C114.134 14.5938 114.951 14.4233 115.967 14.4233C117.288 14.4233 118.467 14.7571 119.504 15.4247C120.54 16.0923 121.354 17.0547 121.943 18.3118C122.54 19.5689 122.838 21.0817 122.838 22.8501C122.838 24.6186 122.543 26.1349 121.954 27.3991C121.364 28.6562 120.555 29.6257 119.525 30.3075C118.495 30.9822 117.32 31.3196 115.999 31.3196C115.004 31.3196 114.191 31.1527 113.559 30.8189C112.934 30.4851 112.444 30.0945 112.089 29.647C111.734 29.1996 111.46 28.8018 111.268 28.4538H111.077V37.1364H107.891ZM111.013 22.8182C111.013 23.9687 111.18 24.9773 111.513 25.8438C111.847 26.7102 112.33 27.3885 112.962 27.8786C113.594 28.3615 114.369 28.603 115.285 28.603C116.237 28.603 117.032 28.3509 117.671 27.8466C118.31 27.3352 118.793 26.6428 119.12 25.7692C119.454 24.8956 119.621 23.9119 119.621 22.8182C119.621 21.7386 119.457 20.7692 119.131 19.9098C118.811 19.0504 118.328 18.3722 117.682 17.875C117.043 17.3778 116.244 17.1293 115.285 17.1293C114.362 17.1293 113.58 17.3672 112.941 17.843C112.309 18.3189 111.83 18.983 111.503 19.8352C111.176 20.6875 111.013 21.6818 111.013 22.8182ZM129.592 9.18182V31H126.407V9.18182H129.592ZM140.77 31.3303C139.236 31.3303 137.898 30.9787 136.754 30.2756C135.611 29.5724 134.723 28.5888 134.091 27.3246C133.459 26.0604 133.143 24.5831 133.143 22.8928C133.143 21.1953 133.459 19.7109 134.091 18.4396C134.723 17.1683 135.611 16.1811 136.754 15.478C137.898 14.7749 139.236 14.4233 140.77 14.4233C142.305 14.4233 143.643 14.7749 144.787 15.478C145.93 16.1811 146.818 17.1683 147.45 18.4396C148.082 19.7109 148.398 21.1953 148.398 22.8928C148.398 24.5831 148.082 26.0604 147.45 27.3246C146.818 28.5888 145.93 29.5724 144.787 30.2756C143.643 30.9787 142.305 31.3303 140.77 31.3303ZM140.781 28.6562C141.775 28.6562 142.599 28.3935 143.253 27.8679C143.906 27.3423 144.389 26.6428 144.702 25.7692C145.021 24.8956 145.181 23.9332 145.181 22.8821C145.181 21.8381 145.021 20.8793 144.702 20.0057C144.389 19.125 143.906 18.4183 143.253 17.8857C142.599 17.353 141.775 17.0866 140.781 17.0866C139.78 17.0866 138.949 17.353 138.288 17.8857C137.635 18.4183 137.148 19.125 136.829 20.0057C136.516 20.8793 136.36 21.8381 136.36 22.8821C136.36 23.9332 136.516 24.8956 136.829 25.7692C137.148 26.6428 137.635 27.3423 138.288 27.8679C138.949 28.3935 139.78 28.6562 140.781 28.6562ZM151.954 31V14.6364H155.033V17.2358H155.203C155.501 16.3551 156.027 15.6626 156.78 15.1584C157.54 14.647 158.399 14.3913 159.358 14.3913C159.557 14.3913 159.791 14.3984 160.061 14.4126C160.338 14.4268 160.555 14.4446 160.711 14.4659V17.5128C160.583 17.4773 160.356 17.4382 160.029 17.3956C159.702 17.3459 159.376 17.321 159.049 17.321C158.296 17.321 157.625 17.4808 157.036 17.8004C156.453 18.1129 155.991 18.5497 155.651 19.1108C155.31 19.6648 155.139 20.2969 155.139 21.0071V31H151.954ZM169.934 31.3303C168.322 31.3303 166.933 30.9858 165.769 30.2969C164.611 29.6009 163.716 28.6243 163.084 27.3672C162.459 26.103 162.146 24.6222 162.146 22.9247C162.146 21.2486 162.459 19.7713 163.084 18.4929C163.716 17.2145 164.597 16.2166 165.726 15.4993C166.862 14.782 168.191 14.4233 169.71 14.4233C170.634 14.4233 171.529 14.576 172.395 14.8814C173.262 15.1868 174.039 15.6662 174.728 16.3196C175.417 16.973 175.96 17.8217 176.358 18.8658C176.756 19.9027 176.955 21.1634 176.955 22.6477V23.777H163.947V21.3906H173.833C173.833 20.5526 173.663 19.8104 173.322 19.1641C172.981 18.5107 172.502 17.9957 171.884 17.6193C171.273 17.2429 170.556 17.0547 169.732 17.0547C168.837 17.0547 168.056 17.2749 167.388 17.7152C166.727 18.1484 166.216 18.7166 165.854 19.4197C165.499 20.1158 165.321 20.8722 165.321 21.6889V23.5533C165.321 24.647 165.513 25.5774 165.896 26.3445C166.287 27.1115 166.83 27.6974 167.526 28.1023C168.222 28.5 169.036 28.6989 169.966 28.6989C170.57 28.6989 171.12 28.6136 171.617 28.4432C172.115 28.2656 172.544 28.0028 172.906 27.6548C173.269 27.3068 173.546 26.8771 173.737 26.3658L176.752 26.9091C176.511 27.7969 176.078 28.5746 175.453 29.2422C174.835 29.9027 174.057 30.4176 173.119 30.7869C172.189 31.1491 171.127 31.3303 169.934 31.3303Z" fill="black"/>
</svg>
