<svg width="130" height="130" viewBox="0 0 130 130" fill="none" xmlns="http://www.w3.org/2000/svg">
<path d="M21.6666 97.5C21.6666 91.7536 23.9494 86.2426 28.0126 82.1793C32.0759 78.1161 37.5869 75.8333 43.3333 75.8333H86.6666C92.413 75.8333 97.924 78.1161 101.987 82.1793C106.051 86.2426 108.333 91.7536 108.333 97.5C108.333 100.373 107.192 103.129 105.16 105.16C103.129 107.192 100.373 108.333 97.5 108.333H32.5C29.6268 108.333 26.8713 107.192 24.8396 105.16C22.808 103.129 21.6666 100.373 21.6666 97.5Z" stroke="#333333" stroke-width="2" stroke-linejoin="round"/>
<path d="M65 54.1667C73.9746 54.1667 81.25 46.8913 81.25 37.9167C81.25 28.942 73.9746 21.6667 65 21.6667C56.0254 21.6667 48.75 28.942 48.75 37.9167C48.75 46.8913 56.0254 54.1667 65 54.1667Z" stroke="#333333" stroke-width="2"/>
</svg>
