<svg width="80" height="80" viewBox="0 0 80 80" fill="none" xmlns="http://www.w3.org/2000/svg">
<path d="M36.6667 27.5833V26.1667C34.2222 25.4444 32.2222 24.07 30.6667 22.0433C29.1111 20.0167 28.3333 17.6689 28.3333 15C28.3333 11.7778 29.4722 9.02778 31.75 6.75C34.0278 4.47222 36.7778 3.33333 40 3.33333C43.2222 3.33333 45.9722 4.47222 48.25 6.75C50.5278 9.02778 51.6667 11.7778 51.6667 15C51.6667 17.6667 50.8889 20.0144 49.3333 22.0433C47.7778 24.0722 45.7778 25.4467 43.3333 26.1667V27.5833L66.6667 41C67.7222 41.6111 68.5422 42.4311 69.1267 43.46C69.7111 44.4889 70.0022 45.6133 70 46.8333V53.1667C70 54.3889 69.7089 55.5144 69.1267 56.5433C68.5444 57.5722 67.7244 58.3911 66.6667 59L43.3333 72.4167C42.2778 73.0278 41.1667 73.3333 40 73.3333C38.8333 73.3333 37.7222 73.0278 36.6667 72.4167L13.3333 59C12.2778 58.3889 11.4589 57.57 10.8767 56.5433C10.2944 55.5167 10.0022 54.3911 10 53.1667V46.8333C10 45.6111 10.2922 44.4867 10.8767 43.46C11.4611 42.4333 12.28 41.6133 13.3333 41L36.6667 27.5833ZM22.6667 43.3333L40 53.3333L57.3333 43.3333L43.3333 35.25V46.6667H36.6667V35.25L22.6667 43.3333Z" fill="black"/>
</svg>
