<svg width="50" height="50" viewBox="0 0 50 50" fill="none" xmlns="http://www.w3.org/2000/svg">
<rect width="50" height="50" rx="10" fill="white"/>
<g clip-path="url(#clip0_130_1058)">
<path d="M25 3C27.9792 3 30.8187 3.5944 33.4147 4.66862L33.4541 4.68652C36.1289 5.80013 38.5387 7.42936 40.5547 9.44889C42.5814 11.472 44.2142 13.8962 45.3314 16.5924C46.4092 19.1849 47 22.028 47 25.0036C47 27.9827 46.4056 30.8223 45.3314 33.4183L45.3135 33.4577C44.1963 36.1325 42.5706 38.5423 40.5511 40.5583C38.528 42.585 36.1038 44.2178 33.4076 45.335C30.8151 46.4128 27.972 47.0036 24.9964 47.0036C22.0208 47.0036 19.1777 46.4092 16.5817 45.335L16.5423 45.3171C13.8675 44.2035 11.4577 42.5742 9.44173 40.5583L9.44531 40.5511C7.41862 38.5244 5.78581 36.1038 4.66862 33.4147C3.5944 30.8187 3 27.9792 3 25C3 22.0208 3.5944 19.1813 4.66862 16.5853L4.68652 16.5459C5.80013 13.8711 7.42936 11.4613 9.44531 9.44531H9.44889C11.4756 7.41862 13.8962 5.78581 16.5889 4.66862C19.1813 3.5944 22.0208 3 25 3ZM9.08366 36.8272L9.1696 36.777C11.2822 35.599 16.7822 35.2087 19.0667 33.6152C19.235 33.3646 19.4141 32.9993 19.5895 32.6019C19.8509 32.0039 20.0908 31.3486 20.2412 30.9046C19.6038 30.1527 19.056 29.304 18.5332 28.4697L16.8037 25.7161C16.1735 24.7708 15.8441 23.9115 15.8226 23.2025C15.8119 22.8695 15.8691 22.5687 15.9945 22.3001C16.1234 22.0208 16.3203 21.7881 16.5889 21.6091C16.7142 21.5231 16.8538 21.4515 17.0078 21.3978C16.8932 19.9046 16.8538 18.0247 16.9255 16.4492C16.9613 16.0768 17.0365 15.7008 17.1367 15.3285C17.5807 13.7493 18.6872 12.4782 20.0586 11.6045C20.8141 11.1211 21.6449 10.7594 22.5078 10.516C23.0592 10.3584 22.0387 8.60384 22.6081 8.54297C25.3545 8.26009 29.7982 10.7702 31.7174 12.8434C32.6771 13.8818 33.2822 15.2604 33.4111 17.083L33.3037 21.5732C33.7835 21.7201 34.0915 22.0244 34.2132 22.515C34.3529 23.0628 34.2025 23.8291 33.737 24.8783C33.7298 24.8962 33.7191 24.9176 33.7083 24.9355L31.7354 28.1833C31.012 29.3757 30.2744 30.5752 29.3184 31.5169C29.4079 31.6458 29.4974 31.7712 29.5833 31.8965C29.9736 32.4694 30.3675 33.0423 30.8724 33.5544C30.8903 33.5723 30.9046 33.5902 30.9154 33.6081C33.1855 35.2122 38.7106 35.6025 40.8304 36.7842L40.9163 36.8343C43.3763 33.5329 44.8301 29.4401 44.8301 25.0072C44.8301 19.5322 42.61 14.5729 39.0221 10.9886C35.4414 7.39714 30.4821 5.17708 25.0072 5.17708C19.5322 5.17708 14.5729 7.39714 10.9886 10.985C7.39355 14.5658 5.1735 19.5251 5.1735 25C5.1735 29.4329 6.62728 33.5257 9.08366 36.8272Z" fill="black"/>
</g>
<defs>
<clipPath id="clip0_130_1058">
<rect width="44" height="44" fill="white" transform="translate(3 3)"/>
</clipPath>
</defs>
</svg>
