<svg width="190" height="190" viewBox="0 0 190 190" fill="none" xmlns="http://www.w3.org/2000/svg">
<path opacity="0.9" d="M80.75 9.95929C89.5679 4.86826 100.432 4.86826 109.25 9.95929L161.522 40.1388C170.34 45.2298 175.772 54.6384 175.772 64.8205V125.179C175.772 135.362 170.34 144.77 161.522 149.861L109.25 180.041C100.432 185.132 89.5679 185.132 80.75 180.041L28.4776 149.861C19.6597 144.77 14.2276 135.362 14.2276 125.179V64.8205C14.2276 54.6384 19.6597 45.2298 28.4776 40.1388L80.75 9.95929Z" fill="white" stroke="black" stroke-width="3"/>
<path d="M51.7614 133.364H53.5227V141.017C53.5227 141.831 53.3314 142.553 52.9489 143.182C52.5663 143.807 52.0284 144.299 51.3352 144.659C50.642 145.015 49.8295 145.193 48.8977 145.193C47.9697 145.193 47.1591 145.015 46.4659 144.659C45.7727 144.299 45.2348 143.807 44.8523 143.182C44.4697 142.553 44.2784 141.831 44.2784 141.017V133.364H46.0341V140.875C46.0341 141.402 46.1496 141.869 46.3807 142.278C46.6155 142.688 46.947 143.009 47.375 143.244C47.803 143.475 48.3106 143.591 48.8977 143.591C49.4886 143.591 49.9981 143.475 50.4261 143.244C50.858 143.009 51.1875 142.688 51.4148 142.278C51.6458 141.869 51.7614 141.402 51.7614 140.875V133.364ZM55.9389 148.273V136.273H57.598V137.688H57.7401C57.8385 137.506 57.9806 137.295 58.1662 137.057C58.3518 136.818 58.6094 136.61 58.9389 136.432C59.2685 136.25 59.7041 136.159 60.2457 136.159C60.9503 136.159 61.5791 136.337 62.1321 136.693C62.6851 137.049 63.1188 137.562 63.4332 138.233C63.7514 138.903 63.9105 139.71 63.9105 140.653C63.9105 141.597 63.7533 142.405 63.4389 143.08C63.1245 143.75 62.6927 144.267 62.1435 144.631C61.5942 144.991 60.9673 145.17 60.2628 145.17C59.7325 145.17 59.2988 145.081 58.9616 144.903C58.6283 144.725 58.367 144.517 58.1776 144.278C57.9882 144.04 57.8423 143.828 57.7401 143.642H57.6378V148.273H55.9389ZM57.6037 140.636C57.6037 141.25 57.6927 141.788 57.8707 142.25C58.0488 142.712 58.3063 143.074 58.6435 143.335C58.9806 143.593 59.3935 143.722 59.8821 143.722C60.3897 143.722 60.8139 143.587 61.1548 143.318C61.4957 143.045 61.7533 142.676 61.9276 142.21C62.1056 141.744 62.1946 141.22 62.1946 140.636C62.1946 140.061 62.1075 139.544 61.9332 139.085C61.7628 138.627 61.5052 138.265 61.1605 138C60.8196 137.735 60.3935 137.602 59.8821 137.602C59.3897 137.602 58.973 137.729 58.6321 137.983C58.295 138.237 58.0393 138.591 57.8651 139.045C57.6908 139.5 57.6037 140.03 57.6037 140.636ZM67.5128 133.364V145H65.8139V133.364H67.5128ZM73.4744 145.176C72.6563 145.176 71.9422 144.989 71.3324 144.614C70.7225 144.239 70.2491 143.714 69.9119 143.04C69.5748 142.366 69.4062 141.578 69.4062 140.676C69.4062 139.771 69.5748 138.979 69.9119 138.301C70.2491 137.623 70.7225 137.097 71.3324 136.722C71.9422 136.347 72.6563 136.159 73.4744 136.159C74.2926 136.159 75.0066 136.347 75.6165 136.722C76.2263 137.097 76.6998 137.623 77.0369 138.301C77.3741 138.979 77.5426 139.771 77.5426 140.676C77.5426 141.578 77.3741 142.366 77.0369 143.04C76.6998 143.714 76.2263 144.239 75.6165 144.614C75.0066 144.989 74.2926 145.176 73.4744 145.176ZM73.4801 143.75C74.0104 143.75 74.4498 143.61 74.7983 143.33C75.1468 143.049 75.4044 142.676 75.571 142.21C75.7415 141.744 75.8267 141.231 75.8267 140.67C75.8267 140.114 75.7415 139.602 75.571 139.136C75.4044 138.667 75.1468 138.29 74.7983 138.006C74.4498 137.722 74.0104 137.58 73.4801 137.58C72.946 137.58 72.5028 137.722 72.1506 138.006C71.8021 138.29 71.5426 138.667 71.3722 139.136C71.2055 139.602 71.1222 140.114 71.1222 140.67C71.1222 141.231 71.2055 141.744 71.3722 142.21C71.5426 142.676 71.8021 143.049 72.1506 143.33C72.5028 143.61 72.946 143.75 73.4801 143.75ZM81.9787 145.193C81.4257 145.193 80.9257 145.091 80.4787 144.886C80.0317 144.678 79.6776 144.377 79.4162 143.983C79.1586 143.589 79.0298 143.106 79.0298 142.534C79.0298 142.042 79.1245 141.636 79.3139 141.318C79.5033 141 79.759 140.748 80.081 140.562C80.4029 140.377 80.7628 140.237 81.1605 140.142C81.5582 140.047 81.9635 139.975 82.3764 139.926C82.8991 139.866 83.3234 139.816 83.6491 139.778C83.9749 139.737 84.2116 139.67 84.3594 139.58C84.5071 139.489 84.581 139.341 84.581 139.136V139.097C84.581 138.6 84.4408 138.216 84.1605 137.943C83.884 137.67 83.4711 137.534 82.9219 137.534C82.3499 137.534 81.8991 137.661 81.5696 137.915C81.2438 138.165 81.0185 138.443 80.8935 138.75L79.2969 138.386C79.4863 137.856 79.7628 137.428 80.1264 137.102C80.4938 136.773 80.9162 136.534 81.3935 136.386C81.8707 136.235 82.3726 136.159 82.8991 136.159C83.2476 136.159 83.617 136.201 84.0071 136.284C84.401 136.364 84.7685 136.511 85.1094 136.727C85.4541 136.943 85.7363 137.252 85.956 137.653C86.1757 138.051 86.2855 138.568 86.2855 139.205V145H84.6264V143.807H84.5582C84.4484 144.027 84.2836 144.242 84.0639 144.455C83.8442 144.667 83.562 144.843 83.2173 144.983C82.8726 145.123 82.4598 145.193 81.9787 145.193ZM82.348 143.83C82.8177 143.83 83.2192 143.737 83.5526 143.551C83.8897 143.366 84.1454 143.123 84.3196 142.824C84.4976 142.521 84.5866 142.197 84.5866 141.852V140.727C84.526 140.788 84.4086 140.845 84.2344 140.898C84.0639 140.947 83.8688 140.991 83.6491 141.028C83.4295 141.062 83.2154 141.095 83.0071 141.125C82.7988 141.152 82.6245 141.174 82.4844 141.193C82.1548 141.235 81.8537 141.305 81.581 141.403C81.312 141.502 81.0961 141.644 80.9332 141.83C80.7741 142.011 80.6946 142.254 80.6946 142.557C80.6946 142.977 80.8499 143.295 81.1605 143.511C81.4711 143.723 81.867 143.83 82.348 143.83ZM91.8153 145.17C91.1108 145.17 90.482 144.991 89.929 144.631C89.3797 144.267 88.9479 143.75 88.6335 143.08C88.3229 142.405 88.1676 141.597 88.1676 140.653C88.1676 139.71 88.3248 138.903 88.6392 138.233C88.9574 137.562 89.393 137.049 89.946 136.693C90.4991 136.337 91.1259 136.159 91.8267 136.159C92.3684 136.159 92.804 136.25 93.1335 136.432C93.4669 136.61 93.7244 136.818 93.9062 137.057C94.0919 137.295 94.2358 137.506 94.3381 137.688H94.4403V133.364H96.1392V145H94.4801V143.642H94.3381C94.2358 143.828 94.0881 144.04 93.8949 144.278C93.7055 144.517 93.4441 144.725 93.1108 144.903C92.7775 145.081 92.3456 145.17 91.8153 145.17ZM92.1903 143.722C92.679 143.722 93.0919 143.593 93.429 143.335C93.7699 143.074 94.0275 142.712 94.2017 142.25C94.3797 141.788 94.4688 141.25 94.4688 140.636C94.4688 140.03 94.3816 139.5 94.2074 139.045C94.0331 138.591 93.7775 138.237 93.4403 137.983C93.1032 137.729 92.6866 137.602 92.1903 137.602C91.679 137.602 91.2528 137.735 90.9119 138C90.571 138.265 90.3134 138.627 90.1392 139.085C89.9688 139.544 89.8835 140.061 89.8835 140.636C89.8835 141.22 89.9706 141.744 90.1449 142.21C90.3191 142.676 90.5767 143.045 90.9176 143.318C91.2623 143.587 91.6866 143.722 92.1903 143.722ZM102.798 148.273V136.273H104.457V137.688H104.599C104.698 137.506 104.84 137.295 105.026 137.057C105.211 136.818 105.469 136.61 105.798 136.432C106.128 136.25 106.563 136.159 107.105 136.159C107.81 136.159 108.438 136.337 108.991 136.693C109.545 137.049 109.978 137.562 110.293 138.233C110.611 138.903 110.77 139.71 110.77 140.653C110.77 141.597 110.613 142.405 110.298 143.08C109.984 143.75 109.552 144.267 109.003 144.631C108.454 144.991 107.827 145.17 107.122 145.17C106.592 145.17 106.158 145.081 105.821 144.903C105.488 144.725 105.226 144.517 105.037 144.278C104.848 144.04 104.702 143.828 104.599 143.642H104.497V148.273H102.798ZM104.463 140.636C104.463 141.25 104.552 141.788 104.73 142.25C104.908 142.712 105.166 143.074 105.503 143.335C105.84 143.593 106.253 143.722 106.741 143.722C107.249 143.722 107.673 143.587 108.014 143.318C108.355 143.045 108.613 142.676 108.787 142.21C108.965 141.744 109.054 141.22 109.054 140.636C109.054 140.061 108.967 139.544 108.793 139.085C108.622 138.627 108.365 138.265 108.02 138C107.679 137.735 107.253 137.602 106.741 137.602C106.249 137.602 105.832 137.729 105.491 137.983C105.154 138.237 104.899 138.591 104.724 139.045C104.55 139.5 104.463 140.03 104.463 140.636ZM114.372 139.818V145H112.673V133.364H114.349V137.693H114.457C114.662 137.223 114.974 136.85 115.395 136.574C115.815 136.297 116.365 136.159 117.043 136.159C117.641 136.159 118.164 136.282 118.611 136.528C119.062 136.775 119.41 137.142 119.656 137.631C119.906 138.116 120.031 138.722 120.031 139.449V145H118.332V139.653C118.332 139.013 118.168 138.517 117.838 138.165C117.509 137.809 117.05 137.631 116.463 137.631C116.062 137.631 115.702 137.716 115.384 137.886C115.069 138.057 114.821 138.307 114.639 138.636C114.461 138.962 114.372 139.356 114.372 139.818ZM125.974 145.176C125.156 145.176 124.442 144.989 123.832 144.614C123.223 144.239 122.749 143.714 122.412 143.04C122.075 142.366 121.906 141.578 121.906 140.676C121.906 139.771 122.075 138.979 122.412 138.301C122.749 137.623 123.223 137.097 123.832 136.722C124.442 136.347 125.156 136.159 125.974 136.159C126.793 136.159 127.507 136.347 128.116 136.722C128.726 137.097 129.2 137.623 129.537 138.301C129.874 138.979 130.043 139.771 130.043 140.676C130.043 141.578 129.874 142.366 129.537 143.04C129.2 143.714 128.726 144.239 128.116 144.614C127.507 144.989 126.793 145.176 125.974 145.176ZM125.98 143.75C126.51 143.75 126.95 143.61 127.298 143.33C127.647 143.049 127.904 142.676 128.071 142.21C128.241 141.744 128.327 141.231 128.327 140.67C128.327 140.114 128.241 139.602 128.071 139.136C127.904 138.667 127.647 138.29 127.298 138.006C126.95 137.722 126.51 137.58 125.98 137.58C125.446 137.58 125.003 137.722 124.651 138.006C124.302 138.29 124.043 138.667 123.872 139.136C123.705 139.602 123.622 140.114 123.622 140.67C123.622 141.231 123.705 141.744 123.872 142.21C124.043 142.676 124.302 143.049 124.651 143.33C125.003 143.61 125.446 143.75 125.98 143.75ZM136.013 136.273V137.636H131.246V136.273H136.013ZM132.524 134.182H134.223V142.438C134.223 142.767 134.272 143.015 134.371 143.182C134.469 143.345 134.596 143.456 134.751 143.517C134.911 143.574 135.083 143.602 135.268 143.602C135.405 143.602 135.524 143.593 135.626 143.574C135.729 143.555 135.808 143.54 135.865 143.528L136.172 144.932C136.073 144.97 135.933 145.008 135.751 145.045C135.57 145.087 135.342 145.11 135.07 145.114C134.623 145.121 134.206 145.042 133.82 144.875C133.433 144.708 133.121 144.451 132.882 144.102C132.643 143.754 132.524 143.316 132.524 142.79V134.182ZM141.474 145.176C140.656 145.176 139.942 144.989 139.332 144.614C138.723 144.239 138.249 143.714 137.912 143.04C137.575 142.366 137.406 141.578 137.406 140.676C137.406 139.771 137.575 138.979 137.912 138.301C138.249 137.623 138.723 137.097 139.332 136.722C139.942 136.347 140.656 136.159 141.474 136.159C142.293 136.159 143.007 136.347 143.616 136.722C144.226 137.097 144.7 137.623 145.037 138.301C145.374 138.979 145.543 139.771 145.543 140.676C145.543 141.578 145.374 142.366 145.037 143.04C144.7 143.714 144.226 144.239 143.616 144.614C143.007 144.989 142.293 145.176 141.474 145.176ZM141.48 143.75C142.01 143.75 142.45 143.61 142.798 143.33C143.147 143.049 143.404 142.676 143.571 142.21C143.741 141.744 143.827 141.231 143.827 140.67C143.827 140.114 143.741 139.602 143.571 139.136C143.404 138.667 143.147 138.29 142.798 138.006C142.45 137.722 142.01 137.58 141.48 137.58C140.946 137.58 140.503 137.722 140.151 138.006C139.802 138.29 139.543 138.667 139.372 139.136C139.205 139.602 139.122 140.114 139.122 140.67C139.122 141.231 139.205 141.744 139.372 142.21C139.543 142.676 139.802 143.049 140.151 143.33C140.503 143.61 140.946 143.75 141.48 143.75Z" fill="#333333"/>
<path d="M63.8889 130C61.4444 130 59.3526 129.13 57.6133 127.391C55.8741 125.652 55.003 123.559 55 121.111V58.8889C55 56.4444 55.8711 54.3526 57.6133 52.6133C59.3556 50.8741 61.4474 50.003 63.8889 50H126.111C128.556 50 130.649 50.8711 132.391 52.6133C134.133 54.3556 135.003 56.4474 135 58.8889V121.111C135 123.556 134.13 125.649 132.391 127.391C130.652 129.133 128.559 130.003 126.111 130H63.8889ZM63.8889 121.111H126.111V58.8889H63.8889V121.111ZM68.3333 112.222H121.667L105 90L91.6667 107.778L81.6667 94.4444L68.3333 112.222Z" fill="black"/>
</svg>
