<svg width="198" height="49" viewBox="0 0 198 49" fill="none" xmlns="http://www.w3.org/2000/svg">
<g filter="url(#filter0_i_169_149)">
<path d="M26.08 48.075L31.25 44.005L27.125 25.91H16.235L11.45 44.28L17.005 48.075H0.945L7.545 44.17L18.545 4.405L10.35 0.499997H27.125L38.565 44.005L44.89 48.075H26.08ZM26.41 22.83L22.065 5.065L17.225 22.83H26.41ZM30.205 31.3L34.77 43.62L33.23 30.53L31.14 28.385L30.205 31.3ZM26.905 18.32L29.16 20.465L30.04 17.55L25.365 5.615L26.905 18.32ZM29.6 22.28L28.555 24.7L30.59 26.405L31.525 23.985L29.6 22.28ZM61.1782 20.795C61.3615 24.2783 61.0132 27.3767 60.1332 30.09C59.7665 31.2633 59.2532 32.4 58.5932 33.5C57.9698 34.5633 57.1632 35.5167 56.1732 36.36C55.1832 37.2033 53.9915 37.8817 52.5982 38.395C51.2048 38.8717 49.5732 39.0733 47.7032 39H39.7832L42.6982 36.635V8.09L39.6182 5.615H47.0982C49.6648 5.615 51.9565 6.12833 53.9732 7.155C54.8532 7.595 55.6965 8.18166 56.5032 8.915C57.3465 9.61167 58.0982 10.51 58.7582 11.61C59.4182 12.71 59.9682 14.0117 60.4082 15.515C60.8482 17.0183 61.1048 18.7783 61.1782 20.795ZM50.7832 35.975C51.2232 35.7183 51.7548 35.3333 52.3782 34.82C53.0015 34.27 53.5882 33.4633 54.1382 32.4C54.6882 31.3367 55.1282 29.9433 55.4582 28.22C55.8248 26.46 55.9898 24.2233 55.9532 21.51C56.0632 19.42 55.9165 17.495 55.5132 15.735C55.3298 14.965 55.0915 14.195 54.7982 13.425C54.5415 12.655 54.1932 11.94 53.7532 11.28C53.3132 10.5833 52.7632 9.96 52.1032 9.41C51.4798 8.86 50.7465 8.43833 49.9032 8.145C49.5365 8.035 49.2615 7.98 49.0782 7.98C48.8948 7.98 48.6198 7.98 48.2532 7.98V36.525C48.5465 36.5617 48.8398 36.5617 49.1332 36.525C49.7198 36.4517 50.2698 36.2683 50.7832 35.975ZM81.4272 20.795C81.6105 24.2783 81.2622 27.3767 80.3822 30.09C80.0155 31.2633 79.5022 32.4 78.8422 33.5C78.2189 34.5633 77.4122 35.5167 76.4222 36.36C75.4322 37.2033 74.2405 37.8817 72.8472 38.395C71.4539 38.8717 69.8222 39.0733 67.9522 39H60.0322L62.9472 36.635V8.09L59.8672 5.615H67.3472C69.9139 5.615 72.2055 6.12833 74.2222 7.155C75.1022 7.595 75.9455 8.18166 76.7522 8.915C77.5955 9.61167 78.3472 10.51 79.0072 11.61C79.6672 12.71 80.2172 14.0117 80.6572 15.515C81.0972 17.0183 81.3539 18.7783 81.4272 20.795ZM71.0322 35.975C71.4722 35.7183 72.0039 35.3333 72.6272 34.82C73.2505 34.27 73.8372 33.4633 74.3872 32.4C74.9372 31.3367 75.3772 29.9433 75.7072 28.22C76.0739 26.46 76.2389 24.2233 76.2022 21.51C76.3122 19.42 76.1655 17.495 75.7622 15.735C75.5789 14.965 75.3405 14.195 75.0472 13.425C74.7905 12.655 74.4422 11.94 74.0022 11.28C73.5622 10.5833 73.0122 9.96 72.3522 9.41C71.7289 8.86 70.9955 8.43833 70.1522 8.145C69.7855 8.035 69.5105 7.98 69.3272 7.98C69.1439 7.98 68.8689 7.98 68.5022 7.98V36.525C68.7955 36.5617 69.0889 36.5617 69.3822 36.525C69.9689 36.4517 70.5189 36.2683 71.0322 35.975ZM116.466 0.389999L111.241 3.58V35.37C111.278 37.13 111.626 38.6883 112.286 40.045C112.543 40.6317 112.891 41.2 113.331 41.75C113.771 42.3367 114.321 42.85 114.981 43.29C115.641 43.73 116.43 44.0783 117.346 44.335C118.263 44.5917 119.326 44.72 120.536 44.72C121.636 44.72 122.59 44.5733 123.396 44.28C124.24 44.0233 124.955 43.6567 125.541 43.18C126.128 42.74 126.605 42.2267 126.971 41.64C127.375 41.0533 127.705 40.4483 127.961 39.825C128.548 38.3583 128.841 36.7083 128.841 34.875V3.69L124.221 0.389999H137.916L132.966 3.58V34.49C133.04 37.02 132.6 39.2933 131.646 41.31C131.243 42.1533 130.711 42.9783 130.051 43.785C129.428 44.6283 128.621 45.3617 127.631 45.985C126.641 46.6083 125.468 47.1033 124.111 47.47C122.755 47.8733 121.178 48.075 119.381 48.075C117.328 48.075 115.531 47.8733 113.991 47.47C112.488 47.0667 111.186 46.535 110.086 45.875C108.986 45.2517 108.051 44.5183 107.281 43.675C106.548 42.8683 105.961 42.025 105.521 41.145C104.458 39.1283 103.926 36.8367 103.926 34.27V3.745L98.5915 0.389999H116.466ZM106.016 16.78L107.666 19.42L109.261 16.78L107.611 4.075L106.016 16.78ZM107.666 21.29L106.071 23.38L107.666 25.525L109.151 23.38L107.666 21.29ZM111.846 43.73C111.003 42.7033 110.38 41.585 109.976 40.375C109.573 39.2017 109.28 37.955 109.096 36.635C108.95 35.645 108.913 34.6733 108.986 33.72C109.096 32.73 109.151 31.7583 109.151 30.805L107.556 28.165L106.016 30.805C106.016 32.2717 106.108 33.555 106.291 34.655C106.475 35.755 106.768 36.7817 107.171 37.735C107.685 38.9817 108.345 40.1367 109.151 41.2C109.958 42.2633 110.856 43.1067 111.846 43.73ZM146.693 8.64C145.96 8.31 145.245 8.07166 144.548 7.925C143.925 7.85167 143.265 7.88833 142.568 8.035C141.908 8.145 141.285 8.53 140.698 9.19C139.855 10.1433 139.488 11.06 139.598 11.94C139.708 12.7833 140.112 13.6633 140.808 14.58C141.505 15.4967 142.403 16.45 143.503 17.44C144.64 18.3933 145.813 19.4383 147.023 20.575C148.38 21.8583 149.443 22.995 150.213 23.985C151.02 24.975 151.588 25.91 151.918 26.79C152.285 27.6333 152.487 28.4767 152.523 29.32C152.597 30.1267 152.615 31.025 152.578 32.015C152.505 33.555 152.138 34.7833 151.478 35.7C150.818 36.6167 150.03 37.3317 149.113 37.845C148.197 38.3217 147.243 38.6517 146.253 38.835C145.3 38.9817 144.457 39.055 143.723 39.055C142.073 39.0917 140.698 39.0183 139.598 38.835C138.498 38.615 137.637 38.3767 137.013 38.12C136.28 37.8267 135.712 37.4967 135.308 37.13V24.425L139.598 35.59C140.002 35.9567 140.46 36.2317 140.973 36.415C141.413 36.5983 141.927 36.745 142.513 36.855C143.137 36.9283 143.815 36.8733 144.548 36.69C145.245 36.5433 145.795 36.2867 146.198 35.92C146.602 35.5167 146.895 35.0583 147.078 34.545C147.298 33.995 147.39 33.4083 147.353 32.785C147.353 32.1617 147.28 31.52 147.133 30.86C146.84 29.5767 146.198 28.4583 145.208 27.505C144.255 26.5517 143.228 25.5983 142.128 24.645C141.248 23.9117 140.442 23.2333 139.708 22.61C139.012 21.95 138.37 21.3083 137.783 20.685C137.197 20.0617 136.702 19.4383 136.298 18.815C135.895 18.1917 135.583 17.5133 135.363 16.78C134.85 15.0933 134.722 13.5533 134.978 12.16C135.272 10.73 135.822 9.52 136.628 8.53C137.435 7.54 138.443 6.77 139.653 6.22C140.863 5.67 142.147 5.395 143.503 5.395C144.86 5.395 146.015 5.48667 146.968 5.67C147.958 5.81666 148.765 6 149.388 6.22C150.122 6.47666 150.745 6.77 151.258 7.1V18.43L146.693 8.64ZM151.983 5.725H171.288V17.495L167.273 7.54H160.728V20.85H164.633L167.273 16.89V26.845L164.743 23.16H160.728V36.47H167.493L171.288 24.04V39H151.983L154.403 36.91V7.87L151.983 5.725ZM172.553 39L176.238 36.8V8.2L173.158 5.725H183.663C184.213 5.725 185.001 5.81667 186.028 6C187.054 6.18333 188.063 6.55 189.053 7.1C190.043 7.65 190.904 8.45667 191.638 9.52C192.408 10.5467 192.811 11.94 192.848 13.7C192.884 15.3867 192.664 16.8167 192.188 17.99C191.748 19.1267 191.198 20.0617 190.538 20.795C189.914 21.4917 189.236 22.005 188.503 22.335C187.806 22.665 187.238 22.83 186.798 22.83L194.278 36.745L197.193 39H188.723L181.738 24.59V36.8L185.368 39H172.553ZM181.848 20.63C183.131 20.6667 184.249 20.465 185.203 20.025C185.606 19.8417 186.009 19.6033 186.413 19.31C186.816 18.98 187.164 18.5767 187.458 18.1C187.751 17.5867 187.971 17 188.118 16.34C188.301 15.6433 188.374 14.8367 188.338 13.92C188.264 12.3067 187.879 11.0967 187.183 10.29C186.523 9.44667 185.789 8.84167 184.983 8.475C184.029 8.07166 182.984 7.85166 181.848 7.815V20.63Z" fill="white"/>
</g>
<defs>
<filter id="filter0_i_169_149" x="0.944946" y="0.389984" width="196.248" height="51.685" filterUnits="userSpaceOnUse" color-interpolation-filters="sRGB">
<feFlood flood-opacity="0" result="BackgroundImageFix"/>
<feBlend mode="normal" in="SourceGraphic" in2="BackgroundImageFix" result="shape"/>
<feColorMatrix in="SourceAlpha" type="matrix" values="0 0 0 0 0 0 0 0 0 0 0 0 0 0 0 0 0 0 127 0" result="hardAlpha"/>
<feOffset dy="4"/>
<feGaussianBlur stdDeviation="2"/>
<feComposite in2="hardAlpha" operator="arithmetic" k2="-1" k3="1"/>
<feColorMatrix type="matrix" values="0 0 0 0 0 0 0 0 0 0 0 0 0 0 0 0 0 0 0.25 0"/>
<feBlend mode="normal" in2="shape" result="effect1_innerShadow_169_149"/>
</filter>
</defs>
</svg>
