<svg width="244" height="50" viewBox="0 0 244 50" fill="none" xmlns="http://www.w3.org/2000/svg">
<g filter="url(#filter0_i_169_420)">
<path d="M0 1.5H31.405L34.43 12.775L26.62 4.58H12.155V23.83H21.89L25.685 16.46V34.115L22 26.91H12.155V45.5H27.005L34.485 38.02L31.405 49.075H0.11L5.61 45.335V5.405L0 1.5ZM7.315 31.805L8.745 44.84L10.45 31.805L8.91 29.22L7.315 31.805ZM7.205 18.385L8.855 21.025L10.45 18.385L8.8 5.68L7.205 18.385ZM8.855 22.895L7.26 24.985L8.855 27.13L10.34 24.985L8.855 22.895ZM56.3647 21.795C56.548 25.2783 56.1997 28.3767 55.3197 31.09C54.953 32.2633 54.4397 33.4 53.7797 34.5C53.1564 35.5633 52.3497 36.5167 51.3597 37.36C50.3697 38.2033 49.178 38.8817 47.7847 39.395C46.3914 39.8717 44.7597 40.0733 42.8897 40H34.9697L37.8847 37.635V9.09L34.8047 6.615H42.2847C44.8514 6.615 47.143 7.12833 49.1597 8.155C50.0397 8.595 50.883 9.18166 51.6897 9.915C52.533 10.6117 53.2847 11.51 53.9447 12.61C54.6047 13.71 55.1547 15.0117 55.5947 16.515C56.0347 18.0183 56.2914 19.7783 56.3647 21.795ZM45.9697 36.975C46.4097 36.7183 46.9414 36.3333 47.5647 35.82C48.188 35.27 48.7747 34.4633 49.3247 33.4C49.8747 32.3367 50.3147 30.9433 50.6447 29.22C51.0114 27.46 51.1764 25.2233 51.1397 22.51C51.2497 20.42 51.103 18.495 50.6997 16.735C50.5164 15.965 50.278 15.195 49.9847 14.425C49.728 13.655 49.3797 12.94 48.9397 12.28C48.4997 11.5833 47.9497 10.96 47.2897 10.41C46.6664 9.86 45.933 9.43833 45.0897 9.145C44.723 9.035 44.448 8.98 44.2647 8.98C44.0814 8.98 43.8064 8.98 43.4397 8.98V37.525C43.733 37.5617 44.0264 37.5617 44.3197 37.525C44.9064 37.4517 45.4564 37.2683 45.9697 36.975ZM55.4847 6.725H66.9797L64.6697 8.375V37.635L67.0347 40H55.7047L58.0697 37.745V8.54L55.4847 6.725ZM68.1592 18.22V6.725H87.2992V18.33L83.5042 9.255H80.9192V37.745L83.3392 40H72.2292L74.7042 37.855V9.255H71.7892L68.1592 18.22ZM137.639 37.415L134.339 46.38C133.533 46.93 132.543 47.425 131.369 47.865C130.379 48.2683 129.151 48.6167 127.684 48.91C126.254 49.24 124.568 49.405 122.624 49.405C121.341 49.405 120.039 49.2583 118.719 48.965C117.436 48.6717 116.171 48.2317 114.924 47.645C113.714 47.095 112.559 46.38 111.459 45.5C110.359 44.62 109.388 43.6117 108.544 42.475C106.931 40.385 105.794 37.8367 105.134 34.83C104.511 31.7867 104.199 28.615 104.199 25.315C104.199 22.345 104.474 19.5583 105.024 16.955C105.574 14.315 106.491 11.9133 107.774 9.75C108.581 8.43 109.553 7.23833 110.689 6.175C111.826 5.11166 113.036 4.21333 114.319 3.48C115.603 2.74667 116.941 2.17833 118.334 1.775C119.764 1.37166 121.194 1.13333 122.624 1.06C125.044 0.986665 127.006 1.07833 128.509 1.335C130.049 1.59167 131.241 1.90333 132.084 2.27C133.074 2.67333 133.826 3.15 134.339 3.7L137.804 9.64L128.564 4.745C128.124 4.525 127.428 4.37833 126.474 4.305C125.558 4.23166 124.733 4.21333 123.999 4.25C122.643 4.28666 121.213 4.67166 119.709 5.405C118.243 6.10167 116.868 7.275 115.584 8.925C114.338 10.5383 113.293 12.6833 112.449 15.36C111.643 18.0367 111.239 21.355 111.239 25.315C111.203 28.945 111.569 32.1167 112.339 34.83C113.146 37.5433 114.173 39.78 115.419 41.54C116.666 43.3367 118.078 44.6567 119.654 45.5C121.231 46.3433 122.789 46.71 124.329 46.6C124.733 46.5633 125.154 46.49 125.594 46.38C126.071 46.3067 126.529 46.1967 126.969 46.05C127.409 45.9033 127.794 45.7383 128.124 45.555C128.491 45.4083 128.784 45.2433 129.004 45.06L137.639 37.415ZM115.419 5.46C114.136 6.23 112.999 7.11 112.009 8.1C111.019 9.09 110.231 9.98833 109.644 10.795C109.424 11.125 109.168 11.5467 108.874 12.06C108.581 12.5367 108.288 13.0683 107.994 13.655C107.738 14.2417 107.499 14.8283 107.279 15.415C107.059 15.965 106.931 16.4783 106.894 16.955L108.324 19.595L110.029 16.955C110.176 15.745 110.341 14.7 110.524 13.82C110.744 12.9033 110.964 12.1333 111.184 11.51C111.331 11.07 111.551 10.575 111.844 10.025C112.174 9.475 112.541 8.925 112.944 8.375C113.348 7.825 113.751 7.29333 114.154 6.78C114.594 6.26666 115.016 5.82667 115.419 5.46ZM106.399 24.27L107.884 26.415L109.479 24.27L107.884 22.18L106.399 24.27ZM115.089 44.785C114.319 44.0517 113.494 43.025 112.614 41.705C111.771 40.385 111.129 39.0833 110.689 37.8C110.249 36.5167 109.974 35.4533 109.864 34.61C109.791 33.73 109.754 32.8133 109.754 31.86L108.049 29.22L106.619 31.86C106.729 32.8133 107.023 33.9317 107.499 35.215C108.013 36.4617 108.618 37.6167 109.314 38.68C110.048 39.8167 110.873 40.9167 111.789 41.98C112.706 43.08 113.806 44.015 115.089 44.785ZM162.868 40H150.328L152.803 37.14L151.043 28.56H144.168L141.913 37.36L144.828 40H134.598L138.448 37.14L146.093 9.42L142.628 6.67H151.208L159.678 37.58L162.868 40ZM144.718 26.525H150.493L147.578 14.865L144.718 26.525ZM158.931 18.22V6.725H178.071V18.33L174.276 9.255H171.691V37.745L174.111 40H163.001L165.476 37.855V9.255H162.561L158.931 18.22ZM178.536 6.725H197.841V18.495L193.826 8.54H187.281V21.85H191.186L193.826 17.89V27.845L191.296 24.16H187.281V37.47H194.046L197.841 25.04V40H178.536L180.956 37.91V8.87L178.536 6.725ZM219.566 24.765L217.476 27.075V38.46C216.743 38.8633 215.991 39.23 215.221 39.56C214.561 39.8533 213.81 40.0917 212.966 40.275C212.16 40.495 211.353 40.605 210.546 40.605C208.896 40.605 207.301 40.2017 205.761 39.395C204.258 38.5517 202.975 37.305 201.911 35.655C200.848 34.115 200.115 32.2817 199.711 30.155C199.308 27.9917 199.106 25.7183 199.106 23.335C199.106 21.1717 199.271 19.155 199.601 17.285C199.968 15.415 200.573 13.71 201.416 12.17C202.48 10.2633 203.8 8.77833 205.376 7.715C206.99 6.615 208.713 6.01 210.546 5.9C211.976 5.82667 213.131 5.88166 214.011 6.065C214.928 6.24833 215.643 6.46833 216.156 6.725C216.743 7.055 217.183 7.42167 217.476 7.825V18.495L212.581 8.65C212.105 8.35667 211.39 8.265 210.436 8.375C209.63 8.44833 208.878 8.88833 208.181 9.695C207.485 10.465 206.861 11.51 206.311 12.83C205.798 14.15 205.395 15.7083 205.101 17.505C204.808 19.265 204.661 21.2083 204.661 23.335C204.661 25.425 204.808 27.3867 205.101 29.22C205.431 31.0167 205.853 32.5933 206.366 33.95C206.916 35.27 207.54 36.315 208.236 37.085C208.933 37.8183 209.685 38.185 210.491 38.185C210.821 38.185 211.188 38.1117 211.591 37.965C211.995 37.7817 212.325 37.5617 212.581 37.305V27.13L210.436 24.765H219.566ZM241.163 12.61C241.897 14.04 242.447 15.69 242.813 17.56C243.18 19.3933 243.363 21.3183 243.363 23.335C243.363 24.5083 243.29 25.7 243.143 26.91C242.997 28.0833 242.777 29.2383 242.483 30.375C242.227 31.475 241.897 32.52 241.493 33.51C241.09 34.5 240.65 35.38 240.173 36.15C239.147 37.8 237.918 38.955 236.488 39.615C235.058 40.275 233.537 40.605 231.923 40.605C230.31 40.605 228.733 40.1833 227.193 39.34C225.653 38.4967 224.352 37.2683 223.288 35.655C222.225 34.115 221.492 32.2817 221.088 30.155C220.685 27.9917 220.483 25.7183 220.483 23.335C220.483 21.2083 220.648 19.21 220.978 17.34C221.345 15.4333 221.95 13.71 222.793 12.17C223.857 10.2267 225.177 8.705 226.753 7.605C228.367 6.46833 230.09 5.9 231.923 5.9C233.793 5.9 235.535 6.505 237.148 7.715C238.762 8.88833 240.1 10.52 241.163 12.61ZM231.868 38.185C232.675 38.185 233.408 37.8 234.068 37.03C234.765 36.26 235.352 35.215 235.828 33.895C236.342 32.575 236.745 31.0167 237.038 29.22C237.332 27.3867 237.478 25.425 237.478 23.335C237.478 21.2083 237.332 19.2467 237.038 17.45C236.745 15.6167 236.342 14.0217 235.828 12.665C235.315 11.3083 234.71 10.245 234.013 9.475C233.353 8.705 232.62 8.32 231.813 8.32C231.043 8.32 230.292 8.705 229.558 9.475C228.862 10.245 228.257 11.3083 227.743 12.665C227.23 14.0217 226.808 15.6167 226.478 17.45C226.185 19.2467 226.038 21.2083 226.038 23.335C226.038 25.425 226.185 27.3867 226.478 29.22C226.808 31.0167 227.23 32.575 227.743 33.895C228.293 35.215 228.917 36.26 229.613 37.03C230.347 37.8 231.098 38.185 231.868 38.185Z" fill="white"/>
</g>
<defs>
<filter id="filter0_i_169_420" x="0" y="0.949951" width="243.363" height="52.4551" filterUnits="userSpaceOnUse" color-interpolation-filters="sRGB">
<feFlood flood-opacity="0" result="BackgroundImageFix"/>
<feBlend mode="normal" in="SourceGraphic" in2="BackgroundImageFix" result="shape"/>
<feColorMatrix in="SourceAlpha" type="matrix" values="0 0 0 0 0 0 0 0 0 0 0 0 0 0 0 0 0 0 127 0" result="hardAlpha"/>
<feOffset dy="4"/>
<feGaussianBlur stdDeviation="2"/>
<feComposite in2="hardAlpha" operator="arithmetic" k2="-1" k3="1"/>
<feColorMatrix type="matrix" values="0 0 0 0 0 0 0 0 0 0 0 0 0 0 0 0 0 0 0.25 0"/>
<feBlend mode="normal" in2="shape" result="effect1_innerShadow_169_420"/>
</filter>
</defs>
</svg>
