<svg width="216" height="51" viewBox="0 0 216 51" fill="none" xmlns="http://www.w3.org/2000/svg">
<path d="M33.44 38.415L30.14 47.38C29.3333 47.93 28.3433 48.425 27.17 48.865C26.18 49.2683 24.9517 49.6167 23.485 49.91C22.055 50.24 20.3683 50.405 18.425 50.405C17.1417 50.405 15.84 50.2583 14.52 49.965C13.2367 49.6717 11.9717 49.2317 10.725 48.645C9.515 48.095 8.36 47.38 7.26 46.5C6.16 45.62 5.18833 44.6117 4.345 43.475C2.73167 41.385 1.595 38.8367 0.935 35.83C0.311667 32.7867 0 29.615 0 26.315C0 23.345 0.275 20.5583 0.825 17.955C1.375 15.315 2.29167 12.9133 3.575 10.75C4.38167 9.43 5.35333 8.23833 6.49 7.175C7.62667 6.11166 8.83667 5.21333 10.12 4.48C11.4033 3.74667 12.7417 3.17833 14.135 2.775C15.565 2.37166 16.995 2.13333 18.425 2.06C20.845 1.98667 22.8067 2.07833 24.31 2.335C25.85 2.59167 27.0417 2.90333 27.885 3.27C28.875 3.67333 29.6267 4.15 30.14 4.7L33.605 10.64L24.365 5.745C23.925 5.525 23.2283 5.37833 22.275 5.305C21.3583 5.23166 20.5333 5.21333 19.8 5.25C18.4433 5.28666 17.0133 5.67166 15.51 6.405C14.0433 7.10167 12.6683 8.275 11.385 9.925C10.1383 11.5383 9.09333 13.6833 8.25 16.36C7.44333 19.0367 7.04 22.355 7.04 26.315C7.00333 29.945 7.37 33.1167 8.14 35.83C8.94667 38.5433 9.97333 40.78 11.22 42.54C12.4667 44.3367 13.8783 45.6567 15.455 46.5C17.0317 47.3433 18.59 47.71 20.13 47.6C20.5333 47.5633 20.955 47.49 21.395 47.38C21.8717 47.3067 22.33 47.1967 22.77 47.05C23.21 46.9033 23.595 46.7383 23.925 46.555C24.2917 46.4083 24.585 46.2433 24.805 46.06L33.44 38.415ZM11.22 6.46C9.93667 7.23 8.8 8.11 7.81 9.1C6.82 10.09 6.03167 10.9883 5.445 11.795C5.225 12.125 4.96833 12.5467 4.675 13.06C4.38167 13.5367 4.08833 14.0683 3.795 14.655C3.53833 15.2417 3.3 15.8283 3.08 16.415C2.86 16.965 2.73167 17.4783 2.695 17.955L4.125 20.595L5.83 17.955C5.97667 16.745 6.14167 15.7 6.325 14.82C6.545 13.9033 6.765 13.1333 6.985 12.51C7.13167 12.07 7.35167 11.575 7.645 11.025C7.975 10.475 8.34167 9.925 8.745 9.375C9.14833 8.825 9.55167 8.29333 9.955 7.78C10.395 7.26666 10.8167 6.82667 11.22 6.46ZM2.2 25.27L3.685 27.415L5.28 25.27L3.685 23.18L2.2 25.27ZM10.89 45.785C10.12 45.0517 9.295 44.025 8.415 42.705C7.57167 41.385 6.93 40.0833 6.49 38.8C6.05 37.5167 5.775 36.4533 5.665 35.61C5.59167 34.73 5.555 33.8133 5.555 32.86L3.85 30.22L2.42 32.86C2.53 33.8133 2.82333 34.9317 3.3 36.215C3.81333 37.4617 4.41833 38.6167 5.115 39.68C5.84833 40.8167 6.67333 41.9167 7.59 42.98C8.50667 44.08 9.60667 45.015 10.89 45.785ZM58.6691 41H46.1291L48.6041 38.14L46.8441 29.56H39.9691L37.7141 38.36L40.6291 41H30.3991L34.2491 38.14L41.8941 10.42L38.4291 7.67H47.0091L55.4791 38.58L58.6691 41ZM40.5191 27.525H46.2941L43.3791 15.865L40.5191 27.525ZM54.7314 19.22V7.725H73.8714V19.33L70.0764 10.255H67.4914V38.745L69.9114 41H58.8014L61.2764 38.855V10.255H58.3614L54.7314 19.22ZM74.3372 7.725H93.6422V19.495L89.6272 9.54H83.0822V22.85H86.9872L89.6272 18.89V28.845L87.0972 25.16H83.0822V38.47H89.8472L93.6422 26.04V41H74.3372L76.7572 38.91V9.87L74.3372 7.725ZM115.367 25.765L113.277 28.075V39.46C112.544 39.8633 111.792 40.23 111.022 40.56C110.362 40.8533 109.611 41.0917 108.767 41.275C107.961 41.495 107.154 41.605 106.347 41.605C104.697 41.605 103.102 41.2017 101.562 40.395C100.059 39.5517 98.7756 38.305 97.7122 36.655C96.6489 35.115 95.9156 33.2817 95.5122 31.155C95.1089 28.9917 94.9072 26.7183 94.9072 24.335C94.9072 22.1717 95.0722 20.155 95.4022 18.285C95.7689 16.415 96.3739 14.71 97.2172 13.17C98.2806 11.2633 99.6006 9.77833 101.177 8.715C102.791 7.615 104.514 7.01 106.347 6.9C107.777 6.82667 108.932 6.88166 109.812 7.065C110.729 7.24833 111.444 7.46833 111.957 7.725C112.544 8.055 112.984 8.42167 113.277 8.825V19.495L108.382 9.65C107.906 9.35667 107.191 9.265 106.237 9.375C105.431 9.44833 104.679 9.88833 103.982 10.695C103.286 11.465 102.662 12.51 102.112 13.83C101.599 15.15 101.196 16.7083 100.902 18.505C100.609 20.265 100.462 22.2083 100.462 24.335C100.462 26.425 100.609 28.3867 100.902 30.22C101.232 32.0167 101.654 33.5933 102.167 34.95C102.717 36.27 103.341 37.315 104.037 38.085C104.734 38.8183 105.486 39.185 106.292 39.185C106.622 39.185 106.989 39.1117 107.392 38.965C107.796 38.7817 108.126 38.5617 108.382 38.305V28.13L106.237 25.765H115.367ZM136.964 13.61C137.698 15.04 138.248 16.69 138.614 18.56C138.981 20.3933 139.164 22.3183 139.164 24.335C139.164 25.5083 139.091 26.7 138.944 27.91C138.798 29.0833 138.578 30.2383 138.284 31.375C138.028 32.475 137.698 33.52 137.294 34.51C136.891 35.5 136.451 36.38 135.974 37.15C134.948 38.8 133.719 39.955 132.289 40.615C130.859 41.275 129.338 41.605 127.724 41.605C126.111 41.605 124.534 41.1833 122.994 40.34C121.454 39.4967 120.153 38.2683 119.089 36.655C118.026 35.115 117.293 33.2817 116.889 31.155C116.486 28.9917 116.284 26.7183 116.284 24.335C116.284 22.2083 116.449 20.21 116.779 18.34C117.146 16.4333 117.751 14.71 118.594 13.17C119.658 11.2267 120.978 9.705 122.554 8.605C124.168 7.46833 125.891 6.9 127.724 6.9C129.594 6.9 131.336 7.505 132.949 8.715C134.563 9.88833 135.901 11.52 136.964 13.61ZM127.669 39.185C128.476 39.185 129.209 38.8 129.869 38.03C130.566 37.26 131.153 36.215 131.629 34.895C132.143 33.575 132.546 32.0167 132.839 30.22C133.133 28.3867 133.279 26.425 133.279 24.335C133.279 22.2083 133.133 20.2467 132.839 18.45C132.546 16.6167 132.143 15.0217 131.629 13.665C131.116 12.3083 130.511 11.245 129.814 10.475C129.154 9.705 128.421 9.32 127.614 9.32C126.844 9.32 126.093 9.705 125.359 10.475C124.663 11.245 124.058 12.3083 123.544 13.665C123.031 15.0217 122.609 16.6167 122.279 18.45C121.986 20.2467 121.839 22.2083 121.839 24.335C121.839 26.425 121.986 28.3867 122.279 30.22C122.609 32.0167 123.031 33.575 123.544 34.895C124.094 36.215 124.718 37.26 125.414 38.03C126.148 38.8 126.899 39.185 127.669 39.185ZM136.963 41L140.648 38.8V10.2L137.568 7.725H148.073C148.623 7.725 149.411 7.81667 150.438 8C151.465 8.18333 152.473 8.55 153.463 9.1C154.453 9.65 155.315 10.4567 156.048 11.52C156.818 12.5467 157.221 13.94 157.258 15.7C157.295 17.3867 157.075 18.8167 156.598 19.99C156.158 21.1267 155.608 22.0617 154.948 22.795C154.325 23.4917 153.646 24.005 152.913 24.335C152.216 24.665 151.648 24.83 151.208 24.83L158.688 38.745L161.603 41H153.133L146.148 26.59V38.8L149.778 41H136.963ZM146.258 22.63C147.541 22.6667 148.66 22.465 149.613 22.025C150.016 21.8417 150.42 21.6033 150.823 21.31C151.226 20.98 151.575 20.5767 151.868 20.1C152.161 19.5867 152.381 19 152.528 18.34C152.711 17.6433 152.785 16.8367 152.748 15.92C152.675 14.3067 152.29 13.0967 151.593 12.29C150.933 11.4467 150.2 10.8417 149.393 10.475C148.44 10.0717 147.395 9.85166 146.258 9.815V22.63ZM162.638 7.725H174.133L171.823 9.375V38.635L174.188 41H162.858L165.223 38.745V9.54L162.638 7.725ZM175.368 7.725H194.673V19.495L190.658 9.54H184.113V22.85H188.018L190.658 18.89V28.845L188.128 25.16H184.113V38.47H190.878L194.673 26.04V41H175.368L177.788 38.91V9.87L175.368 7.725ZM208.643 10.64C207.909 10.31 207.194 10.0717 206.498 9.925C205.874 9.85167 205.214 9.88833 204.518 10.035C203.858 10.145 203.234 10.53 202.648 11.19C201.804 12.1433 201.438 13.06 201.548 13.94C201.658 14.7833 202.061 15.6633 202.758 16.58C203.454 17.4967 204.353 18.45 205.453 19.44C206.589 20.3933 207.763 21.4383 208.973 22.575C210.329 23.8583 211.393 24.995 212.163 25.985C212.969 26.975 213.538 27.91 213.868 28.79C214.234 29.6333 214.436 30.4767 214.473 31.32C214.546 32.1267 214.564 33.025 214.528 34.015C214.454 35.555 214.088 36.7833 213.428 37.7C212.768 38.6167 211.979 39.3317 211.063 39.845C210.146 40.3217 209.193 40.6517 208.203 40.835C207.249 40.9817 206.406 41.055 205.673 41.055C204.022 41.0917 202.648 41.0183 201.548 40.835C200.448 40.615 199.586 40.3767 198.963 40.12C198.229 39.8267 197.661 39.4967 197.258 39.13V26.425L201.548 37.59C201.951 37.9567 202.409 38.2317 202.923 38.415C203.363 38.5983 203.876 38.745 204.463 38.855C205.086 38.9283 205.764 38.8733 206.498 38.69C207.194 38.5433 207.744 38.2867 208.148 37.92C208.551 37.5167 208.844 37.0583 209.028 36.545C209.248 35.995 209.339 35.4083 209.303 34.785C209.303 34.1617 209.229 33.52 209.083 32.86C208.789 31.5767 208.148 30.4583 207.158 29.505C206.204 28.5517 205.178 27.5983 204.078 26.645C203.198 25.9117 202.391 25.2333 201.658 24.61C200.961 23.95 200.319 23.3083 199.733 22.685C199.146 22.0617 198.651 21.4383 198.248 20.815C197.844 20.1917 197.533 19.5133 197.313 18.78C196.799 17.0933 196.671 15.5533 196.928 14.16C197.221 12.73 197.771 11.52 198.578 10.53C199.384 9.54 200.393 8.77 201.603 8.22C202.813 7.67 204.096 7.395 205.453 7.395C206.809 7.395 207.964 7.48667 208.918 7.67C209.908 7.81666 210.714 8 211.338 8.22C212.071 8.47666 212.694 8.77 213.208 9.1V20.43L208.643 10.64Z" fill="white"/>
</svg>
