<svg width="203" height="49" viewBox="0 0 203 49" fill="none" xmlns="http://www.w3.org/2000/svg">
<g filter="url(#filter0_i_169_230)">
<path d="M0 0.499997H31.405L34.43 11.775L26.62 3.58H12.155V22.83H21.89L25.685 15.46V33.115L22 25.91H12.155V44.5H27.005L34.485 37.02L31.405 48.075H0.11L5.61 44.335V4.405L0 0.499997ZM7.315 30.805L8.745 43.84L10.45 30.805L8.91 28.22L7.315 30.805ZM7.205 17.385L8.855 20.025L10.45 17.385L8.8 4.68L7.205 17.385ZM8.855 21.895L7.26 23.985L8.855 26.13L10.34 23.985L8.855 21.895ZM56.3647 20.795C56.548 24.2783 56.1997 27.3767 55.3197 30.09C54.953 31.2633 54.4397 32.4 53.7797 33.5C53.1564 34.5633 52.3497 35.5167 51.3597 36.36C50.3697 37.2033 49.178 37.8817 47.7847 38.395C46.3914 38.8717 44.7597 39.0733 42.8897 39H34.9697L37.8847 36.635V8.09L34.8047 5.615H42.2847C44.8514 5.615 47.143 6.12833 49.1597 7.155C50.0397 7.595 50.883 8.18166 51.6897 8.915C52.533 9.61167 53.2847 10.51 53.9447 11.61C54.6047 12.71 55.1547 14.0117 55.5947 15.515C56.0347 17.0183 56.2914 18.7783 56.3647 20.795ZM45.9697 35.975C46.4097 35.7183 46.9414 35.3333 47.5647 34.82C48.188 34.27 48.7747 33.4633 49.3247 32.4C49.8747 31.3367 50.3147 29.9433 50.6447 28.22C51.0114 26.46 51.1764 24.2233 51.1397 21.51C51.2497 19.42 51.103 17.495 50.6997 15.735C50.5164 14.965 50.278 14.195 49.9847 13.425C49.728 12.655 49.3797 11.94 48.9397 11.28C48.4997 10.5833 47.9497 9.96 47.2897 9.41C46.6664 8.86 45.933 8.43833 45.0897 8.145C44.723 8.035 44.448 7.98 44.2647 7.98C44.0814 7.98 43.8064 7.98 43.4397 7.98V36.525C43.733 36.5617 44.0264 36.5617 44.3197 36.525C44.9064 36.4517 45.4564 36.2683 45.9697 35.975ZM55.4847 5.725H66.9797L64.6697 7.375V36.635L67.0347 39H55.7047L58.0697 36.745V7.54L55.4847 5.725ZM68.1592 17.22V5.725H87.2992V17.33L83.5042 8.255H80.9192V36.745L83.3392 39H72.2292L74.7042 36.855V8.255H71.7892L68.1592 17.22ZM122.019 0.389999L116.794 3.58V35.37C116.831 37.13 117.179 38.6883 117.839 40.045C118.096 40.6317 118.444 41.2 118.884 41.75C119.324 42.3367 119.874 42.85 120.534 43.29C121.194 43.73 121.983 44.0783 122.899 44.335C123.816 44.5917 124.879 44.72 126.089 44.72C127.189 44.72 128.143 44.5733 128.949 44.28C129.793 44.0233 130.508 43.6567 131.094 43.18C131.681 42.74 132.158 42.2267 132.524 41.64C132.928 41.0533 133.258 40.4483 133.514 39.825C134.101 38.3583 134.394 36.7083 134.394 34.875V3.69L129.774 0.389999H143.469L138.519 3.58V34.49C138.593 37.02 138.153 39.2933 137.199 41.31C136.796 42.1533 136.264 42.9783 135.604 43.785C134.981 44.6283 134.174 45.3617 133.184 45.985C132.194 46.6083 131.021 47.1033 129.664 47.47C128.308 47.8733 126.731 48.075 124.934 48.075C122.881 48.075 121.084 47.8733 119.544 47.47C118.041 47.0667 116.739 46.535 115.639 45.875C114.539 45.2517 113.604 44.5183 112.834 43.675C112.101 42.8683 111.514 42.025 111.074 41.145C110.011 39.1283 109.479 36.8367 109.479 34.27V3.745L104.144 0.389999H122.019ZM111.569 16.78L113.219 19.42L114.814 16.78L113.164 4.075L111.569 16.78ZM113.219 21.29L111.624 23.38L113.219 25.525L114.704 23.38L113.219 21.29ZM117.399 43.73C116.556 42.7033 115.933 41.585 115.529 40.375C115.126 39.2017 114.833 37.955 114.649 36.635C114.503 35.645 114.466 34.6733 114.539 33.72C114.649 32.73 114.704 31.7583 114.704 30.805L113.109 28.165L111.569 30.805C111.569 32.2717 111.661 33.555 111.844 34.655C112.028 35.755 112.321 36.7817 112.724 37.735C113.238 38.9817 113.898 40.1367 114.704 41.2C115.511 42.2633 116.409 43.1067 117.399 43.73ZM152.246 8.64C151.513 8.31 150.798 8.07166 150.101 7.925C149.478 7.85167 148.818 7.88833 148.121 8.035C147.461 8.145 146.838 8.53 146.251 9.19C145.408 10.1433 145.041 11.06 145.151 11.94C145.261 12.7833 145.664 13.6633 146.361 14.58C147.058 15.4967 147.956 16.45 149.056 17.44C150.193 18.3933 151.366 19.4383 152.576 20.575C153.933 21.8583 154.996 22.995 155.766 23.985C156.573 24.975 157.141 25.91 157.471 26.79C157.838 27.6333 158.039 28.4767 158.076 29.32C158.149 30.1267 158.168 31.025 158.131 32.015C158.058 33.555 157.691 34.7833 157.031 35.7C156.371 36.6167 155.583 37.3317 154.666 37.845C153.749 38.3217 152.796 38.6517 151.806 38.835C150.853 38.9817 150.009 39.055 149.276 39.055C147.626 39.0917 146.251 39.0183 145.151 38.835C144.051 38.615 143.189 38.3767 142.566 38.12C141.833 37.8267 141.264 37.4967 140.861 37.13V24.425L145.151 35.59C145.554 35.9567 146.013 36.2317 146.526 36.415C146.966 36.5983 147.479 36.745 148.066 36.855C148.689 36.9283 149.368 36.8733 150.101 36.69C150.798 36.5433 151.348 36.2867 151.751 35.92C152.154 35.5167 152.448 35.0583 152.631 34.545C152.851 33.995 152.943 33.4083 152.906 32.785C152.906 32.1617 152.833 31.52 152.686 30.86C152.393 29.5767 151.751 28.4583 150.761 27.505C149.808 26.5517 148.781 25.5983 147.681 24.645C146.801 23.9117 145.994 23.2333 145.261 22.61C144.564 21.95 143.923 21.3083 143.336 20.685C142.749 20.0617 142.254 19.4383 141.851 18.815C141.448 18.1917 141.136 17.5133 140.916 16.78C140.403 15.0933 140.274 13.5533 140.531 12.16C140.824 10.73 141.374 9.52 142.181 8.53C142.988 7.54 143.996 6.77 145.206 6.22C146.416 5.67 147.699 5.395 149.056 5.395C150.413 5.395 151.568 5.48667 152.521 5.67C153.511 5.81666 154.318 6 154.941 6.22C155.674 6.47666 156.298 6.77 156.811 7.1V18.43L152.246 8.64ZM157.535 5.725H176.84V17.495L172.825 7.54H166.28V20.85H170.185L172.825 16.89V26.845L170.295 23.16H166.28V36.47H173.045L176.84 24.04V39H157.535L159.955 36.91V7.87L157.535 5.725ZM178.105 39L181.79 36.8V8.2L178.71 5.725H189.215C189.765 5.725 190.554 5.81667 191.58 6C192.607 6.18333 193.615 6.55 194.605 7.1C195.595 7.65 196.457 8.45667 197.19 9.52C197.96 10.5467 198.364 11.94 198.4 13.7C198.437 15.3867 198.217 16.8167 197.74 17.99C197.3 19.1267 196.75 20.0617 196.09 20.795C195.467 21.4917 194.789 22.005 194.055 22.335C193.359 22.665 192.79 22.83 192.35 22.83L199.83 36.745L202.745 39H194.275L187.29 24.59V36.8L190.92 39H178.105ZM187.4 20.63C188.684 20.6667 189.802 20.465 190.755 20.025C191.159 19.8417 191.562 19.6033 191.965 19.31C192.369 18.98 192.717 18.5767 193.01 18.1C193.304 17.5867 193.524 17 193.67 16.34C193.854 15.6433 193.927 14.8367 193.89 13.92C193.817 12.3067 193.432 11.0967 192.735 10.29C192.075 9.44667 191.342 8.84167 190.535 8.475C189.582 8.07166 188.537 7.85166 187.4 7.815V20.63Z" fill="white"/>
</g>
<defs>
<filter id="filter0_i_169_230" x="0" y="0.389893" width="202.745" height="51.6851" filterUnits="userSpaceOnUse" color-interpolation-filters="sRGB">
<feFlood flood-opacity="0" result="BackgroundImageFix"/>
<feBlend mode="normal" in="SourceGraphic" in2="BackgroundImageFix" result="shape"/>
<feColorMatrix in="SourceAlpha" type="matrix" values="0 0 0 0 0 0 0 0 0 0 0 0 0 0 0 0 0 0 127 0" result="hardAlpha"/>
<feOffset dy="4"/>
<feGaussianBlur stdDeviation="2"/>
<feComposite in2="hardAlpha" operator="arithmetic" k2="-1" k3="1"/>
<feColorMatrix type="matrix" values="0 0 0 0 0 0 0 0 0 0 0 0 0 0 0 0 0 0 0.25 0"/>
<feBlend mode="normal" in2="shape" result="effect1_innerShadow_169_230"/>
</filter>
</defs>
</svg>
