<svg width="232" height="51" viewBox="0 0 232 51" fill="none" xmlns="http://www.w3.org/2000/svg">
<path d="M0.89 50.075L6.39 46.72V5.855L0.835 2.5H12.11L26.85 36.71L41.645 2.5H52.7L46.705 5.855V46.94L52.37 50.075H34.88L40.105 46.94V15.81L24.54 50.075L10.68 15.81V46.61L15.63 50.075H0.89ZM42.03 33.41L43.625 46.445L45.275 33.41L43.68 30.825L42.03 33.41ZM41.92 19.99L43.57 22.63L45.275 19.99L43.625 7.285L41.92 19.99ZM43.57 24.5L41.975 26.59L43.57 28.735L45.275 26.59L43.57 24.5ZM19.205 31.54L25.585 43.09L22.12 30.44L19.755 28.57L19.205 31.54ZM13.98 19.22L16.565 21.09L17.005 18.065L10.515 6.955L13.98 19.22ZM17.28 22.795L16.565 25.325L18.875 26.7L19.425 24.225L17.28 22.795ZM48.6377 7.725H58.5927L56.9427 9.98L61.1227 19.385L65.1927 9.98L63.3227 7.725H70.2527L68.3277 9.98L62.8827 22.96V38.635L64.8627 41H54.5227L56.7227 38.47V23.125L51.1127 9.98L48.6377 7.725ZM100.548 24.17C102.968 24.17 105.131 23.8217 107.038 23.125C107.845 22.8317 108.633 22.4467 109.403 21.97C110.173 21.4933 110.833 20.9067 111.383 20.21C111.97 19.4767 112.428 18.6333 112.758 17.68C113.088 16.69 113.235 15.535 113.198 14.215C113.125 13.0783 112.886 12.0883 112.483 11.245C112.116 10.365 111.621 9.61333 110.998 8.99C110.411 8.36667 109.733 7.85333 108.963 7.45C108.23 7.01 107.478 6.66167 106.708 6.405C104.875 5.78167 102.821 5.47 100.548 5.47V24.17ZM88.1179 50.075L94.1129 46.665V6.02L88.0629 2.5H103.848C104.361 2.5 105.076 2.555 105.993 2.665C106.91 2.775 107.9 2.97667 108.963 3.27C110.063 3.56333 111.163 3.96666 112.263 4.48C113.363 4.99333 114.353 5.67166 115.233 6.515C116.15 7.35833 116.901 8.385 117.488 9.595C118.075 10.805 118.386 12.2533 118.423 13.94C118.496 16.14 118.185 17.9917 117.488 19.495C116.828 20.9983 115.948 22.245 114.848 23.235C113.785 24.225 112.575 24.995 111.218 25.545C109.861 26.095 108.505 26.4983 107.148 26.755C105.828 27.0117 104.563 27.1583 103.353 27.195C102.18 27.2317 101.226 27.2317 100.493 27.195V46.665L106.543 50.075H88.1179ZM95.7079 32.75L97.3029 45.785L98.9529 32.75L97.3579 30.165L95.7079 32.75ZM95.5979 19.33L97.2479 21.97L98.9529 19.33L97.3029 6.625L95.5979 19.33ZM97.2479 23.84L95.6529 25.93L97.2479 28.075L98.9529 25.93L97.2479 23.84ZM115.618 10.365L114.188 14.435L115.728 18.835L117.488 14.435L115.618 10.365ZM117.338 41L121.023 38.8V10.2L117.943 7.725H128.448C128.998 7.725 129.786 7.81667 130.813 8C131.84 8.18333 132.848 8.55 133.838 9.1C134.828 9.65 135.69 10.4567 136.423 11.52C137.193 12.5467 137.596 13.94 137.633 15.7C137.67 17.3867 137.45 18.8167 136.973 19.99C136.533 21.1267 135.983 22.0617 135.323 22.795C134.7 23.4917 134.021 24.005 133.288 24.335C132.591 24.665 132.023 24.83 131.583 24.83L139.063 38.745L141.978 41H133.508L126.523 26.59V38.8L130.153 41H117.338ZM126.633 22.63C127.916 22.6667 129.035 22.465 129.988 22.025C130.391 21.8417 130.795 21.6033 131.198 21.31C131.601 20.98 131.95 20.5767 132.243 20.1C132.536 19.5867 132.756 19 132.903 18.34C133.086 17.6433 133.16 16.8367 133.123 15.92C133.05 14.3067 132.665 13.0967 131.968 12.29C131.308 11.4467 130.575 10.8417 129.768 10.475C128.815 10.0717 127.77 9.85166 126.633 9.815V22.63ZM159.341 13.61C160.074 15.04 160.624 16.69 160.991 18.56C161.358 20.3933 161.541 22.3183 161.541 24.335C161.541 25.5083 161.468 26.7 161.321 27.91C161.174 29.0833 160.954 30.2383 160.661 31.375C160.404 32.475 160.074 33.52 159.671 34.51C159.268 35.5 158.828 36.38 158.351 37.15C157.324 38.8 156.096 39.955 154.666 40.615C153.236 41.275 151.714 41.605 150.101 41.605C148.488 41.605 146.911 41.1833 145.371 40.34C143.831 39.4967 142.529 38.2683 141.466 36.655C140.403 35.115 139.669 33.2817 139.266 31.155C138.863 28.9917 138.661 26.7183 138.661 24.335C138.661 22.2083 138.826 20.21 139.156 18.34C139.523 16.4333 140.128 14.71 140.971 13.17C142.034 11.2267 143.354 9.705 144.931 8.605C146.544 7.46833 148.268 6.9 150.101 6.9C151.971 6.9 153.713 7.505 155.326 8.715C156.939 9.88833 158.278 11.52 159.341 13.61ZM150.046 39.185C150.853 39.185 151.586 38.8 152.246 38.03C152.943 37.26 153.529 36.215 154.006 34.895C154.519 33.575 154.923 32.0167 155.216 30.22C155.509 28.3867 155.656 26.425 155.656 24.335C155.656 22.2083 155.509 20.2467 155.216 18.45C154.923 16.6167 154.519 15.0217 154.006 13.665C153.493 12.3083 152.888 11.245 152.191 10.475C151.531 9.705 150.798 9.32 149.991 9.32C149.221 9.32 148.469 9.705 147.736 10.475C147.039 11.245 146.434 12.3083 145.921 13.665C145.408 15.0217 144.986 16.6167 144.656 18.45C144.363 20.2467 144.216 22.2083 144.216 24.335C144.216 26.425 144.363 28.3867 144.656 30.22C144.986 32.0167 145.408 33.575 145.921 34.895C146.471 36.215 147.094 37.26 147.791 38.03C148.524 38.8 149.276 39.185 150.046 39.185ZM160.308 7.725H179.613V19.495L175.598 9.54H169.053V22.85H172.958L175.598 18.89V28.845L173.068 25.16H169.053V38.745L171.693 41H160.308L162.728 38.91V9.87L160.308 7.725ZM180.933 7.725H192.428L190.118 9.375V38.635L192.483 41H181.153L183.518 38.745V9.54L180.933 7.725ZM210.547 41H193.607L196.302 38.965V9.925L193.607 7.725H205.487L202.847 9.595V38.855H206.642L210.547 26.645V41ZM211.387 7.725H230.692V19.495L226.677 9.54H220.132V22.85H224.037L226.677 18.89V28.845L224.147 25.16H220.132V38.47H226.897L230.692 26.04V41H211.387L213.807 38.91V9.87L211.387 7.725Z" fill="white"/>
</svg>
