<svg width="245" height="50" viewBox="0 0 245 50" fill="none" xmlns="http://www.w3.org/2000/svg">
<g filter="url(#filter0_i_169_618)">
<path d="M0.835 1.39L18.875 1.445L13.43 4.745L23.88 37.415L31.58 4.8L25.805 1.39H41.81L35.595 4.855L24.705 49.075H21.075L6.61 4.91L0.835 1.39ZM17.005 31.09L22.56 43.025L19.975 30.1L17.72 28.12L17.005 31.09ZM12.66 18.44L15.08 20.42L15.685 17.395L10.075 5.9L12.66 18.44ZM15.63 22.18L14.805 24.655L17.005 26.195L17.72 23.72L15.63 22.18ZM35.806 6.725H47.301L44.991 8.375V37.635L47.356 40H36.026L38.391 37.745V8.54L35.806 6.725ZM48.5355 6.725H67.8405V18.495L63.8255 8.54H57.2805V21.85H61.1855L63.8255 17.89V27.845L61.2955 24.16H57.2805V37.47H64.0455L67.8405 25.04V40H48.5355L50.9555 37.91V8.87L48.5355 6.725ZM69.1055 6.725H80.2155L77.7405 8.98L82.6905 27.02L86.9255 8.98L83.8455 6.725H95.3405L92.8655 8.98L97.8155 27.02L102.05 8.925L98.9705 6.725H108.705L105.515 8.98L97.9255 40H95.3955L88.7405 15.69L82.8005 40H80.2705L71.8005 8.98L69.1055 6.725ZM167.237 26.69L160.747 30.43V45.94C159.83 46.6367 158.675 47.26 157.282 47.81C156.108 48.2867 154.605 48.7083 152.772 49.075C150.938 49.4417 148.757 49.625 146.227 49.625C142.597 49.625 139.48 48.965 136.877 47.645C134.31 46.3617 132.22 44.62 130.607 42.42C128.993 40.22 127.802 37.6533 127.032 34.72C126.298 31.75 125.932 28.615 125.932 25.315C125.932 22.125 126.353 19.1 127.197 16.24C128.04 13.3433 129.305 10.7767 130.992 8.54C132.678 6.30333 134.787 4.50667 137.317 3.15C139.883 1.79333 142.853 1.02333 146.227 0.839999C148.757 0.729999 150.792 0.803332 152.332 1.06C153.908 1.31667 155.155 1.62833 156.072 1.995C157.135 2.39833 157.923 2.91167 158.437 3.535L160.857 13.435L151.397 4.195C151.14 4.085 150.792 4.01166 150.352 3.975C149.912 3.90167 149.435 3.865 148.922 3.865C148.408 3.82833 147.877 3.81 147.327 3.81C146.813 3.81 146.355 3.82833 145.952 3.865C143.972 3.975 142.193 4.59833 140.617 5.735C139.077 6.87167 137.757 8.39333 136.657 10.3C135.593 12.2067 134.768 14.4433 134.182 17.01C133.595 19.5767 133.302 22.345 133.302 25.315C133.302 28.285 133.577 31.035 134.127 33.565C134.713 36.095 135.538 38.295 136.602 40.165C137.665 42.0717 138.985 43.5933 140.562 44.73C142.138 45.8667 143.953 46.5083 146.007 46.655C146.96 46.7283 147.748 46.765 148.372 46.765C149.032 46.8017 149.637 46.765 150.187 46.655C150.773 46.545 151.378 46.3433 152.002 46.05C152.662 45.7567 153.468 45.2983 154.422 44.675V30.485L147.657 26.69H167.237ZM137.482 5.955C136.198 6.725 135.062 7.605 134.072 8.595C133.082 9.585 132.293 10.4833 131.707 11.29C131.487 11.62 131.23 12.0417 130.937 12.555C130.643 13.0317 130.35 13.5633 130.057 14.15C129.8 14.7367 129.562 15.3233 129.342 15.91C129.122 16.46 128.993 16.9733 128.957 17.45L130.387 20.09L132.092 17.45C132.238 16.24 132.403 15.195 132.587 14.315C132.807 13.3983 133.027 12.6283 133.247 12.005C133.393 11.565 133.613 11.07 133.907 10.52C134.237 9.97 134.603 9.42 135.007 8.87C135.41 8.32 135.813 7.78833 136.217 7.275C136.657 6.76167 137.078 6.32167 137.482 5.955ZM128.132 24.655L129.617 26.8L131.212 24.655L129.617 22.565L128.132 24.655ZM137.152 45.115C136.382 44.3817 135.557 43.355 134.677 42.035C133.833 40.715 133.192 39.4133 132.752 38.13C132.312 36.8467 132.037 35.7833 131.927 34.94C131.853 34.06 131.817 33.1433 131.817 32.19L130.112 29.55L128.682 32.19C128.792 33.1433 129.085 34.2617 129.562 35.545C130.075 36.7917 130.68 37.9467 131.377 39.01C132.11 40.1467 132.935 41.2467 133.852 42.31C134.768 43.41 135.868 44.345 137.152 45.115ZM155.907 41.925L157.557 44.565L159.152 41.925L157.502 29.22L155.907 41.925ZM191.798 40H179.258L181.733 37.14L179.973 28.56H173.098L170.843 37.36L173.758 40H163.528L167.378 37.14L175.023 9.42L171.558 6.67H180.138L188.608 37.58L191.798 40ZM173.648 26.525H179.423L176.508 14.865L173.648 26.525ZM192.318 40L195.068 37.69V9.035L192.318 6.725H201.283L208.323 25.755L215.968 6.725H224.328L221.468 9.035V37.8L224.108 40H212.448L215.363 37.8V16.075L206.948 40L198.808 16.075V37.58L201.173 40H192.318ZM225.191 6.725H244.496V18.495L240.481 8.54H233.936V21.85H237.841L240.481 17.89V27.845L237.951 24.16H233.936V37.47H240.701L244.496 25.04V40H225.191L227.611 37.91V8.87L225.191 6.725Z" fill="white"/>
</g>
<defs>
<filter id="filter0_i_169_618" x="0.834961" y="0.675049" width="243.661" height="52.95" filterUnits="userSpaceOnUse" color-interpolation-filters="sRGB">
<feFlood flood-opacity="0" result="BackgroundImageFix"/>
<feBlend mode="normal" in="SourceGraphic" in2="BackgroundImageFix" result="shape"/>
<feColorMatrix in="SourceAlpha" type="matrix" values="0 0 0 0 0 0 0 0 0 0 0 0 0 0 0 0 0 0 127 0" result="hardAlpha"/>
<feOffset dy="4"/>
<feGaussianBlur stdDeviation="2"/>
<feComposite in2="hardAlpha" operator="arithmetic" k2="-1" k3="1"/>
<feColorMatrix type="matrix" values="0 0 0 0 0 0 0 0 0 0 0 0 0 0 0 0 0 0 0.25 0"/>
<feBlend mode="normal" in2="shape" result="effect1_innerShadow_169_618"/>
</filter>
</defs>
</svg>
